SplineFontDB: 3.0
FontName: HM_FTXfarnaz_ShadowItalic
FullName: HM_FTXfarnaz_ShadowItalic
FamilyName: HM_FTXfarnaz_ShadowItalic
Weight: Shadow
Copyright: Copyright (c) Hossein, 2013. All rights reserved.
Version: 0.1
ItalicAngle: 0
UnderlinePosition: -540
UnderlineWidth: 60
Ascent: 1638
Descent: 410
sfntRevision: 0x00010000
LayerCount: 2
Layer: 0 1 "Back"  1
Layer: 1 1 "Fore"  0
XUID: [1021 102 1371595031 6992056]
FSType: 0
OS2Version: 2
OS2_WeightWidthSlopeOnly: 0
OS2_UseTypoMetrics: 1
CreationTime: 1194658560
ModificationTime: 1360912386
PfmFamily: 17
TTFWeight: 400
TTFWidth: 5
LineGap: 0
VLineGap: 0
Panose: 2 0 5 3 8 0 0 2 0 3
OS2TypoAscent: 2100
OS2TypoAOffset: 0
OS2TypoDescent: -1000
OS2TypoDOffset: 0
OS2TypoLinegap: 0
OS2WinAscent: 2100
OS2WinAOffset: 0
OS2WinDescent: 1000
OS2WinDOffset: 0
HheadAscent: 2100
HheadAOffset: 0
HheadDescent: -1000
HheadDOffset: 0
OS2SubXSize: 1434
OS2SubYSize: 1331
OS2SubXOff: 0
OS2SubYOff: 293
OS2SupXSize: 1434
OS2SupYSize: 1331
OS2SupXOff: 0
OS2SupYOff: 928
OS2StrikeYSize: 102
OS2StrikeYPos: 512
OS2Vendor: 'pars'
OS2CodePages: 20000051.41000000
OS2UnicodeRanges: 00002003.80000000.00000008.00000000
Lookup: 4 0 1 "gsub_ligature_dfl_liga_arab_FAR_Lookup_01"  {"gsub_ligature_dfl_liga_arab_FAR_Lookup_01_Subtable_01"  } ['liga' ('arab' <'FAR ' > ) ]
Lookup: 4 0 1 "gsub_ligature_dfl_liga_arab_FAR_Lookup_02"  {"gsub_ligature_dfl_liga_arab_FAR_Lookup_02_Subtable_01"  } ['liga' ('arab' <'FAR ' > ) ]
Lookup: 3 0 0 "gsub_alternate_dfl_aalt_arab_FAR_Lookup_01"  {"gsub_alternate_dfl_aalt_arab_FAR_Lookup_01_Subtable_01"  } ['aalt' ('arab' <'FAR ' > ) ]
Lookup: 1 1 0 "gsub_single_rtl_fina_arab_FAR_Lookup_01"  {"gsub_single_rtl_fina_arab_FAR_Lookup_01_Subtable_01"  } ['fina' ('arab' <'FAR ' > ) ]
Lookup: 1 1 0 "gsub_single_rtl_init_arab_FAR_Lookup_01"  {"gsub_single_rtl_init_arab_FAR_Lookup_01_Subtable_01"  } ['init' ('arab' <'FAR ' > ) ]

StartChar: .notdef
Encoding: 65536 -1 0
Width: 1039
GlyphClass: 2
Flags: W
LayerCount: 2
Fore
SplineSet
647 299 m 0,0,1
 640 269 640 269 614.5 246.5 c 128,-1,2
 589 224 589 224 559 224 c 0,3,4
 531 224 531 224 516.5 246.5 c 128,-1,5
 502 269 502 269 509 299 c 0,6,7
 516 331 516 331 541 352.5 c 128,-1,8
 566 374 566 374 597 374 c 0,9,10
 625 374 625 374 639.5 352.5 c 128,-1,11
 654 331 654 331 647 299 c 0,0,1
859 780 m 0,12,13
 849 737 849 737 821 710 c 128,-1,14
 793 683 793 683 758 683 c 0,15,16
 728 683 728 683 715 701.5 c 128,-1,17
 702 720 702 720 708 749 c 0,18,19
 713 770 713 770 726 785 c 128,-1,20
 739 800 739 800 753 810.5 c 128,-1,21
 767 821 767 821 778 829 c 128,-1,22
 789 837 789 837 791 843 c 0,23,24
 796 863 796 863 780 875 c 128,-1,25
 764 887 764 887 737 887 c 0,26,27
 702 887 702 887 674.5 866 c 128,-1,28
 647 845 647 845 640 813 c 0,29,30
 636 795 636 795 639.5 769 c 128,-1,31
 643 743 643 743 649 718 c 128,-1,32
 655 693 655 693 661 673 c 128,-1,33
 667 653 667 653 667 648 c 0,34,35
 671 619 671 619 669 583.5 c 128,-1,36
 667 548 667 548 659 513 c 0,37,38
 654 492 654 492 647.5 470.5 c 128,-1,39
 641 449 641 449 633 424 c 1,40,-1
 597 424 l 1,41,-1
 601 442 l 1,42,-1
 612 472 l 1,43,44
 620 505 620 505 587 544 c 0,45,46
 534 609 534 609 528 620 c 0,47,48
 498 673 498 673 514 740 c 0,49,50
 523 781 523 781 545 815.5 c 128,-1,51
 567 850 567 850 596.5 875.5 c 128,-1,52
 626 901 626 901 661.5 915 c 128,-1,53
 697 929 697 929 733 929 c 0,54,55
 766 929 766 929 793 918.5 c 128,-1,56
 820 908 820 908 837 888.5 c 128,-1,57
 854 869 854 869 860.5 841.5 c 128,-1,58
 867 814 867 814 859 780 c 0,12,13
128 31 m 1,59,-1
 928 31 l 1,60,-1
 1180 1122 l 1,61,-1
 380 1122 l 1,62,-1
 128 31 l 1,59,-1
91 0 m 1,63,-1
 357 1154 l 1,64,-1
 1215 1154 l 1,65,-1
 948 0 l 1,66,-1
 91 0 l 1,63,-1
EndSplineSet
EndChar

StartChar: exclam
Encoding: 33 33 4
Width: 631
VWidth: 1639
GlyphClass: 2
Flags: W
LayerCount: 2
Fore
SplineSet
367 1196 m 1,0,-1
 579 1246 l 1,1,2
 584 1242 584 1242 600 1246 c 1,3,4
 605 1242 605 1242 621 1246 c 1,5,6
 626 1193 626 1193 621 1155 c 1,7,-1
 633 1158 l 1,8,9
 635 1137 635 1137 633 1064 c 1,10,11
 633 973 633 973 623 882 c 1,12,13
 602 640 602 640 543 403 c 0,14,15
 538 383 538 383 528 344 c 0,16,17
 506 252 506 252 491 208 c 1,18,-1
 454 207 l 1,19,-1
 437 143 l 1,20,-1
 472 144 l 1,21,22
 450 50 450 50 401 -69 c 1,23,-1
 205 -67 l 1,24,-1
 220 -25 l 1,25,-1
 140 -25 l 1,26,-1
 197 156 l 1,27,-1
 213 203 l 1,28,-1
 221 220 l 1,29,-1
 246 223 l 1,30,-1
 305 226 l 1,31,-1
 310 241 l 1,32,-1
 231 238 l 1,33,34
 240 278 240 278 262 356 c 0,35,36
 288 451 288 451 298 499 c 0,37,38
 376 872 376 872 356 1150 c 1,39,-1
 363 1151 l 1,40,-1
 362 1173 l 1,41,-1
 368 1174 l 1,42,-1
 367 1196 l 1,0,-1
437 297 m 1,43,44
 456 352 456 352 490 499 c 0,45,46
 547 745 547 745 562 976 c 0,47,48
 568 1048 568 1048 568 1135 c 1,49,50
 572 1181 572 1181 566 1187 c 0,51,52
 563 1189 563 1189 528 1181 c 0,53,54
 513 1178 513 1178 482 1169 c 0,55,56
 435 1156 435 1156 412 1153 c 1,57,58
 410 1141 410 1141 412 1056 c 0,59,60
 412 1050 412 1050 412 1046 c 0,61,62
 408 930 408 930 397 831 c 1,63,64
 378 672 378 672 351 544 c 0,65,66
 341 495 341 495 316 397 c 0,67,68
 297 323 297 323 288 287 c 1,69,-1
 437 297 l 1,43,44
404 185 m 1,70,71
 357 179 357 179 299 179 c 0,72,73
 261 178 261 178 253 174 c 0,74,75
 251 172 251 172 249 169 c 128,-1,76
 247 166 247 166 245.5 162.5 c 128,-1,77
 244 159 244 159 242.5 154 c 128,-1,78
 241 149 241 149 240.5 146.5 c 128,-1,79
 240 144 240 144 239 139 c 2,80,-1
 238 134 l 2,81,82
 236 129 236 129 198 21 c 1,83,-1
 347 20 l 1,84,85
 390 125 390 125 404 185 c 1,70,71
EndSplineSet
EndChar

StartChar: percent
Encoding: 37 37 8
Width: 1112
VWidth: 1639
GlyphClass: 2
Flags: W
LayerCount: 2
Fore
SplineSet
969 1404 m 1,0,-1
 987 1394 l 1,1,-1
 991 1404 l 1,2,-1
 1008 1394 l 1,3,-1
 1012 1404 l 1,4,-1
 1060 1373 l 1,5,-1
 1168 1301 l 1,6,-1
 1159 1279 l 1,7,-1
 1163 1278 l 1,8,-1
 1153 1256 l 1,9,-1
 1158 1255 l 1,10,-1
 1148 1232 l 1,11,-1
 1180 1212 l 1,12,13
 1051 898 1051 898 799 487 c 0,14,15
 578 130 578 130 406 -72 c 1,16,-1
 347 -31 l 1,17,-1
 229 48 l 1,18,-1
 192 72 l 1,19,-1
 180 84 l 1,20,-1
 191 102 l 1,21,22
 181 109 181 109 197 125 c 1,23,24
 189 132 189 132 200 146 c 0,25,26
 226 179 226 179 237 195 c 0,27,28
 318 299 318 299 399 413 c 0,29,30
 658 779 658 779 816 1076 c 0,31,32
 874 1188 874 1188 918 1286 c 0,33,34
 925 1301 925 1301 938 1334 c 0,35,36
 957 1382 957 1382 969 1404 c 1,0,-1
994 1337 m 1,37,38
 990 1331 990 1331 972 1289 c 0,39,40
 939 1213 939 1213 921 1176 c 0,41,42
 823 980 823 980 739 835 c 0,43,44
 604 605 604 605 418 348 c 0,45,46
 358 264 358 264 308 198 c 1,47,48
 259 137 259 137 247 118 c 1,49,50
 264 105 264 105 301 80 c 0,51,52
 325 63 325 63 336 56 c 0,53,54
 338 55 338 55 345 49 c 0,55,56
 362 36 362 36 369 38 c 1,57,58
 373 41 373 41 386 57 c 0,59,60
 394 67 394 67 426 108 c 0,61,62
 493 193 493 193 579 318 c 0,63,64
 708 504 708 504 864 777 c 0,65,66
 1031 1070 1031 1070 1108 1260 c 1,67,68
 1085 1272 1085 1272 994 1337 c 1,37,38
523 1294 m 1,69,70
 657 1312 657 1312 708 1221 c 0,71,72
 714 1210 714 1210 718 1199 c 0,73,74
 722 1190 722 1190 726 1134 c 0,75,76
 728 1117 728 1117 732 1107 c 0,77,78
 758 1027 758 1027 712 954 c 0,79,80
 687 916 687 916 649 895 c 1,81,82
 627 885 627 885 608 881 c 1,83,84
 552 874 552 874 508 899 c 0,85,86
 502 903 502 903 492 913 c 0,87,88
 481 923 481 923 476 927 c 0,89,90
 471 930 471 930 459 935 c 0,91,92
 447 940 447 940 442 943 c 0,93,94
 382 986 382 986 373 1055 c 0,95,96
 361 1150 361 1150 417 1227 c 1,97,98
 460 1284 460 1284 523 1294 c 1,69,70
546 1246 m 1,99,100
 521 1240 521 1240 499 1228 c 0,101,102
 481 1218 481 1218 466 1204 c 0,103,104
 398 1136 398 1136 442 1050 c 0,105,106
 459 1018 459 1018 485 997 c 0,107,108
 524 968 524 968 552 969 c 1,109,110
 601 974 601 974 645 1023 c 0,111,112
 669 1051 669 1051 674 1077 c 0,113,114
 686 1154 686 1154 626 1212 c 0,115,116
 612 1224 612 1224 599 1232 c 0,117,118
 568 1247 568 1247 546 1246 c 1,99,100
803 354 m 1,119,120
 949 373 949 373 997 267 c 0,121,122
 1000 261 1000 261 1002 256 c 0,123,124
 1005 248 1005 248 1008 195 c 0,125,126
 1009 183 1009 183 1011 175 c 0,127,128
 1042 50 1042 50 968 -18 c 0,129,130
 949 -34 949 -34 933 -43 c 0,131,132
 910 -54 910 -54 886 -59 c 1,133,134
 828 -66 828 -66 789 -39 c 0,135,136
 785 -36 785 -36 777 -28 c 0,137,138
 764 -17 764 -17 758 -13 c 0,139,140
 753 -9 753 -9 741 -4 c 0,141,142
 728 1 728 1 723 5 c 0,143,144
 665 47 665 47 655 116 c 1,145,146
 645 213 645 213 702 290 c 1,147,148
 743 344 743 344 803 354 c 1,119,120
826 307 m 1,149,150
 802 301 802 301 781 289 c 0,151,152
 765 279 765 279 747 262 c 0,153,154
 718 231 718 231 709 205 c 0,155,156
 690 137 690 137 751 71 c 0,157,158
 758 64 758 64 764 59 c 0,159,160
 805 26 805 26 837 31 c 0,161,162
 860 34 860 34 884 48 c 0,163,164
 898 58 898 58 919 75 c 1,165,166
 987 144 987 144 938 233 c 0,167,168
 923 259 923 259 903 277 c 0,169,170
 863 310 863 310 826 307 c 1,149,150
EndSplineSet
EndChar

StartChar: parenleft
Encoding: 40 40 11
Width: 699
VWidth: 1639
GlyphClass: 2
Flags: W
LayerCount: 2
Fore
SplineSet
270 -189 m 1,0,1
 264 -170 264 -170 251 -134 c 0,2,3
 237 -97 237 -97 231 -79 c 0,4,5
 204 20 204 20 194 128 c 0,6,7
 156 501 156 501 336 906 c 0,8,9
 375 992 375 992 421 1073 c 0,10,11
 514 1233 514 1233 662 1404 c 0,12,13
 684 1429 684 1429 727 1473 c 0,14,15
 748 1495 748 1495 750 1496 c 0,16,17
 755 1496 755 1496 764 1487 c 1,18,19
 771 1497 771 1497 782 1490 c 0,20,21
 784 1488 784 1488 785 1487 c 1,22,23
 796 1501 796 1501 815 1475 c 0,24,25
 817 1472 817 1472 818 1471 c 0,26,27
 827 1461 827 1461 844 1440 c 0,28,29
 878 1400 878 1400 895 1381 c 1,30,-1
 894 1379 l 1,31,32
 883 1366 883 1366 889 1358 c 1,33,-1
 889 1356 l 1,34,35
 878 1343 878 1343 884 1335 c 1,36,-1
 884 1333 l 1,37,-1
 876 1328 l 1,38,-1
 876 1327 l 1,39,-1
 906 1292 l 1,40,-1
 906 1291 l 1,41,42
 778 1179 778 1179 656 976 c 0,43,44
 519 746 519 746 471 558 c 0,45,46
 442 438 442 438 441 287 c 0,47,48
 441 96 441 96 502 -28 c 1,49,-1
 502 -30 l 1,50,-1
 490 -36 l 1,51,-1
 497 -51 l 1,52,-1
 497 -52 l 1,53,-1
 490 -56 l 1,54,-1
 514 -116 l 1,55,-1
 514 -118 l 1,56,-1
 401 -190 l 1,57,-1
 335 -231 l 1,58,59
 321 -190 321 -190 313 -189 c 1,60,61
 308 -181 308 -181 291 -189 c 1,62,63
 286 -181 286 -181 270 -189 c 1,0,1
762 1428 m 1,64,65
 746 1417 746 1417 696 1359 c 0,66,67
 691 1353 691 1353 688 1350 c 0,68,69
 593 1243 593 1243 508 1115 c 0,70,71
 329 845 329 845 269 576 c 1,72,73
 195 238 195 238 295 -64 c 0,74,75
 305 -93 305 -93 315 -120 c 1,76,-1
 359 -93 l 1,77,-1
 434 -46 l 1,78,79
 432 -31 432 -31 423 -10 c 1,80,81
 415 13 415 13 404 54 c 1,82,83
 379 168 379 168 376 276 c 0,84,85
 371 494 371 494 427 682 c 0,86,87
 484 874 484 874 616 1086 c 1,88,89
 724 1264 724 1264 824 1353 c 1,90,-1
 825 1355 l 1,91,-1
 762 1428 l 1,64,65
EndSplineSet
EndChar

StartChar: parenright
Encoding: 41 41 12
Width: 783
VWidth: 1639
GlyphClass: 2
Flags: W
LayerCount: 2
Fore
SplineSet
475 1386 m 1,0,1
 494 1398 494 1398 532 1422 c 0,2,3
 571 1446 571 1446 589 1458 c 0,4,5
 641 1493 641 1493 642 1493 c 0,6,7
 648 1496 648 1496 653 1497 c 1,8,-1
 656 1487 l 1,9,-1
 675 1497 l 1,10,-1
 677 1487 l 1,11,-1
 696 1497 l 1,12,13
 749 1361 749 1361 774 1179 c 1,14,15
 794 1013 794 1013 788 905 c 0,16,17
 772 576 772 576 600 254 c 0,18,19
 497 60 497 60 339 -121 c 0,20,21
 313 -150 313 -150 266 -202 c 0,22,23
 242 -227 242 -227 237 -228 c 1,24,25
 233 -228 233 -228 221 -215 c 0,26,27
 212 -206 212 -206 196 -190 c 0,28,29
 186 -181 186 -181 181 -177 c 1,30,31
 170 -192 170 -192 154 -170 c 0,32,33
 152 -167 152 -167 150 -166 c 2,34,-1
 90 -92 l 1,35,36
 70 -73 70 -73 80 -63 c 0,37,38
 83 -60 83 -60 85 -59 c 2,39,-1
 85 -57 l 1,40,41
 76 -46 76 -46 90 -36 c 1,42,-1
 91 -34 l 1,43,44
 85 -26 85 -26 86 -21 c 1,45,46
 91 -13 91 -13 110 2 c 1,47,48
 127 18 127 18 154 49 c 0,49,50
 257 162 257 162 357 335 c 0,51,52
 465 521 465 521 508 677 c 0,53,54
 526 749 526 749 532 841 c 1,55,56
 544 979 544 979 527 1120 c 1,57,58
 516 1198 516 1198 494 1263 c 0,59,60
 490 1273 490 1273 482 1293 c 0,61,62
 469 1324 469 1324 464 1340 c 1,63,-1
 475 1345 l 1,64,-1
 470 1363 l 1,65,-1
 480 1368 l 1,66,-1
 475 1386 l 1,0,1
651 1430 m 1,67,-1
 613 1407 l 1,68,-1
 530 1355 l 1,69,70
 571 1221 571 1221 580 1166 c 0,71,72
 616 893 616 893 540 630 c 0,73,74
 490 460 490 460 377 266 c 0,75,76
 307 149 307 149 232 56 c 0,77,78
 220 41 220 41 192 12 c 0,79,80
 155 -27 155 -27 141 -46 c 1,81,-1
 205 -120 l 1,82,83
 368 62 368 62 429 151 c 0,84,85
 630 447 630 447 695 728 c 0,86,87
 733 896 733 896 723 1091 c 0,88,89
 717 1212 717 1212 685 1330 c 0,90,91
 680 1347 680 1347 668 1380 c 0,92,93
 656 1413 656 1413 651 1430 c 1,67,-1
EndSplineSet
EndChar

StartChar: plus
Encoding: 43 43 14
Width: 946
VWidth: 1639
GlyphClass: 2
Flags: W
LayerCount: 2
Fore
SplineSet
586 841 m 1,0,-1
 795 830 l 1,1,-1
 785 807 l 1,2,-1
 790 807 l 1,3,-1
 780 784 l 1,4,-1
 785 784 l 1,5,-1
 768 745 l 1,6,-1
 807 741 l 1,7,8
 735 565 735 565 722 517 c 0,9,10
 720 510 720 510 719 505 c 1,11,-1
 843 494 l 1,12,-1
 1015 469 l 1,13,-1
 1010 446 l 1,14,-1
 1005 423 l 1,15,-1
 990 387 l 1,16,-1
 1027 380 l 1,17,18
 1016 354 1016 354 997 302 c 0,19,20
 986 274 986 274 981 261 c 0,21,22
 964 221 964 221 962 218 c 0,23,24
 957 215 957 215 942 219 c 2,25,-1
 941 220 l 1,26,-1
 879 230 l 2,27,28
 767 246 767 246 639 246 c 1,29,30
 592 53 592 53 576 -93 c 1,31,-1
 403 -110 l 1,32,-1
 409 -64 l 1,33,-1
 338 -67 l 1,34,35
 365 102 365 102 398 244 c 1,36,-1
 137 226 l 1,37,-1
 146 271 l 1,38,-1
 72 269 l 1,39,-1
 119 485 l 1,40,-1
 292 499 l 1,41,-1
 468 508 l 1,42,43
 484 575 484 575 562 778 c 0,44,45
 576 814 576 814 586 841 c 1,0,-1
626 461 m 1,46,47
 647 553 647 553 701 700 c 0,48,49
 705 710 705 710 713 731 c 0,50,51
 721 752 721 752 724 761 c 0,52,53
 733 777 733 777 731 782 c 0,54,55
 731 787 731 787 714 786 c 0,56,57
 713 786 713 786 712 786 c 2,58,-1
 710 786 l 1,59,60
 699 788 699 788 676 788 c 0,61,62
 652 789 652 789 641 790 c 0,63,64
 622 794 622 794 616 789 c 1,65,66
 612 783 612 783 604 761 c 0,67,68
 600 750 600 750 592 730 c 0,69,70
 584 709 584 709 580 699 c 0,71,72
 516 535 516 535 500 462 c 1,73,-1
 324 453 l 1,74,-1
 151 440 l 1,75,-1
 126 318 l 1,76,-1
 463 335 l 1,77,-1
 406 75 l 1,78,-1
 395 10 l 1,79,-1
 394 -15 l 1,80,-1
 427 -13 l 1,81,-1
 516 -5 l 1,82,-1
 539 144 l 1,83,-1
 585 335 l 1,84,85
 709 335 709 335 796 326 c 1,86,-1
 912 312 l 1,87,-1
 955 425 l 1,88,89
 912 429 912 429 829 441 c 0,90,91
 695 461 695 461 626 461 c 1,46,47
EndSplineSet
EndChar

StartChar: hyphen
Encoding: 45 45 16
AltUni2: 002212.ffffffff.0 0000ad.ffffffff.0
Width: 1153
VWidth: 1639
GlyphClass: 2
Flags: W
LayerCount: 2
Fore
SplineSet
215 459 m 1,0,1
 219 459 219 459 330 475 c 0,2,3
 339 476 339 476 346 477 c 0,4,5
 515 495 515 495 627 497 c 0,6,7
 817 503 817 503 953 492 c 0,8,9
 973 490 973 490 1015 485 c 0,10,11
 1087 476 1087 476 1122 476 c 1,12,13
 1115 459 1115 459 1117 453 c 1,14,15
 1110 436 1110 436 1111 430 c 1,16,-1
 1096 390 l 1,17,-1
 1134 387 l 1,18,19
 1122 361 1122 361 1088 262 c 0,20,21
 1087 259 1087 259 1084 251 c 0,22,23
 1075 223 1075 223 1070 216 c 0,24,25
 1067 215 1067 215 1056 216 c 0,26,27
 1049 217 1049 217 1035 219 c 0,28,29
 1020 221 1020 221 1014 221 c 0,30,31
 909 231 909 231 851 235 c 0,32,33
 598 247 598 247 435 230 c 0,34,35
 280 214 280 214 239 203 c 1,36,-1
 248 253 l 1,37,-1
 216 246 l 1,38,39
 212 251 212 251 195 246 c 1,40,41
 191 251 191 251 174 246 c 1,42,-1
 215 459 l 1,0,1
1063 430 m 1,43,44
 1006 441 1006 441 853 448 c 0,45,46
 635 458 635 458 423 436 c 0,47,48
 398 433 398 433 349 426 c 0,49,50
 282 416 282 416 249 413 c 1,51,-1
 229 300 l 1,52,53
 513 338 513 338 770 326 c 1,54,-1
 933 317 l 2,55,56
 945 316 945 316 969 313 c 0,57,58
 1002 309 1002 309 1019 308 c 1,59,-1
 1063 430 l 1,43,44
EndSplineSet
EndChar

StartChar: period
Encoding: 46 46 17
Width: 661
VWidth: 1639
GlyphClass: 2
Flags: W
LayerCount: 2
Fore
SplineSet
283 348 m 1,0,1
 418 366 418 366 468 271 c 0,2,3
 474 260 474 260 478 249 c 0,4,5
 482 238 482 238 487 180 c 0,6,7
 489 164 489 164 491 154 c 0,8,9
 514 81 514 81 469 6 c 1,10,11
 429 -56 429 -56 366 -66 c 1,12,13
 306 -72 306 -72 260 -43 c 0,14,15
 255 -40 255 -40 247 -31 c 0,16,17
 238 -23 238 -23 235 -20 c 0,18,19
 230 -16 230 -16 216 -10 c 0,20,21
 200 -3 200 -3 194 2 c 0,22,23
 144 41 144 41 132 105 c 1,24,25
 119 197 119 197 173 275 c 1,26,27
 217 337 217 337 283 348 c 1,0,1
305 300 m 1,28,29
 277 293 277 293 260 284 c 0,30,31
 237 271 237 271 225 257 c 0,32,33
 194 224 194 224 186 198 c 0,34,35
 166 134 166 134 223 70 c 0,36,37
 231 61 231 61 239 54 c 0,38,39
 282 20 282 20 312 23 c 0,40,41
 335 26 335 26 358 39 c 1,42,43
 383 56 383 56 393 67 c 0,44,45
 422 98 422 98 431 125 c 0,46,47
 434 135 434 135 433 167 c 1,48,49
 425 237 425 237 371 276 c 0,50,51
 334 303 334 303 305 300 c 1,28,29
EndSplineSet
EndChar

StartChar: slash
Encoding: 47 47 18
Width: 638
VWidth: 1639
GlyphClass: 2
Flags: W
LayerCount: 2
Fore
SplineSet
684 1353 m 1,0,-1
 703 1343 l 1,1,-1
 706 1353 l 1,2,-1
 725 1343 l 1,3,-1
 727 1353 l 1,4,5
 742 1348 742 1348 831 1299 c 0,6,7
 840 1294 840 1294 847 1291 c 0,8,9
 887 1273 887 1273 890 1266 c 0,10,11
 891 1263 891 1263 886 1250 c 1,12,13
 880 1212 880 1212 872 1194 c 1,14,15
 897 1187 897 1187 901 1178 c 1,16,17
 902 1172 902 1172 894 1153 c 1,18,19
 882 1113 882 1113 874 1091 c 0,20,21
 811 912 811 912 760 797 c 0,22,23
 572 375 572 375 383 61 c 0,24,25
 370 40 370 40 275 -108 c 0,26,27
 269 -117 269 -117 257 -134 c 0,28,29
 249 -145 249 -145 246 -149 c 0,30,31
 238 -161 238 -161 233 -166 c 1,32,33
 229 -166 229 -166 219 -161 c 0,34,35
 214 -158 214 -158 203 -152 c 0,36,37
 192 -146 192 -146 188 -143 c 0,38,39
 173 -135 173 -135 142 -117 c 0,40,41
 88 -86 88 -86 61 -72 c 1,42,-1
 64 -66 l 1,43,-1
 -4 -30 l 1,44,-1
 8 -10 l 1,45,-1
 1 -7 l 1,46,-1
 13 13 l 1,47,-1
 7 16 l 1,48,49
 33 58 33 58 86 141 c 0,50,51
 153 246 153 246 185 298 c 0,52,53
 412 679 412 679 551 1002 c 1,54,55
 648 1222 648 1222 684 1353 c 1,0,-1
191 -62 m 1,56,57
 200 -47 200 -47 221 -20 c 0,58,59
 237 2 237 2 244 13 c 0,60,61
 283 72 283 72 351 185 c 0,62,63
 560 536 560 536 712 900 c 1,64,65
 779 1067 779 1067 806 1140 c 0,66,67
 821 1178 821 1178 827 1200 c 1,68,-1
 833 1223 l 1,69,70
 830 1226 830 1226 800 1241 c 0,71,72
 791 1246 791 1246 773 1257 c 0,73,74
 733 1281 733 1281 710 1287 c 1,75,76
 641 1091 641 1091 599 991 c 0,77,78
 484 721 484 721 313 418 c 0,79,80
 236 280 236 280 156 154 c 0,81,82
 145 137 145 137 122 102 c 0,83,84
 80 39 80 39 64 8 c 1,85,-1
 191 -62 l 1,56,57
EndSplineSet
EndChar

StartChar: colon
Encoding: 58 58 29
Width: 671
VWidth: 1639
GlyphClass: 2
Flags: W
LayerCount: 2
Fore
SplineSet
443 831 m 1,0,1
 555 844 555 844 596 794 c 0,2,3
 612 773 612 773 615 715 c 0,4,5
 616 703 616 703 616 695 c 0,6,7
 616 689 616 689 621 679 c 0,8,9
 624 671 624 671 625 667 c 0,10,11
 632 635 632 635 627 604 c 0,12,13
 614 516 614 516 530 456 c 0,14,15
 485 425 485 425 439 418 c 0,16,17
 382 411 382 411 340 438 c 0,18,19
 336 441 336 441 328 449 c 0,20,21
 317 460 317 460 311 464 c 0,22,23
 256 498 256 498 245 513 c 0,24,25
 235 528 235 528 230 544 c 1,26,27
 224 577 224 577 236 630 c 0,28,29
 249 685 249 685 258 702 c 0,30,31
 314 810 314 810 443 831 c 1,0,1
461 784 m 0,32,33
 382 773 382 773 323 707 c 0,34,35
 294 674 294 674 283 638 c 0,36,37
 265 581 265 581 319 534 c 0,38,39
 333 523 333 523 348 517 c 0,40,41
 374 506 374 506 386 507 c 0,42,43
 458 516 458 516 519 581 c 0,44,45
 549 614 549 614 561 648 c 0,46,47
 581 711 581 711 534 757 c 0,48,49
 501 788 501 788 461 784 c 0,32,33
330 341 m 0,50,51
 444 353 444 353 486 302 c 0,52,53
 501 282 501 282 503 225 c 0,54,55
 504 213 504 213 504 205 c 0,56,57
 504 199 504 199 509 189 c 0,58,59
 512 181 512 181 513 177 c 0,60,61
 520 145 520 145 515 112 c 0,62,63
 502 23 502 23 415 -36 c 0,64,65
 370 -66 370 -66 326 -72 c 0,66,67
 268 -79 268 -79 228 -52 c 0,68,69
 224 -49 224 -49 216 -41 c 0,70,71
 205 -30 205 -30 199 -26 c 0,72,73
 144 6 144 6 132 24 c 0,74,75
 123 39 123 39 118 57 c 0,76,77
 112 85 112 85 125 139 c 0,78,79
 138 194 138 194 146 212 c 0,80,81
 197 312 197 312 308 337 c 0,82,83
 320 340 320 340 330 341 c 0,50,51
348 294 m 0,84,85
 271 283 271 283 211 216 c 0,86,87
 182 183 182 183 171 148 c 0,88,89
 152 89 152 89 209 42 c 0,90,91
 222 32 222 32 234 26 c 0,92,93
 257 17 257 17 273 16 c 1,94,95
 345 25 345 25 406 89 c 0,96,97
 437 123 437 123 449 157 c 0,98,99
 469 220 469 220 422 267 c 0,100,101
 389 298 389 298 348 294 c 0,84,85
EndSplineSet
EndChar

StartChar: equal
Encoding: 61 61 32
Width: 1015
VWidth: 1639
GlyphClass: 2
Flags: W
LayerCount: 2
Fore
SplineSet
157 648 m 1,0,1
 164 648 164 648 281 665 c 0,2,3
 294 667 294 667 303 667 c 0,4,5
 446 683 446 683 570 686 c 0,6,7
 760 692 760 692 897 681 c 0,8,9
 918 679 918 679 958 674 c 0,10,11
 1029 666 1029 666 1064 664 c 1,12,-1
 1039 579 l 1,13,-1
 1075 576 l 1,14,-1
 1014 403 l 1,15,16
 998 403 998 403 941 412 c 1,17,18
 841 422 841 422 794 423 c 0,19,20
 430 441 430 441 180 392 c 1,21,-1
 190 441 l 1,22,23
 161 435 161 435 159 440 c 1,24,25
 139 436 139 436 138 440 c 1,26,-1
 115 435 l 1,27,-1
 141 572 l 1,28,-1
 157 648 l 1,0,1
1004 618 m 1,29,30
 947 629 947 629 795 636 c 0,31,32
 553 648 553 648 192 602 c 1,33,-1
 170 489 l 1,34,35
 454 527 454 527 712 515 c 1,36,-1
 713 515 l 1,37,-1
 715 515 l 1,38,-1
 716 515 l 1,39,-1
 718 515 l 1,40,-1
 719 515 l 1,41,-1
 721 514 l 1,42,-1
 722 514 l 1,43,-1
 724 514 l 1,44,-1
 725 514 l 1,45,-1
 727 514 l 1,46,-1
 728 514 l 1,47,-1
 730 514 l 1,48,-1
 731 514 l 1,49,-1
 733 514 l 1,50,-1
 734 514 l 1,51,-1
 736 514 l 1,52,-1
 737 513 l 1,53,-1
 739 513 l 1,54,-1
 740 513 l 1,55,-1
 742 513 l 1,56,-1
 743 513 l 1,57,-1
 745 513 l 1,58,-1
 746 513 l 1,59,-1
 748 513 l 1,60,-1
 749 513 l 1,61,-1
 751 513 l 1,62,-1
 752 513 l 1,63,-1
 754 512 l 1,64,-1
 755 512 l 1,65,-1
 757 512 l 1,66,-1
 758 512 l 1,67,-1
 760 512 l 1,68,-1
 761 512 l 1,69,-1
 763 512 l 1,70,-1
 764 512 l 1,71,-1
 766 512 l 1,72,-1
 767 512 l 1,73,-1
 769 512 l 1,74,-1
 770 511 l 1,75,-1
 772 511 l 1,76,-1
 773 511 l 1,77,-1
 775 511 l 1,78,-1
 776 511 l 1,79,-1
 778 511 l 1,80,-1
 779 511 l 1,81,-1
 781 511 l 1,82,-1
 782 511 l 1,83,-1
 784 511 l 1,84,-1
 785 511 l 1,85,-1
 787 510 l 1,86,-1
 788 510 l 1,87,-1
 790 510 l 1,88,-1
 791 510 l 1,89,-1
 794 510 l 1,90,-1
 795 510 l 1,91,-1
 797 510 l 1,92,-1
 798 510 l 1,93,-1
 800 510 l 1,94,-1
 801 510 l 1,95,-1
 803 509 l 1,96,-1
 804 509 l 1,97,-1
 806 509 l 1,98,-1
 807 509 l 1,99,-1
 809 509 l 1,100,-1
 810 509 l 1,101,-1
 812 509 l 1,102,-1
 813 509 l 1,103,-1
 815 509 l 1,104,-1
 817 509 l 1,105,-1
 818 509 l 1,106,-1
 820 509 l 1,107,-1
 821 508 l 1,108,-1
 823 508 l 1,109,-1
 824 508 l 1,110,-1
 826 508 l 1,111,-1
 827 508 l 1,112,-1
 829 508 l 1,113,-1
 830 508 l 1,114,-1
 832 508 l 1,115,-1
 833 508 l 1,116,-1
 835 508 l 1,117,-1
 836 508 l 1,118,-1
 838 507 l 1,119,-1
 839 507 l 1,120,-1
 841 507 l 1,121,-1
 842 507 l 1,122,-1
 844 507 l 1,123,-1
 845 507 l 1,124,-1
 847 507 l 1,125,-1
 848 507 l 1,126,-1
 850 507 l 1,127,-1
 851 507 l 1,128,-1
 853 507 l 1,129,-1
 854 506 l 1,130,-1
 856 506 l 1,131,-1
 857 506 l 1,132,-1
 859 506 l 1,133,-1
 860 506 l 1,134,-1
 862 506 l 1,135,-1
 863 506 l 1,136,-1
 865 506 l 1,137,-1
 866 506 l 1,138,-1
 868 506 l 1,139,-1
 869 506 l 1,140,-1
 871 505 l 1,141,-1
 872 505 l 1,142,-1
 874 505 l 1,143,-1
 876 505 l 2,144,145
 888 504 888 504 912 501 c 0,146,147
 944 497 944 497 961 497 c 1,148,-1
 1004 618 l 1,29,30
102 93 m 1,149,150
 121 177 121 177 130 243 c 0,151,152
 128 243 128 243 135 265 c 2,153,-1
 141 287 l 1,154,-1
 144 303 l 1,155,156
 147 305 147 305 161 308 c 0,157,158
 168 309 168 309 183 312 c 0,159,160
 199 314 199 314 205 315 c 0,161,162
 348 332 348 332 372 333 c 0,163,164
 605 351 605 351 818 341 c 0,165,166
 820 341 820 341 965 331 c 0,167,168
 1024 327 1024 327 1050 321 c 1,169,-1
 1045 298 l 1,170,-1
 1039 276 l 1,171,-1
 1026 238 l 1,172,-1
 1062 233 l 1,173,-1
 999 61 l 1,174,175
 983 66 983 66 928 69 c 1,176,177
 828 79 828 79 781 80 c 0,178,179
 557 91 557 91 382 79 c 0,180,181
 344 76 344 76 267 64 c 0,182,183
 200 54 200 54 167 51 c 1,184,-1
 176 98 l 1,185,-1
 102 93 l 1,149,150
991 277 m 1,186,187
 963 278 963 278 909 285 c 0,188,189
 865 290 865 290 843 292 c 0,190,191
 680 303 680 303 556 297 c 0,192,193
 448 292 448 292 314 279 c 0,194,195
 297 277 297 277 261 271 c 0,196,197
 205 262 205 262 179 261 c 1,198,-1
 157 148 l 1,199,200
 188 150 188 150 252 158 c 0,201,202
 303 165 303 165 328 167 c 0,203,204
 522 181 522 181 736 171 c 0,205,206
 905 163 905 163 947 154 c 1,207,-1
 991 277 l 1,186,187
EndSplineSet
EndChar

StartChar: bracketleft
Encoding: 91 91 62
Width: 611
VWidth: 1639
GlyphClass: 2
Flags: W
LayerCount: 2
Fore
SplineSet
516 1842 m 1,0,-1
 914 1842 l 1,1,-1
 894 1753 l 1,2,-1
 926 1753 l 1,3,-1
 909 1679 l 1,4,-1
 711 1679 l 1,5,-1
 317 -25 l 1,6,-1
 483 -25 l 1,7,-1
 463 -113 l 1,8,-1
 495 -113 l 1,9,-1
 478 -187 l 1,10,-1
 123 -187 l 1,11,-1
 132 -144 l 1,12,-1
 58 -144 l 1,13,-1
 516 1842 l 1,0,-1
861 1796 m 1,14,-1
 548 1796 l 1,15,-1
 111 -98 l 1,16,-1
 424 -98 l 1,17,-1
 430 -71 l 1,18,-1
 232 -71 l 1,19,-1
 656 1768 l 1,20,-1
 855 1768 l 1,21,-1
 861 1796 l 1,14,-1
EndSplineSet
EndChar

StartChar: bracketright
Encoding: 93 93 64
Width: 658
VWidth: 1639
GlyphClass: 2
Flags: W
LayerCount: 2
Fore
SplineSet
515 1838 m 1,0,-1
 869 1838 l 1,1,-1
 849 1750 l 1,2,-1
 881 1750 l 1,3,-1
 434 -187 l 1,4,-1
 123 -187 l 1,5,-1
 132 -144 l 1,6,-1
 58 -144 l 1,7,-1
 85 -25 l 1,8,-1
 239 -25 l 1,9,-1
 632 1678 l 1,10,-1
 553 1678 l 1,11,-1
 563 1720 l 1,12,-1
 488 1720 l 1,13,-1
 515 1838 l 1,0,-1
816 1793 m 1,14,-1
 548 1793 l 1,15,-1
 541 1766 l 1,16,-1
 696 1766 l 1,17,-1
 271 -71 l 1,18,-1
 117 -71 l 1,19,-1
 111 -98 l 1,20,-1
 379 -98 l 1,21,-1
 816 1793 l 1,14,-1
EndSplineSet
EndChar

StartChar: guillemotleft
Encoding: 171 171 175
Width: 1021
VWidth: 1639
GlyphClass: 2
Flags: W
LayerCount: 2
Fore
SplineSet
871 886 m 1,0,-1
 876 874 l 1,1,-1
 894 886 l 1,2,-1
 898 874 l 1,3,-1
 916 886 l 1,4,5
 923 865 923 865 967 769 c 1,6,7
 983 740 983 740 976 732 c 0,8,9
 974 729 974 729 969 727 c 1,10,11
 971 724 971 724 969 706 c 0,12,13
 969 703 969 703 969 702 c 0,14,15
 970 696 970 696 985 664 c 1,16,17
 990 647 990 647 988 643 c 0,18,19
 984 636 984 636 956 618 c 0,20,21
 953 616 953 616 952 615 c 0,22,23
 928 595 928 595 888 561 c 0,24,25
 780 464 780 464 755 341 c 0,26,27
 745 292 745 292 794 222 c 0,28,29
 795 220 795 220 799 215 c 0,30,31
 801 213 801 213 805 207 c 0,32,33
 823 183 823 183 809 172 c 1,34,-1
 809 171 l 1,35,36
 818 160 818 160 804 149 c 1,37,-1
 803 148 l 1,38,39
 805 146 805 146 808 131 c 0,40,41
 809 128 l 0,42,43
 811 124 811 124 819 115 c 0,44,45
 830 101 830 101 831 95 c 1,46,47
 827 86 827 86 792 54 c 0,48,49
 696 -39 696 -39 680 -56 c 1,50,-1
 639 -8 l 1,51,-1
 636 -13 l 1,52,-1
 627 -2 l 1,53,-1
 625 -2 l 1,54,-1
 615 -13 l 1,55,56
 585 13 585 13 555 69 c 0,57,58
 460 236 460 236 522 445 c 0,59,60
 524 450 524 450 525 454 c 0,61,62
 542 503 542 503 581 577 c 1,63,64
 429 445 429 445 425 313 c 0,65,66
 425 308 425 308 426 302.5 c 128,-1,67
 427 297 427 297 428 294.5 c 128,-1,68
 429 292 429 292 433 285 c 2,69,-1
 437 277 l 2,70,71
 457 238 457 238 475 212 c 0,72,73
 477 210 477 210 481 204 c 0,74,75
 496 183 496 183 483 172 c 1,76,-1
 482 171 l 1,77,78
 490 160 490 160 477 149 c 1,79,-1
 477 148 l 1,80,81
 480 146 480 146 482 133 c 0,82,83
 483 130 l 0,84,85
 485 124 485 124 497 108 c 0,86,87
 498 107 498 107 499 105 c 0,88,89
 504 98 504 98 504 95 c 1,90,91
 500 86 500 86 466 54 c 0,92,93
 454 43 454 43 430 21 c 0,94,95
 376 -29 376 -29 354 -56 c 1,96,-1
 313 -8 l 1,97,-1
 310 -13 l 1,98,-1
 301 -2 l 1,99,-1
 299 -2 l 1,100,-1
 289 -13 l 1,101,102
 255 17 255 17 218 85 c 0,103,104
 136 245 136 245 194 439 c 0,105,106
 203 469 203 469 215 499 c 0,107,108
 248 577 248 577 309 658 c 0,109,110
 401 779 401 779 483 840 c 0,111,112
 485 842 485 842 492 847 c 0,113,114
 543 888 543 888 550 874 c 1,115,-1
 552 874 l 1,116,117
 567 884 567 884 571 874 c 1,118,-1
 573 874 l 1,119,120
 589 889 589 889 598 866 c 0,121,122
 601 860 601 860 601 858 c 0,123,124
 618 817 618 817 641 766 c 0,125,126
 652 741 652 741 652 739 c 0,127,128
 649 731 649 731 643 727 c 1,129,-1
 643 702 l 1,130,-1
 651 677 l 1,131,-1
 653 677 l 1,132,133
 663 693 663 693 707 741 c 0,134,135
 785 825 785 825 871 886 c 1,0,-1
546 817 m 1,136,137
 504 790 504 790 437 722 c 0,138,139
 269 547 269 547 230 408 c 0,140,141
 223 384 223 384 225 331 c 0,142,143
 225 227 225 227 274 128 c 0,144,145
 299 77 299 77 323 56 c 1,146,-1
 426 157 l 1,147,-1
 426 159 l 1,148,149
 374 234 374 234 363 295 c 0,150,151
 354 343 354 343 372 418 c 0,152,153
 395 513 395 513 438 576 c 0,154,155
 472 622 472 622 566 698 c 0,156,157
 580 709 580 709 588 717 c 1,158,-1
 589 718 l 1,159,-1
 546 817 l 1,136,137
872 817 m 1,160,161
 833 792 833 792 769 728 c 0,162,163
 594 553 594 553 556 407 c 0,164,165
 549 375 549 375 552 320 c 0,166,167
 556 217 556 217 600 128 c 0,168,169
 629 74 629 74 649 56 c 1,170,171
 665 73 665 73 724 130 c 0,172,173
 726 132 726 132 732 137 c 0,174,175
 748 152 748 152 751 157 c 0,176,177
 752 162 752 162 748 169.5 c 128,-1,178
 744 177 744 177 736 187 c 2,179,-1
 728 197 l 1,180,181
 698 249 698 249 690 292 c 0,182,183
 681 343 681 343 697 415 c 0,184,185
 714 486 714 486 731 522 c 0,186,187
 785 627 785 627 900 706 c 0,188,189
 908 711 908 711 914 715 c 1,190,-1
 902 748 l 1,191,-1
 872 817 l 1,160,161
583 579 m 1,192,-1
 581 577 l 1,193,-1
 583 579 l 1,192,-1
EndSplineSet
EndChar

StartChar: guillemotright
Encoding: 187 187 176
Width: 1022
VWidth: 1639
GlyphClass: 2
Flags: W
LayerCount: 2
Fore
SplineSet
445 884 m 1,0,-1
 456 872 l 1,1,-1
 466 884 l 1,2,-1
 467 884 l 1,3,-1
 477 872 l 1,4,-1
 487 884 l 1,5,-1
 489 884 l 1,6,7
 566 787 566 787 587 708 c 0,8,9
 589 702 589 702 604 605 c 0,10,11
 605 599 605 599 605 595 c 0,12,13
 624 465 624 465 602 384 c 0,14,15
 589 337 589 337 542 249 c 1,16,17
 668 359 668 359 687 454 c 0,18,19
 698 513 698 513 672 579 c 0,20,21
 657 617 657 617 630 656 c 0,22,23
 629 658 629 658 624 663 c 0,24,25
 610 680 610 680 610 687 c 0,26,27
 611 689 611 689 612 693 c 0,28,29
 614 697 614 697 615 699 c 0,30,31
 615 700 615 700 615 710 c 0,32,33
 616 712 616 712 618 716 c 0,34,35
 620 720 620 720 621 722 c 0,36,37
 622 724 622 724 621 729 c 0,38,39
 621 734 621 734 621 736 c 0,40,41
 625 744 625 744 659 775 c 0,42,43
 664 780 664 780 667 782 c 0,44,45
 679 794 679 794 704 819 c 0,46,47
 749 863 749 863 771 884 c 1,48,-1
 772 884 l 1,49,-1
 782 872 l 1,50,-1
 792 884 l 1,51,-1
 794 884 l 1,52,-1
 803 872 l 1,53,-1
 814 884 l 1,54,-1
 815 884 l 1,55,56
 891 793 891 793 917 699 c 0,57,58
 922 680 922 680 926 639 c 0,59,60
 929 611 929 611 932 597 c 0,61,62
 954 465 954 465 927 377 c 1,63,64
 869 201 869 201 687 30 c 0,65,66
 636 -16 636 -16 609 -36 c 1,67,68
 580 -54 l 1,69,70
 577 -54 577 -54 573 -45 c 0,71,72
 572 -44 572 -44 572 -43 c 2,73,-1
 571 -41 l 1,74,75
 558 -13 558 -13 553 -8 c 1,76,77
 548 -8 548 -8 537 -11 c 0,78,79
 535 -11 535 -11 532 -9 c 0,80,81
 528 -7 528 -7 527 -7 c 0,82,83
 513 -10 l 0,84,85
 505 -3 505 -3 496 28 c 1,86,87
 490 40 490 40 479 66 c 0,88,89
 461 108 461 108 451 126 c 1,90,91
 408 62 408 62 307 -16 c 0,92,93
 270 -44 l 0,94,95
 259 -53 259 -53 254 -54 c 1,96,97
 249 -52 249 -52 246 -43 c 0,98,99
 244 -38 244 -38 238 -28 c 0,100,101
 228 -11 228 -11 226 -3 c 1,102,103
 208 -11 208 -11 205 -3 c 1,104,105
 195 -10 195 -10 189 -11 c 1,106,107
 184 -9 184 -9 181 0 c 2,108,-1
 166 34 l 2,109,110
 161 44 161 44 135 105 c 0,111,112
 123 130 123 130 122 134 c 0,113,114
 123 136 123 136 126 140 c 0,115,116
 129 144 129 144 129 146 c 0,117,118
 130 148 130 148 128 153 c 0,119,120
 127 158 127 158 128 159 c 0,121,122
 128 161 128 161 131 164 c 0,123,124
 134 168 134 168 135 169 c 0,125,126
 136 171 136 171 134 176 c 0,127,128
 133 181 133 181 133 184 c 0,129,130
 136 190 136 190 170 213 c 0,131,132
 175 216 175 216 176 218 c 0,133,134
 239 268 239 268 274 305 c 1,135,136
 309 346 309 346 327 374 c 0,137,138
 348 411 348 411 358 443 c 0,139,140
 384 535 384 535 304 652 c 0,141,142
 298 661 298 661 280 687 c 1,143,-1
 281 689 l 1,144,145
 292 701 292 701 285 710 c 1,146,-1
 286 712 l 1,147,148
 297 724 297 724 291 733 c 1,149,-1
 291 735 l 1,150,-1
 445 884 l 1,0,-1
455 815 m 1,151,152
 437 804 437 804 382 746 c 0,153,154
 379 742 379 742 376 740 c 0,155,156
 374 738 374 738 369 733 c 0,157,158
 353 718 353 718 351 712 c 1,159,160
 352 704 352 704 371 679 c 1,161,162
 390 648 390 648 401 617 c 0,163,164
 429 540 429 540 395 413 c 1,165,166
 367 314 367 314 281 233 c 0,167,168
 248 203 248 203 216 177 c 0,169,170
 193 160 193 160 189 154 c 1,171,172
 188 148 188 148 198 126 c 0,173,174
 221 79 221 79 229 56 c 1,175,176
 243 62 243 62 277 92 c 0,177,178
 326 135 326 135 380 194 c 1,179,180
 508 341 508 341 542 454 c 1,181,182
 553 497 553 497 551 558 c 0,183,184
 546 685 546 685 455 815 c 1,151,152
781 815 m 1,185,186
 768 806 768 806 711 748 c 0,187,188
 706 743 706 743 703 740 c 0,189,190
 701 738 701 738 695 733 c 0,191,192
 678 718 678 718 678 712 c 0,193,194
 679 704 679 704 699 677 c 1,195,196
 721 642 721 642 732 608 c 0,197,198
 767 501 767 501 703 365 c 0,199,200
 686 329 686 329 664 297 c 0,201,202
 625 244 625 244 572 202 c 0,203,204
 565 196 565 196 552 185 c 0,205,206
 538 174 538 174 531 169 c 2,207,-1
 516 156 l 1,208,209
 515 153 515 153 515.5 148 c 128,-1,210
 516 143 516 143 519 137 c 2,211,-1
 522 131 l 1,212,-1
 547 77 l 2,213,214
 555 59 555 59 557 57 c 1,215,216
 563 58 563 58 571 66 c 0,217,218
 584 76 584 76 605 93 c 0,219,220
 681 159 681 159 735 228 c 0,221,222
 850 371 850 371 873 466 c 0,223,224
 881 500 881 500 877 569 c 2,225,-1
 877 571 l 1,226,227
 866 697 866 697 781 815 c 1,185,186
EndSplineSet
EndChar

StartChar: guilsinglleft
Encoding: 8249 8249 195
Width: 520
GlyphClass: 2
Flags: W
LayerCount: 2
Fore
SplineSet
340 70 m 1,0,1
 347 48 347 48 344 35 c 0,2,3
 342 26 342 26 331 26 c 0,4,5
 323 26 323 26 309 33 c 1,6,7
 269 73 269 73 241.5 128 c 128,-1,8
 214 183 214 183 201 255 c 0,9,10
 189 321 189 321 192.5 385 c 128,-1,11
 196 449 196 449 209 513 c 1,12,13
 242 656 242 656 331 783 c 1,14,15
 421 904 421 904 523 958 c 1,16,17
 551 969 551 969 555 969 c 0,18,19
 562 969 562 969 561 963 c 0,20,21
 559 953 559 953 528 912 c 1,22,23
 379 746 379 746 325 513 c 0,24,25
 264 249 264 249 340 70 c 1,0,1
EndSplineSet
EndChar

StartChar: guilsinglright
Encoding: 8250 8250 196
Width: 523
GlyphClass: 2
Flags: W
LayerCount: 2
Fore
SplineSet
121 70 m 1,0,1
 282 249 282 249 343 513 c 0,2,3
 398 751 398 751 322 913 c 1,4,5
 311 954 311 954 313 963 c 0,6,7
 314 969 314 969 322 969 c 0,8,9
 324 969 324 969 331 966.5 c 128,-1,10
 338 964 338 964 347 958 c 0,11,12
 388 931 388 931 415.5 887 c 128,-1,13
 443 843 443 843 459 783 c 0,14,15
 477 718 477 718 476 650.5 c 128,-1,16
 475 583 475 583 460 513 c 0,17,18
 445 450 445 450 415.5 385 c 128,-1,19
 386 320 386 320 344 255 c 0,20,21
 301 188 301 188 246.5 130 c 128,-1,22
 192 72 192 72 134 33 c 1,23,24
 119 26 119 26 109 26 c 0,25,26
 98 26 98 26 100 35 c 0,27,28
 103 47 103 47 121 70 c 1,0,1
EndSplineSet
EndChar

StartChar: afii57451
Encoding: 1611 1611 311
AltUni2: 00fe70.ffffffff.0
Width: -45
VWidth: 1639
GlyphClass: 2
Flags: HW
AnchorPoint: "GposMark2BaseAnchorHamzaErabAbove_01_01" 506 1455 mark 0
AnchorPoint: "GposMark2BaseAnchorHamzaErabBelow_01_01" 506 1776 mark 0
AnchorPoint: "GposMark2BaseAnchorClassErabAbove_01_02" 506 1455 mark 0
AnchorPoint: "GposMark2MarkAnchorHamzaErabAbove_01_01" 506 1455 mark 0
AnchorPoint: "GposMark2MarkAnchorHamzaErabBelow_01_01" 506 1776 mark 0
AnchorPoint: "GposMark2MarkAnchorShaddaErabAbove_01_02" 506 1455 mark 0
AnchorPoint: "GposMark2MarkAnchorShaddaErabBelow_01_02" 506 1776 mark 0
LayerCount: 2
Fore
SplineSet
351 1776 m 1,0,-1
 714 1776 l 1,1,-1
 693 1688 l 1,2,-1
 725 1688 l 1,3,-1
 707 1606 l 1,4,-1
 675 1606 l 1,5,-1
 659 1538 l 1,6,-1
 691 1538 l 1,7,-1
 672 1455 l 1,8,-1
 351 1455 l 1,9,-1
 361 1497 l 1,10,-1
 287 1497 l 1,11,-1
 316 1627 l 1,12,-1
 391 1627 l 1,13,-1
 396 1648 l 1,14,-1
 321 1648 l 1,15,-1
 351 1776 l 1,0,-1
661 1730 m 1,16,-1
 383 1730 l 1,17,-1
 375 1694 l 1,18,-1
 652 1694 l 1,19,-1
 661 1730 l 1,16,-1
626 1581 m 1,20,-1
 349 1581 l 1,21,-1
 340 1543 l 1,22,-1
 617 1543 l 1,23,-1
 626 1581 l 1,20,-1
EndSplineSet
EndChar

StartChar: afii57452
Encoding: 1612 1612 312
AltUni2: 00fe72.ffffffff.0
Width: -39
VWidth: 1639
GlyphClass: 2
Flags: HW
AnchorPoint: "GposMark2BaseAnchorHamzaErabAbove_01_01" 481.5 1451 mark 0
AnchorPoint: "GposMark2BaseAnchorHamzaErabBelow_01_01" 481.5 1776 mark 0
AnchorPoint: "GposMark2BaseAnchorClassErabAbove_01_02" 481.5 1451 mark 0
AnchorPoint: "GposMark2MarkAnchorHamzaErabAbove_01_01" 481.5 1451 mark 0
AnchorPoint: "GposMark2MarkAnchorHamzaErabBelow_01_01" 481.5 1776 mark 0
AnchorPoint: "GposMark2MarkAnchorShaddaErabAbove_01_02" 481.5 1451 mark 0
AnchorPoint: "GposMark2MarkAnchorShaddaErabBelow_01_02" 481.5 1776 mark 0
LayerCount: 2
Fore
SplineSet
406 1686 m 1,0,1
 423 1746 423 1746 432 1757 c 0,2,3
 438 1764 438 1764 443 1768 c 0,4,5
 457 1776 457 1776 501 1774 c 2,6,-1
 640 1774 l 2,7,8
 686 1773 686 1773 693 1763 c 1,9,10
 699 1744 699 1744 683 1684 c 1,11,12
 706 1682 706 1682 708 1663 c 0,13,14
 708 1655 708 1655 698 1617 c 0,15,16
 689 1584 689 1584 674 1522 c 0,17,18
 661 1473 661 1473 649 1463 c 1,19,20
 620 1451 620 1451 554 1455 c 1,21,-1
 320 1455 l 1,22,-1
 333 1497 l 1,23,-1
 255 1497 l 1,24,25
 274 1576 274 1576 289 1615 c 1,26,-1
 306 1615 l 1,27,28
 288 1671 288 1671 286 1697 c 1,29,-1
 294 1699 l 1,30,-1
 292 1720 l 1,31,-1
 300 1722 l 1,32,-1
 297 1743 l 1,33,-1
 346 1756 l 1,34,35
 351 1752 351 1752 367 1756 c 1,36,37
 372 1752 372 1752 388 1756 c 1,38,-1
 404 1686 l 1,39,-1
 406 1686 l 1,0,1
312 1543 m 1,40,-1
 515 1543 l 2,41,42
 520 1543 520 1543 532 1542 c 0,43,44
 579 1540 579 1540 596 1553 c 1,45,46
 611 1567 611 1567 624 1627 c 0,47,48
 626 1637 626 1637 632 1657 c 0,49,50
 638 1678 638 1678 639 1688 c 0,51,52
 643 1710 643 1710 641 1715 c 0,53,54
 634 1728 634 1728 608 1729 c 2,55,-1
 513 1729 l 2,56,57
 482 1728 482 1728 469 1717 c 1,58,59
 459 1706 459 1706 448 1671 c 0,60,61
 444 1660 444 1660 438 1637 c 0,62,63
 424 1591 424 1591 415 1569 c 1,64,-1
 411 1569 l 1,65,-1
 405 1599 l 1,66,-1
 404 1599 l 1,67,-1
 394 1569 l 1,68,-1
 389 1569 l 1,69,-1
 384 1599 l 1,70,-1
 383 1599 l 1,71,-1
 373 1569 l 1,72,-1
 368 1569 l 1,73,74
 365 1590 365 1590 354 1592 c 1,75,-1
 359 1569 l 1,76,-1
 321 1569 l 1,77,-1
 312 1543 l 1,40,-1
459 1620 m 2,78,79
 461 1626 461 1626 465 1639 c 0,80,81
 473 1666 473 1666 481 1676 c 0,82,83
 491 1687 491 1687 518 1691 c 0,84,85
 537 1695 537 1695 612 1694 c 1,86,-1
 583 1574 l 1,87,-1
 449 1574 l 1,88,-1
 454 1597 l 1,89,-1
 459 1620 l 2,78,79
EndSplineSet
EndChar

StartChar: afii57453
Encoding: 1613 1613 313
AltUni2: 00fe74.ffffffff.0
Width: -47
VWidth: 1639
GlyphClass: 2
Flags: HW
AnchorPoint: "GposMark2BaseAnchorClassErabBelow_01_02" -134.5 -118 mark 0
LayerCount: 2
Fore
SplineSet
-289 -118 m 1,0,-1
 74 -118 l 1,1,-1
 53 -207 l 1,2,-1
 85 -207 l 1,3,-1
 66 -289 l 1,4,-1
 34 -289 l 1,5,-1
 19 -356 l 1,6,-1
 51 -356 l 1,7,-1
 31 -440 l 1,8,-1
 -289 -440 l 1,9,-1
 -279 -397 l 1,10,-1
 -354 -397 l 1,11,-1
 -324 -267 l 1,12,-1
 -249 -267 l 1,13,-1
 -244 -246 l 1,14,-1
 -319 -246 l 1,15,-1
 -289 -118 l 1,0,-1
20 -164 m 1,16,-1
 -257 -164 l 1,17,-1
 -266 -200 l 1,18,-1
 12 -200 l 1,19,-1
 20 -164 l 1,16,-1
-14 -313 m 1,20,-1
 -292 -313 l 1,21,-1
 -300 -351 l 1,22,-1
 -23 -351 l 1,23,-1
 -14 -313 l 1,20,-1
EndSplineSet
EndChar

StartChar: afii57454
Encoding: 1614 1614 314
AltUni2: 00fe76.ffffffff.0
Width: -35
VWidth: 1639
GlyphClass: 2
Flags: HW
AnchorPoint: "GposMark2BaseAnchorHamzaErabAbove_01_01" 463.5 1455 mark 0
AnchorPoint: "GposMark2BaseAnchorHamzaErabBelow_01_01" 463.5 1627 mark 0
AnchorPoint: "GposMark2BaseAnchorClassErabAbove_01_02" 463.5 1455 mark 0
AnchorPoint: "GposMark2MarkAnchorHamzaErabAbove_01_01" 463.5 1455 mark 0
AnchorPoint: "GposMark2MarkAnchorHamzaErabBelow_01_01" 463.5 1627 mark 0
AnchorPoint: "GposMark2MarkAnchorShaddaErabAbove_01_02" 463.5 1455 mark 0
AnchorPoint: "GposMark2MarkAnchorShaddaErabBelow_01_02" 463.5 1627 mark 0
LayerCount: 2
Fore
SplineSet
291 1627 m 1,0,-1
 654 1627 l 1,1,-1
 634 1538 l 1,2,-1
 666 1538 l 1,3,-1
 646 1455 l 1,4,-1
 326 1455 l 1,5,-1
 336 1497 l 1,6,-1
 261 1497 l 1,7,-1
 291 1627 l 1,0,-1
601 1581 m 1,8,-1
 323 1581 l 1,9,-1
 314 1543 l 1,10,-1
 592 1543 l 1,11,-1
 601 1581 l 1,8,-1
EndSplineSet
EndChar

StartChar: afii57455
Encoding: 1615 1615 315
AltUni2: 00fe78.ffffffff.0
Width: -48
VWidth: 1639
GlyphClass: 2
Flags: HW
AnchorPoint: "GposMark2BaseAnchorHamzaErabAbove_01_01" 435.5 1451 mark 0
AnchorPoint: "GposMark2BaseAnchorHamzaErabBelow_01_01" 435.5 1776 mark 0
AnchorPoint: "GposMark2BaseAnchorClassErabAbove_01_02" 435.5 1451 mark 0
AnchorPoint: "GposMark2MarkAnchorHamzaErabAbove_01_01" 435.5 1451 mark 0
AnchorPoint: "GposMark2MarkAnchorHamzaErabBelow_01_01" 435.5 1776 mark 0
AnchorPoint: "GposMark2MarkAnchorShaddaErabAbove_01_02" 435.5 1451 mark 0
AnchorPoint: "GposMark2MarkAnchorShaddaErabBelow_01_02" 435.5 1776 mark 0
LayerCount: 2
Fore
SplineSet
243 1615 m 1,0,-1
 311 1615 l 2,1,2
 333 1616 333 1616 336 1619 c 0,3,4
 338 1621 338 1621 340.5 1624 c 128,-1,5
 343 1627 343 1627 344 1632 c 128,-1,6
 345 1637 345 1637 345.5 1639.5 c 128,-1,7
 346 1642 346 1642 348 1647 c 2,8,-1
 349 1653 l 2,9,10
 352 1664 352 1664 359 1686 c 0,11,12
 367 1709 367 1709 370 1719 c 0,13,14
 383 1756 383 1756 393 1765 c 1,15,16
 409 1776 409 1776 453 1774 c 2,17,-1
 592 1774 l 2,18,19
 638 1773 638 1773 647 1763 c 1,20,21
 654 1745 654 1745 637 1684 c 1,22,23
 660 1682 660 1682 662 1663 c 0,24,25
 662 1655 662 1655 652 1617 c 0,26,27
 643 1584 643 1584 628 1522 c 0,28,29
 615 1473 615 1473 602 1463 c 1,30,31
 573 1451 573 1451 507 1455 c 1,32,-1
 274 1455 l 1,33,-1
 287 1497 l 1,34,-1
 209 1497 l 1,35,36
 228 1576 228 1576 243 1615 c 1,0,-1
266 1543 m 1,37,-1
 462 1543 l 2,38,39
 468 1543 468 1543 481 1542 c 0,40,41
 528 1540 528 1540 546 1550 c 1,42,43
 563 1561 563 1561 574 1610 c 0,44,45
 577 1622 577 1622 583 1647 c 0,46,47
 589 1671 589 1671 592 1683 c 0,48,49
 597 1709 597 1709 596 1714 c 0,50,51
 589 1726 589 1726 568 1729 c 0,52,53
 564 1729 564 1729 468 1729 c 0,54,55
 436 1728 436 1728 425 1719 c 1,56,57
 413 1707 413 1707 402 1673 c 0,58,59
 399 1662 399 1662 392 1640 c 0,60,61
 384 1617 384 1617 381 1607 c 0,62,63
 373 1578 373 1578 368 1573 c 0,64,65
 366 1570 366 1570 361.5 1569 c 128,-1,66
 357 1568 357 1568 350 1569 c 2,67,-1
 343 1569 l 1,68,-1
 275 1569 l 1,69,-1
 266 1543 l 1,37,-1
413 1620 m 2,70,71
 415 1626 415 1626 419 1639 c 0,72,73
 427 1666 427 1666 435 1676 c 0,74,75
 445 1687 445 1687 472 1691 c 0,76,77
 491 1695 491 1695 566 1694 c 1,78,-1
 537 1574 l 1,79,-1
 402 1574 l 1,80,-1
 408 1597 l 1,81,-1
 413 1620 l 2,70,71
EndSplineSet
EndChar

StartChar: afii57456
Encoding: 1616 1616 316
AltUni2: 00fe7a.ffffffff.0
Width: -36
VWidth: 1639
GlyphClass: 2
Flags: HW
AnchorPoint: "GposMark2BaseAnchorClassErabBelow_01_02" -110 -116 mark 0
LayerCount: 2
Fore
SplineSet
-284 -116 m 1,0,-1
 81 -116 l 1,1,-1
 61 -205 l 1,2,-1
 93 -205 l 1,3,-1
 74 -287 l 1,4,-1
 -248 -287 l 1,5,-1
 -238 -244 l 1,6,-1
 -313 -244 l 1,7,-1
 -284 -116 l 1,0,-1
28 -162 m 1,8,-1
 -251 -162 l 1,9,-1
 -260 -198 l 1,10,-1
 19 -198 l 1,11,-1
 28 -162 l 1,8,-1
EndSplineSet
EndChar

StartChar: afii57457
Encoding: 1617 1617 317
AltUni2: 00fe7c.ffffffff.0
Width: 88
VWidth: 1639
GlyphClass: 2
Flags: HW
AnchorPoint: "GposMark2BaseAnchorHamzaErabAbove_01_01" 547 1451 mark 0
AnchorPoint: "GposMark2BaseAnchorHamzaErabBelow_01_01" 547 1793 mark 0
AnchorPoint: "GposMark2BaseAnchorClassErabAbove_01_02" 547 1451 mark 0
AnchorPoint: "GposMark2MarkAnchorHamzaErabAbove_01_01" 547 1451 mark 0
AnchorPoint: "GposMark2MarkAnchorHamzaErabBelow_01_01" 547 1793 mark 0
AnchorPoint: "GposMark2MarkAnchorShaddaErabAbove_01_02" 547 1943 basemark 0
AnchorPoint: "GposMark2MarkAnchorShaddaErabBelow_01_02" 547 1301 basemark 0
LayerCount: 2
Fore
SplineSet
400 1793 m 1,0,-1
 416 1784 l 1,1,-1
 421 1793 l 1,2,-1
 437 1784 l 1,3,-1
 442 1793 l 1,4,-1
 499 1766 l 1,5,6
 490 1748 490 1748 493 1743 c 1,7,8
 484 1725 484 1725 488 1720 c 1,9,-1
 474 1694 l 1,10,-1
 502 1681 l 1,11,-1
 520 1766 l 1,12,-1
 541 1766 l 1,13,-1
 563 1766 l 1,14,-1
 630 1758 l 1,15,-1
 611 1673 l 1,16,-1
 641 1670 l 1,17,-1
 630 1614 l 1,18,19
 659 1639 659 1639 649 1697 c 0,20,21
 647 1711 647 1711 646 1715 c 1,22,-1
 655 1717 l 1,23,-1
 651 1738 l 1,24,-1
 660 1740 l 1,25,-1
 656 1761 l 1,26,-1
 718 1776 l 1,27,-1
 718 1771 l 1,28,-1
 739 1776 l 1,29,-1
 739 1771 l 1,30,-1
 760 1776 l 1,31,32
 768 1747 768 1747 767 1686 c 1,33,-1
 772 1688 l 1,34,35
 790 1614 790 1614 774 1560 c 0,36,37
 754 1493 754 1493 700 1465 c 0,38,39
 686 1459 686 1459 674 1456 c 0,40,41
 632 1451 632 1451 600 1466 c 0,42,43
 597 1468 597 1468 591 1474 c 0,44,45
 576 1487 576 1487 570 1487 c 0,46,47
 568 1487 568 1487 545 1474 c 0,48,49
 542 1472 542 1472 540 1471 c 0,50,51
 510 1456 510 1456 479 1458 c 1,52,53
 457 1461 457 1461 421 1492 c 0,54,55
 416 1496 416 1496 413 1499 c 0,56,57
 409 1502 409 1502 399 1504 c 0,58,59
 392 1506 392 1506 389 1507 c 0,60,61
 367 1517 367 1517 352 1538 c 0,62,63
 304 1607 304 1607 358 1725 c 0,64,65
 376 1762 376 1762 400 1793 c 1,0,-1
422 1732 m 1,66,67
 372 1673 372 1673 386 1620 c 0,68,69
 391 1603 391 1603 402 1592 c 1,70,71
 401 1630 401 1630 419 1684 c 0,72,73
 421 1690 421 1690 425 1700 c 0,74,75
 432 1724 432 1724 422 1732 c 1,66,67
708 1720 m 1,76,77
 706 1715 706 1715 704 1686 c 1,78,79
 690 1568 690 1568 641 1561 c 1,80,81
 620 1561 620 1561 610 1563 c 0,82,83
 581 1564 581 1564 575 1566 c 1,84,-1
 574 1565 l 1,85,86
 601 1546 601 1546 623 1547 c 0,87,88
 663 1551 663 1551 698 1601 c 0,89,90
 707 1614 707 1614 712 1625 c 0,91,92
 717 1640 717 1640 712 1697 c 0,93,94
 708 1719 708 1719 708 1720 c 1,76,77
576 1712 m 1,95,-1
 553 1715 l 1,96,97
 550 1700 550 1700 543 1670 c 0,98,99
 537 1639 537 1639 533 1625 c 0,100,101
 523 1587 523 1587 500 1573 c 0,102,103
 492 1570 492 1570 457 1566 c 1,104,105
 432 1566 432 1566 422 1568 c 1,106,-1
 422 1566 l 1,107,108
 453 1541 453 1541 488 1560 c 0,109,110
 491 1562 491 1562 498 1567 c 0,111,112
 510 1575 510 1575 514 1576 c 0,113,114
 517 1577 517 1577 521 1575 c 0,115,116
 525 1573 525 1573 526 1573 c 0,117,118
 528 1573 528 1573 531 1574 c 0,119,120
 535 1575 535 1575 537 1576 c 0,121,122
 541 1577 541 1577 546 1576 c 0,123,124
 555 1576 555 1576 561 1579 c 1,125,126
 554 1622 554 1622 576 1712 c 1,95,-1
573 1568 m 1,127,-1
 572 1566 l 1,128,-1
 573 1568 l 1,127,-1
EndSplineSet
EndChar

StartChar: afii57458
Encoding: 1618 1618 318
AltUni2: 00fe7e.ffffffff.0
Width: 42
VWidth: 1639
GlyphClass: 2
Flags: HW
AnchorPoint: "GposMark2BaseAnchorHamzaErabAbove_01_01" 524 1451 mark 0
AnchorPoint: "GposMark2BaseAnchorHamzaErabBelow_01_01" 524 1886 mark 0
AnchorPoint: "GposMark2BaseAnchorClassErabAbove_01_02" 524 1451 mark 0
AnchorPoint: "GposMark2MarkAnchorHamzaErabAbove_01_01" 524 1451 mark 0
AnchorPoint: "GposMark2MarkAnchorHamzaErabBelow_01_01" 524 1886 mark 0
AnchorPoint: "GposMark2MarkAnchorShaddaErabAbove_01_02" 524 1451 mark 0
AnchorPoint: "GposMark2MarkAnchorShaddaErabBelow_01_02" 524 1886 mark 0
LayerCount: 2
Fore
SplineSet
519 1870 m 0,0,1
 646 1886 646 1886 690 1809 c 0,2,3
 697 1795 697 1795 700 1739 c 0,4,5
 701 1729 701 1729 702 1722 c 0,6,7
 703 1712 703 1712 707 1694 c 0,8,9
 714 1659 714 1659 713 1638 c 0,10,11
 702 1549 702 1549 623 1491 c 0,12,13
 583 1463 583 1463 541 1456 c 1,14,15
 489 1451 489 1451 454 1473 c 0,16,17
 450 1476 450 1476 441 1484 c 0,18,19
 430 1495 430 1495 425 1499 c 0,20,21
 420 1502 420 1502 408 1507 c 0,22,23
 397 1511 397 1511 391 1514 c 0,24,25
 348 1543 348 1543 338 1594 c 1,26,27
 334 1627 334 1627 346 1681 c 0,28,29
 359 1736 359 1736 367 1753 c 0,30,31
 407 1833 407 1833 489 1862 c 0,32,33
 504 1867 504 1867 519 1870 c 0,0,1
603 1612 m 1,34,35
 651 1648 651 1648 648 1714 c 0,36,37
 647 1726 647 1726 645 1735 c 0,38,39
 628 1806 628 1806 568 1818 c 0,40,41
 533 1824 533 1824 497 1806 c 1,42,43
 469 1790 469 1790 461 1781 c 1,44,45
 531 1818 531 1818 589 1793 c 0,46,47
 617 1780 617 1780 629 1755 c 0,48,49
 650 1705 650 1705 611 1627 c 0,50,51
 607 1618 607 1618 603 1612 c 1,34,35
419 1737 m 1,52,-1
 417 1735 l 1,53,-1
 419 1737 l 1,52,-1
416 1733 m 1,54,-1
 414 1732 l 1,55,-1
 416 1733 l 1,54,-1
414 1729 m 1,56,57
 392 1706 392 1706 391 1651 c 2,58,-1
 391 1648 l 1,59,-1
 392 1648 l 1,60,61
 401 1696 401 1696 414 1729 c 1,56,57
559 1711 m 0,62,63
 509 1701 509 1701 478 1656 c 1,64,65
 462 1635 462 1635 463 1625 c 0,66,67
 464 1609 464 1609 490 1604 c 0,68,69
 495 1603 495 1603 498 1604 c 0,70,71
 536 1608 536 1608 570 1656 c 0,72,73
 575 1663 575 1663 578 1668 c 0,74,75
 593 1697 593 1697 572 1708 c 0,76,77
 565 1711 565 1711 559 1711 c 0,62,63
530 1558 m 1,78,-1
 528 1556 l 1,79,-1
 530 1558 l 1,78,-1
525 1556 m 1,80,-1
 457 1553 l 1,81,82
 491 1545 491 1545 525 1555 c 1,83,-1
 525 1556 l 1,80,-1
EndSplineSet
EndChar

StartChar: uni0654
Encoding: 1620 1620 320
Width: 67
VWidth: 1639
GlyphClass: 2
Flags: HW
AnchorPoint: "GposMark2BaseAnchorClassErabAbove_01_02" 532 1452 mark 0
AnchorPoint: "GposMark2MarkAnchorHamzaErabAbove_01_01" 532 1934 basemark 0
AnchorPoint: "GposMark2MarkAnchorHamzaErabBelow_01_01" 532 1302 basemark 0
LayerCount: 2
Fore
SplineSet
443 1615 m 1,0,1
 452 1653 452 1653 475 1727 c 0,2,3
 487 1764 487 1764 491 1769 c 0,4,5
 495 1773 495 1773 497 1774 c 0,6,7
 510 1784 510 1784 534 1784 c 2,8,-1
 600 1784 l 1,9,-1
 700 1784 l 2,10,11
 730 1783 730 1783 737 1770 c 0,12,13
 739 1763 739 1763 726 1723 c 0,14,15
 722 1706 722 1706 725 1697 c 0,16,17
 726 1694 726 1694 734 1692 c 0,18,19
 743 1688 743 1688 746 1684 c 0,20,21
 750 1669 750 1669 736 1620 c 1,22,-1
 656 1620 l 1,23,-1
 656 1619 l 1,24,-1
 711 1619 l 1,25,-1
 684 1530 l 1,26,-1
 723 1530 l 1,27,28
 704 1473 704 1473 694 1465 c 1,29,30
 669 1452 669 1452 606 1455 c 1,31,-1
 379 1455 l 1,32,-1
 392 1497 l 1,33,-1
 314 1497 l 1,34,35
 333 1576 333 1576 347 1615 c 1,36,-1
 443 1615 l 1,0,1
681 1709 m 1,37,38
 684 1733 684 1733 661 1738 c 0,39,40
 657 1738 657 1738 574 1738 c 0,41,42
 544 1737 544 1737 534 1732 c 0,43,44
 516 1719 516 1719 508 1683 c 0,45,46
 504 1668 504 1668 494 1637 c 0,47,48
 480 1591 480 1591 475 1569 c 1,49,-1
 379 1569 l 1,50,-1
 370 1543 l 1,51,-1
 576 1543 l 2,52,53
 625 1543 625 1543 639 1555 c 0,54,55
 647 1563 647 1563 652 1573 c 1,56,-1
 545 1573 l 1,57,58
 548 1588 548 1588 556 1616 c 0,59,60
 563 1645 563 1645 566 1660 c 0,61,62
 575 1692 575 1692 587 1701 c 0,63,64
 600 1709 600 1709 622 1709 c 2,65,-1
 681 1709 l 1,37,38
EndSplineSet
EndChar

StartChar: uni0655
Encoding: 1621 1621 321
Width: 68
VWidth: 1639
GlyphClass: 2
Flags: HW
AnchorPoint: "GposMark2BaseAnchorClassErabBelow_01_02" -107 -116 mark 0
LayerCount: 2
Fore
SplineSet
-196 -285 m 1,0,1
 -187 -247 -187 -247 -164 -174 c 0,2,3
 -152 -137 -152 -137 -148 -132 c 0,4,5
 -144 -128 -144 -128 -142 -126 c 0,6,7
 -129 -116 -129 -116 -105 -116 c 2,8,-1
 -39 -116 l 1,9,-1
 61 -116 l 2,10,11
 91 -117 91 -117 98 -131 c 0,12,13
 100 -138 100 -138 87 -178 c 0,14,15
 83 -195 83 -195 86 -203 c 0,16,17
 87 -206 87 -206 95 -209 c 0,18,19
 104 -213 104 -213 107 -216 c 0,20,21
 111 -231 111 -231 97 -280 c 1,22,-1
 17 -280 l 1,23,-1
 17 -282 l 1,24,-1
 72 -282 l 1,25,-1
 45 -371 l 1,26,-1
 84 -371 l 1,27,28
 65 -428 65 -428 55 -436 c 1,29,30
 30 -449 30 -449 -33 -446 c 1,31,-1
 -260 -446 l 1,32,-1
 -247 -403 l 1,33,-1
 -325 -403 l 1,34,35
 -306 -324 -306 -324 -292 -285 c 1,36,-1
 -196 -285 l 1,0,1
42 -192 m 1,37,38
 45 -168 45 -168 22 -162 c 0,39,40
 18 -162 18 -162 -65 -162 c 0,41,42
 -95 -163 -95 -163 -105 -169 c 0,43,44
 -123 -182 -123 -182 -131 -218 c 0,45,46
 -135 -233 -135 -233 -145 -263 c 0,47,48
 -159 -309 -159 -309 -164 -331 c 1,49,-1
 -260 -331 l 1,50,-1
 -269 -358 l 1,51,-1
 -63 -358 l 2,52,53
 -14 -358 -14 -358 -0 -346 c 0,54,55
 8 -338 8 -338 13 -328 c 1,56,-1
 -94 -328 l 1,57,58
 -91 -313 -91 -313 -83 -285 c 0,59,60
 -76 -256 -76 -256 -73 -241 c 0,61,62
 -64 -209 -64 -209 -53 -200 c 0,63,64
 -40 -192 -40 -192 -17 -192 c 2,65,-1
 42 -192 l 1,37,38
EndSplineSet
EndChar

StartChar: uni0656
Encoding: 1622 1622 322
Width: 56
VWidth: 1639
GlyphClass: 2
Flags: HW
AnchorPoint: "GposMark2BaseAnchorClassErabBelow_01_02" -97 -115 mark 0
LayerCount: 2
Fore
SplineSet
-127 -116 m 1,0,-1
 -107 -120 l 1,1,2
 -101 -115 -101 -115 -86 -119 c 2,3,-1
 -85 -120 l 1,4,5
 -78 -115 -78 -115 -54 -121 c 0,6,7
 -52 -121 -52 -121 -45 -122 c 0,8,9
 -25 -125 -25 -125 -22 -130 c 0,10,11
 -21 -133 -21 -133 -26 -148 c 1,12,13
 -28 -161 -28 -161 -35 -185 c 0,14,15
 -40 -202 -40 -202 -42 -210 c 1,16,17
 -40 -210 -40 -210 -33 -211 c 0,18,19
 -12 -214 -12 -214 -10 -218 c 1,20,21
 -9 -226 -9 -226 -18 -244 c 1,22,-1
 -38 -313 l 2,23,24
 -47 -343 -47 -343 -59 -459 c 0,25,26
 -60 -468 -60 -468 -60 -474 c 1,27,-1
 -120 -474 l 1,28,-1
 -118 -431 l 1,29,-1
 -185 -431 l 1,30,-1
 -173 -307 l 1,31,-1
 -127 -116 l 1,0,-1
-78 -172 m 1,32,-1
 -97 -169 l 1,33,-1
 -119 -259 l 1,34,-1
 -131 -385 l 1,35,-1
 -124 -385 l 1,36,-1
 -111 -303 l 1,37,-1
 -78 -172 l 1,32,-1
EndSplineSet
EndChar

StartChar: uni0670
Encoding: 1648 1648 326
Width: 56
VWidth: 1639
GlyphClass: 2
Flags: HW
AnchorPoint: "GposMark2BaseAnchorHamzaErabAbove_01_01" 500.5 1455 mark 0
AnchorPoint: "GposMark2BaseAnchorHamzaErabBelow_01_01" 500.5 1814 mark 0
AnchorPoint: "GposMark2BaseAnchorClassErabAbove_01_02" 500.5 1455 mark 0
AnchorPoint: "GposMark2MarkAnchorHamzaErabAbove_01_01" 500.5 1455 mark 0
AnchorPoint: "GposMark2MarkAnchorHamzaErabBelow_01_01" 500.5 1814 mark 0
AnchorPoint: "GposMark2MarkAnchorShaddaErabAbove_01_02" 500.5 1455 mark 0
AnchorPoint: "GposMark2MarkAnchorShaddaErabBelow_01_02" 500.5 1814 mark 0
LayerCount: 2
Fore
SplineSet
470 1812 m 1,0,-1
 491 1809 l 1,1,2
 497 1814 497 1814 511 1809 c 2,3,-1
 512 1809 l 1,4,5
 519 1814 519 1814 544 1807 c 0,6,7
 546 1807 546 1807 552 1806 c 0,8,9
 572 1803 572 1803 575 1799 c 0,10,11
 576 1796 576 1796 571 1781 c 1,12,13
 569 1768 569 1768 562 1744 c 0,14,15
 557 1727 557 1727 555 1719 c 1,16,17
 557 1719 557 1719 564 1718 c 0,18,19
 585 1715 585 1715 587 1711 c 1,20,21
 588 1703 588 1703 579 1684 c 1,22,-1
 559 1615 l 2,23,24
 550 1585 550 1585 538 1470 c 0,25,26
 537 1461 537 1461 537 1455 c 1,27,-1
 477 1455 l 1,28,-1
 480 1497 l 1,29,-1
 413 1497 l 1,30,-1
 425 1622 l 1,31,-1
 470 1812 l 1,0,-1
520 1756 m 1,32,-1
 501 1760 l 1,33,-1
 478 1670 l 1,34,-1
 466 1543 l 1,35,-1
 473 1543 l 1,36,-1
 486 1625 l 1,37,-1
 520 1756 l 1,32,-1
EndSplineSet
EndChar

StartChar: uni0674
Encoding: 1652 1652 327
Width: 107
GlyphClass: 2
Flags: HW
AnchorPoint: "GposMark2BaseAnchorClassErabAbove_01_02" 590 1014 mark 0
AnchorPoint: "GposMark2MarkAnchorHamzaErabAbove_01_01" 590 1579 basemark 0
AnchorPoint: "GposMark2MarkAnchorHamzaErabBelow_01_01" 590 864 basemark 0
LayerCount: 2
Fore
SplineSet
764 1178 m 2,0,1
 755 1160 755 1160 745 1145 c 128,-1,2
 735 1130 735 1130 731 1129 c 0,3,4
 684 1118 684 1118 644.5 1109 c 128,-1,5
 605 1100 605 1100 587 1095 c 0,6,7
 541 1082 541 1082 496.5 1062 c 128,-1,8
 452 1042 452 1042 414 1018 c 1,9,10
 409 1014 409 1014 405 1014 c 0,11,12
 402 1014 402 1014 398.5 1018 c 128,-1,13
 395 1022 395 1022 396 1025 c 256,14,15
 397 1028 397 1028 402 1032 c 1,16,-1
 402 1031 l 1,17,18
 417 1051 417 1051 447 1076 c 128,-1,19
 477 1101 477 1101 522 1136 c 1,20,21
 448 1171 448 1171 463 1233 c 0,22,23
 474 1282 474 1282 559 1355 c 1,24,25
 648 1429 648 1429 708 1429 c 0,26,27
 718 1429 718 1429 729 1425.5 c 128,-1,28
 740 1422 740 1422 747.5 1415.5 c 128,-1,29
 755 1409 755 1409 759 1400.5 c 128,-1,30
 763 1392 763 1392 761 1382 c 0,31,32
 758 1368 758 1368 751.5 1353.5 c 128,-1,33
 745 1339 745 1339 736.5 1327 c 128,-1,34
 728 1315 728 1315 719 1307.5 c 128,-1,35
 710 1300 710 1300 703 1300 c 0,36,37
 699 1300 699 1300 694 1307.5 c 128,-1,38
 689 1315 689 1315 681.5 1323.5 c 128,-1,39
 674 1332 674 1332 664 1339.5 c 128,-1,40
 654 1347 654 1347 641 1347 c 256,41,42
 628 1347 628 1347 611.5 1339.5 c 128,-1,43
 595 1332 595 1332 579.5 1321.5 c 128,-1,44
 564 1311 564 1311 553 1299 c 128,-1,45
 542 1287 542 1287 540 1277 c 0,46,47
 536 1259 536 1259 543.5 1244 c 128,-1,48
 551 1229 551 1229 565.5 1218 c 128,-1,49
 580 1207 580 1207 601 1201 c 128,-1,50
 622 1195 622 1195 644 1195 c 0,51,52
 647 1195 647 1195 668 1200 c 128,-1,53
 689 1205 689 1205 713.5 1210.5 c 128,-1,54
 738 1216 738 1216 759.5 1221 c 128,-1,55
 781 1226 781 1226 785 1226 c 1,56,-1
 764 1178 l 2,0,1
EndSplineSet
EndChar

StartChar: afii57388
Encoding: 1548 1548 329
Width: 671
VWidth: 1639
GlyphClass: 2
Flags: W
LayerCount: 2
Fore
SplineSet
459 303 m 1,0,1
 484 266 484 266 491 225 c 0,2,3
 492 218 492 218 491 204 c 0,4,5
 490 190 490 190 491 184 c 0,6,7
 492 177 492 177 496 163 c 0,8,9
 502 141 502 141 503 130 c 0,10,11
 509 48 509 48 455 -15 c 0,12,13
 447 -24 447 -24 440 -30 c 0,14,15
 378 -86 378 -86 288 -57 c 0,16,17
 273 -52 273 -52 261 -46 c 0,18,19
 253 -42 253 -42 241 -29 c 0,20,21
 230 -18 230 -18 224 -15 c 0,22,23
 219 -12 219 -12 207 -7 c 0,24,25
 195 -2 195 -2 191 0 c 0,26,27
 156 23 156 23 141 67 c 1,28,29
 124 126 124 126 145 218 c 0,30,31
 196 429 196 429 355 499 c 0,32,33
 410 522 410 522 466 526 c 1,34,-1
 501 526 l 1,35,36
 505 523 505 523 507.5 514 c 128,-1,37
 510 505 510 505 511 489 c 2,38,-1
 512 472 l 2,39,40
 514 454 514 454 519 419 c 0,41,42
 528 358 528 358 530 328 c 1,43,-1
 459 303 l 1,0,1
451 474 m 1,44,45
 327 448 327 448 248 339 c 0,46,47
 233 318 233 318 221 297 c 0,48,49
 195 251 195 251 188 212 c 0,50,51
 171 108 171 108 235 54 c 0,52,53
 265 30 265 30 305 25 c 0,54,55
 353 21 353 21 402 76 c 0,56,57
 434 113 434 113 438 148 c 0,58,59
 445 233 445 233 383 281 c 0,60,61
 361 297 361 297 337 303 c 1,62,-1
 355 321 l 1,63,-1
 342 326 l 1,64,-1
 360 344 l 1,65,-1
 348 349 l 1,66,67
 375 379 375 379 445 407 c 0,68,69
 454 411 454 411 460 413 c 1,70,-1
 451 474 l 1,44,45
EndSplineSet
EndChar

StartChar: afii57403
Encoding: 1563 1563 334
Width: 674
VWidth: 1639
GlyphClass: 2
Flags: W
LayerCount: 2
Fore
SplineSet
571 774 m 1,0,1
 596 737 596 737 603 695 c 0,2,3
 604 688 604 688 603 675 c 0,4,5
 602 661 602 661 603 654 c 0,6,7
 604 647 604 647 608 634 c 0,8,9
 614 612 614 612 615 600 c 0,10,11
 621 518 621 518 567 456 c 0,12,13
 559 447 559 447 552 441 c 0,14,15
 490 385 490 385 400 414 c 0,16,17
 385 419 385 419 373 425 c 0,18,19
 365 429 365 429 353 441 c 0,20,21
 342 452 342 452 336 456 c 0,22,23
 331 459 331 459 319 463 c 0,24,25
 307 468 307 468 303 471 c 0,26,27
 268 494 268 494 253 538 c 1,28,29
 236 597 236 597 257 689 c 0,30,31
 308 900 308 900 467 969 c 0,32,33
 522 992 522 992 578 997 c 1,34,-1
 613 997 l 1,35,36
 617 994 617 994 619.5 985 c 128,-1,37
 622 976 622 976 623 959 c 2,38,-1
 624 943 l 2,39,40
 626 925 626 925 631 890 c 0,41,42
 640 829 640 829 642 799 c 1,43,-1
 571 774 l 1,0,1
563 945 m 1,44,45
 439 919 439 919 360 810 c 0,46,47
 345 789 345 789 333 768 c 0,48,49
 307 722 307 722 300 682 c 0,50,51
 283 578 283 578 347 524 c 0,52,53
 377 500 377 500 417 495 c 0,54,55
 465 491 465 491 514 547 c 0,56,57
 546 584 546 584 550 618 c 0,58,59
 557 703 557 703 494 752 c 0,60,61
 472 768 472 768 449 774 c 1,62,-1
 467 792 l 1,63,-1
 454 797 l 1,64,-1
 472 815 l 1,65,-1
 460 820 l 1,66,67
 487 850 487 850 557 878 c 0,68,69
 566 882 566 882 572 884 c 1,70,-1
 563 945 l 1,44,45
286 346 m 1,71,72
 421 364 421 364 472 270 c 0,73,74
 478 259 478 259 481 248 c 0,75,76
 485 237 485 237 490 178 c 0,77,78
 492 162 492 162 495 153 c 0,79,80
 518 80 518 80 473 5 c 1,81,82
 433 -57 433 -57 369 -67 c 1,83,84
 309 -73 309 -73 263 -44 c 0,85,86
 258 -41 258 -41 250 -33 c 0,87,88
 241 -25 241 -25 238 -21 c 0,89,90
 233 -17 233 -17 220 -12 c 0,91,92
 204 -5 204 -5 197 0 c 0,93,94
 147 39 147 39 135 103 c 1,95,96
 122 195 122 195 176 274 c 1,97,98
 220 335 220 335 286 346 c 1,71,72
309 298 m 1,99,100
 281 291 281 291 264 282 c 0,101,102
 241 269 241 269 229 256 c 0,103,104
 198 223 198 223 189 197 c 0,105,106
 169 133 169 133 227 68 c 0,107,108
 235 59 235 59 243 52 c 0,109,110
 286 18 286 18 315 21 c 0,111,112
 338 24 338 24 361 38 c 1,113,114
 386 55 386 55 397 66 c 0,115,116
 426 97 426 97 434 123 c 0,117,118
 437 133 437 133 437 166 c 1,119,120
 429 236 429 236 375 274 c 0,121,122
 338 301 338 301 309 298 c 1,99,100
EndSplineSet
EndChar

StartChar: afii57407
Encoding: 1567 1567 335
Width: 1099
VWidth: 1639
GlyphClass: 2
Flags: W
LayerCount: 2
Fore
SplineSet
718 243 m 1,0,1
 714 279 714 279 707 282 c 0,2,3
 703 283 703 283 687 281 c 0,4,5
 659 279 659 279 655 285 c 0,6,7
 653 289 653 289 641 343 c 0,8,9
 639 352 639 352 636 358 c 0,10,11
 608 431 608 431 553 490 c 0,12,13
 544 500 544 500 433 593 c 0,14,15
 330 681 330 681 305 768 c 1,16,17
 288 837 288 837 313 946 c 0,18,19
 339 1056 339 1056 383 1132 c 0,20,21
 466 1269 466 1269 619 1342 c 0,22,23
 674 1368 674 1368 727 1379 c 0,24,25
 897 1411 897 1411 1062 1337 c 0,26,27
 1083 1327 1083 1327 1121 1302 c 0,28,29
 1155 1280 1155 1280 1172 1271 c 1,30,-1
 1158 1251 l 1,31,-1
 1167 1248 l 1,32,-1
 1153 1228 l 1,33,-1
 1161 1225 l 1,34,-1
 1146 1205 l 1,35,-1
 1184 1182 l 1,36,37
 1176 1169 1176 1169 1154 1145 c 0,38,39
 1142 1130 1142 1130 1118 1101 c 0,40,41
 1093 1072 1093 1072 1082 1058 c 0,42,43
 1079 1055 1079 1055 1072 1045 c 0,44,45
 1054 1021 1054 1021 1047 1020 c 0,46,47
 1041 1020 1041 1020 1019 1038 c 1,48,49
 989 1060 989 1060 948 1079 c 1,50,51
 812 1133 812 1133 694 1072 c 0,52,53
 646 1046 646 1046 610 1004 c 0,54,55
 591 980 591 980 575 945 c 1,56,57
 561 899 561 899 562 889 c 0,58,59
 562 884 562 884 565 878 c 128,-1,60
 568 872 568 872 571 866.5 c 128,-1,61
 574 861 574 861 577 857.5 c 128,-1,62
 580 854 580 854 585.5 847.5 c 128,-1,63
 591 841 591 841 592.5 838.5 c 128,-1,64
 594 836 594 836 601 830 c 2,65,-1
 608 823 l 2,66,67
 637 795 637 795 749 707 c 0,68,69
 821 649 821 649 823 646 c 0,70,71
 872 594 872 594 898 518 c 0,72,73
 900 512 900 512 910 428 c 0,74,75
 911 421 911 421 912 417 c 0,76,77
 930 310 930 310 916 239 c 1,78,-1
 896 239 l 1,79,-1
 887 221 l 1,80,-1
 893 221 l 1,81,-1
 882 198 l 1,82,-1
 888 198 l 1,83,-1
 867 156 l 1,84,-1
 910 156 l 1,85,-1
 801 -66 l 1,86,-1
 590 -67 l 1,87,-1
 611 -25 l 1,88,-1
 525 -25 l 1,89,-1
 537 -2 l 1,90,-1
 530 -2 l 1,91,-1
 542 21 l 1,92,-1
 536 21 l 1,93,-1
 643 243 l 1,94,-1
 718 243 l 1,0,1
1102 1237 m 1,95,96
 986 1312 986 1312 888 1330 c 0,97,98
 831 1341 831 1341 811 1340 c 0,99,100
 664 1330 664 1330 525 1212 c 0,101,102
 374 1084 374 1084 353 926 c 0,103,104
 350 900 350 900 350 876 c 0,105,106
 354 760 354 760 462 661 c 0,107,108
 482 643 482 643 523 609 c 0,109,110
 597 548 597 548 626 513 c 0,111,112
 671 457 671 457 692 395 c 0,113,114
 700 373 700 373 704 348 c 0,115,116
 705 346 705 346 705 340 c 0,117,118
 707 331 707 331 709 330 c 0,119,120
 714 327 714 327 751 328 c 2,121,-1
 857 328 l 1,122,123
 867 503 867 503 769 602 c 0,124,125
 745 626 745 626 618 725 c 0,126,127
 610 731 610 731 603 736 c 0,128,129
 524 797 524 797 503 856 c 0,130,131
 490 893 490 893 503 961 c 0,132,133
 531 1107 531 1107 651 1166 c 0,134,135
 711 1194 711 1194 824 1191 c 0,136,137
 830 1191 830 1191 833 1191 c 0,138,139
 898 1188 898 1188 954 1159 c 0,140,141
 962 1155 962 1155 977 1146 c 0,142,143
 1000 1131 1000 1131 1011 1127 c 1,144,-1
 1102 1237 l 1,95,96
833 198 m 1,145,-1
 675 197 l 1,146,-1
 591 21 l 1,147,-1
 747 23 l 1,148,-1
 833 198 l 1,145,-1
EndSplineSet
EndChar

StartChar: afii57409
Encoding: 1569 1569 336
AltUni2: 00fe80.ffffffff.0
Width: 750
VWidth: 1639
GlyphClass: 2
Flags: HW
AnchorPoint: "GposMark2BaseAnchorHamzaErabAbove_01_01" 329.5 564 basechar 0
AnchorPoint: "GposMark2BaseAnchorHamzaErabBelow_01_01" 329.5 -217 basechar 0
LayerCount: 2
Fore
SplineSet
200 138 m 1,0,1
 228 257 228 257 253 331 c 1,2,3
 267 380 267 380 283 394 c 0,4,5
 286 397 286 397 287 399 c 0,6,7
 307 414 307 414 349 413 c 2,8,-1
 445 413 l 1,9,-1
 571 413 l 2,10,11
 624 412 624 412 641 403 c 0,12,13
 659 391 659 391 647 352 c 0,14,15
 642 334 642 334 642 325 c 0,16,17
 642 321 642 321 657 307 c 0,18,19
 662 301 662 301 663 297 c 0,20,21
 664 294 664 294 664.5 289 c 128,-1,22
 665 284 665 284 664 280.5 c 128,-1,23
 663 277 663 277 662.5 270.5 c 128,-1,24
 662 264 662 264 661 260.5 c 128,-1,25
 660 257 660 257 658.5 250.5 c 128,-1,26
 657 244 657 244 655.5 241 c 128,-1,27
 654 238 654 238 651.5 230.5 c 128,-1,28
 649 223 649 223 649 221.5 c 128,-1,29
 649 220 649 220 646 212 c 2,30,-1
 643 203 l 1,31,-1
 537 203 l 2,32,33
 500 202 500 202 485 194 c 1,34,35
 469 182 469 182 460 144 c 1,36,-1
 610 144 l 1,37,-1
 605 121 l 1,38,-1
 599 98 l 1,39,-1
 583 56 l 1,40,-1
 621 56 l 1,41,42
 610 30 610 30 594 -18 c 0,43,44
 583 -46 583 -46 575 -54 c 1,45,46
 555 -67 555 -67 521 -67 c 2,47,-1
 433 -67 l 1,48,-1
 59 -67 l 1,49,-1
 72 -25 l 1,50,-1
 -6 -25 l 1,51,-1
 11 41 l 1,52,-1
 41 138 l 1,53,-1
 200 138 l 1,0,1
589 292 m 1,54,55
 605 337 605 337 592 353 c 1,56,57
 577 368 577 368 532 367 c 2,58,-1
 396 367 l 2,59,60
 342 366 342 366 325 356 c 0,61,62
 318 353 318 353 313 347 c 128,-1,63
 308 341 308 341 304.5 337 c 128,-1,64
 301 333 301 333 297.5 324 c 128,-1,65
 294 315 294 315 293.5 312.5 c 128,-1,66
 293 310 293 310 289 298 c 2,67,-1
 286 287 l 1,68,69
 255 190 255 190 232 92 c 1,70,-1
 73 92 l 1,71,-1
 52 21 l 1,72,-1
 380 21 l 1,73,-1
 461 21 l 2,74,75
 498 22 498 22 515 31 c 0,76,77
 532 41 532 41 548 90 c 0,78,79
 550 95 550 95 550 98 c 1,80,-1
 374 98 l 1,81,82
 379 118 379 118 389 161 c 0,83,84
 400 203 400 203 404 223 c 0,85,86
 415 267 415 267 430 282 c 0,87,88
 436 287 436 287 441.5 288.5 c 128,-1,89
 447 290 447 290 458 291 c 2,90,-1
 470 292 l 2,91,92
 486 293 486 293 589 292 c 1,54,55
EndSplineSet
EndChar

StartChar: afii57410
Encoding: 1570 1570 337
AltUni2: 00fe81.ffffffff.0
Width: 453
VWidth: 1639
GlyphClass: 2
Flags: W
LayerCount: 2
Fore
SplineSet
803 1742 m 1,0,1
 813 1735 813 1735 826 1742 c 1,2,3
 834 1734 834 1734 847 1742 c 1,4,-1
 887 1670 l 1,5,-1
 904 1633 l 1,6,-1
 892 1627 l 1,7,-1
 899 1610 l 1,8,-1
 887 1604 l 1,9,10
 913 1559 913 1559 916 1545 c 1,11,12
 794 1470 794 1470 705 1469 c 0,13,14
 684 1469 684 1469 570 1487 c 0,15,16
 522 1494 522 1494 488 1492 c 0,17,18
 432 1486 432 1486 388 1469 c 0,19,20
 385 1468 385 1468 375 1463 c 0,21,22
 349 1448 349 1448 343 1448 c 0,23,24
 340 1450 340 1450 336 1457 c 0,25,26
 335 1458 335 1458 334 1460 c 2,27,-1
 334 1461 l 1,28,29
 318 1489 318 1489 316 1497 c 1,30,31
 299 1491 299 1491 297 1495 c 0,32,33
 296 1498 296 1498 295 1499 c 1,34,35
 276 1486 276 1486 266 1510 c 0,36,37
 263 1516 263 1516 263 1517 c 0,38,39
 256 1529 256 1529 243 1554 c 0,40,41
 226 1586 226 1586 217 1601 c 1,42,-1
 217 1602 l 1,43,-1
 229 1609 l 1,44,-1
 222 1624 l 1,45,-1
 222 1625 l 1,46,-1
 235 1632 l 1,47,-1
 227 1647 l 1,48,-1
 228 1648 l 1,49,50
 341 1726 341 1726 506 1712 c 0,51,52
 525 1710 525 1710 548 1707 c 0,53,54
 665 1693 665 1693 706 1700 c 0,55,56
 760 1710 760 1710 803 1742 c 1,0,1
837 1617 m 1,57,58
 832 1628 832 1628 813 1660 c 0,59,60
 807 1672 807 1672 803 1674 c 0,61,62
 799 1675 799 1675 762 1660 c 0,63,64
 758 1659 758 1659 756 1658 c 0,65,66
 716 1647 716 1647 673 1647 c 0,67,68
 604 1647 604 1647 514 1658 c 1,69,70
 439 1670 439 1670 418 1668 c 0,71,72
 358 1661 358 1661 286 1619 c 1,73,74
 290 1609 290 1609 302 1588 c 0,75,76
 308 1576 308 1576 311 1571 c 0,77,78
 322 1555 322 1555 323 1555 c 0,79,80
 326 1555 326 1555 361 1568 c 0,81,82
 364 1569 364 1569 365 1569 c 0,83,84
 414 1580 414 1580 449 1581 c 0,85,86
 524 1581 524 1581 596 1571 c 0,87,88
 605 1570 605 1570 623 1567 c 0,89,90
 665 1560 665 1560 685 1561 c 0,91,92
 727 1566 727 1566 825 1612 c 0,93,94
 832 1615 832 1615 837 1617 c 1,57,58
360 1409 m 1,95,-1
 724 1409 l 1,96,-1
 704 1320 l 1,97,-1
 736 1320 l 1,98,-1
 420 -67 l 1,99,-1
 99 -67 l 1,100,-1
 108 -25 l 1,101,-1
 34 -25 l 1,102,-1
 360 1409 l 1,95,-1
671 1363 m 1,103,-1
 392 1363 l 1,104,-1
 87 21 l 1,105,-1
 366 21 l 1,106,-1
 671 1363 l 1,103,-1
EndSplineSet
AlternateSubs2: "gsub_alternate_dfl_aalt_arab_FAR_Lookup_01_Subtable_01" uniFE82 afii57410
Substitution2: "gsub_single_rtl_fina_arab_FAR_Lookup_01_Subtable_01" uniFE82
EndChar

StartChar: uniFE83
Encoding: 1571 1571 339
AltUni2: 00fe83.ffffffff.0
Width: 471
VWidth: 1639
GlyphClass: 2
Flags: W
LayerCount: 2
Fore
SplineSet
330 1409 m 1,0,-1
 693 1409 l 1,1,-1
 672 1320 l 1,2,-1
 704 1320 l 1,3,-1
 388 -67 l 1,4,-1
 67 -67 l 1,5,-1
 77 -25 l 1,6,-1
 2 -25 l 1,7,-1
 330 1409 l 1,0,-1
639 1363 m 1,8,-1
 362 1363 l 1,9,-1
 55 21 l 1,10,-1
 334 21 l 1,11,-1
 639 1363 l 1,8,-1
489 1660 m 1,12,13
 498 1698 498 1698 521 1771 c 0,14,15
 533 1808 533 1808 537 1813 c 0,16,17
 541 1817 541 1817 542 1819 c 0,18,19
 555 1829 555 1829 580 1829 c 2,20,-1
 645 1829 l 1,21,-1
 746 1829 l 2,22,23
 776 1828 776 1828 782 1814 c 0,24,25
 784 1807 784 1807 772 1767 c 0,26,27
 767 1750 767 1750 770 1742 c 0,28,29
 771 1739 771 1739 780 1736 c 0,30,31
 789 1732 789 1732 792 1729 c 0,32,33
 796 1714 796 1714 781 1665 c 1,34,-1
 702 1665 l 1,35,-1
 702 1663 l 1,36,-1
 757 1663 l 1,37,-1
 730 1574 l 1,38,-1
 768 1574 l 1,39,40
 749 1517 749 1517 739 1509 c 1,41,42
 714 1496 714 1496 652 1499 c 1,43,-1
 424 1499 l 1,44,-1
 437 1542 l 1,45,-1
 360 1542 l 1,46,47
 379 1621 379 1621 393 1660 c 1,48,-1
 489 1660 l 1,12,13
727 1753 m 1,49,50
 730 1777 730 1777 707 1783 c 0,51,52
 703 1783 703 1783 620 1783 c 0,53,54
 590 1782 590 1782 580 1776 c 0,55,56
 562 1763 562 1763 553 1727 c 0,57,58
 549 1712 549 1712 540 1682 c 0,59,60
 526 1636 526 1636 521 1614 c 1,61,-1
 425 1614 l 1,62,-1
 416 1588 l 1,63,-1
 622 1588 l 2,64,65
 671 1588 671 1588 685 1599 c 0,66,67
 693 1607 693 1607 697 1617 c 1,68,-1
 590 1617 l 1,69,70
 593 1632 593 1632 601 1660 c 0,71,72
 608 1689 608 1689 612 1704 c 0,73,74
 621 1736 621 1736 632 1745 c 0,75,76
 645 1753 645 1753 668 1753 c 2,77,-1
 727 1753 l 1,49,50
EndSplineSet
AlternateSubs2: "gsub_alternate_dfl_aalt_arab_FAR_Lookup_01_Subtable_01" uniFE84 uniFE83
Substitution2: "gsub_single_rtl_fina_arab_FAR_Lookup_01_Subtable_01" uniFE84
EndChar

StartChar: uniFE84
Encoding: 65156 65156 340
Width: 671
VWidth: 1639
GlyphClass: 2
Flags: W
LayerCount: 2
Fore
SplineSet
362 1405 m 1,0,-1
 727 1405 l 1,1,-1
 706 1317 l 1,2,-1
 738 1317 l 1,3,4
 710 1195 710 1195 656 950 c 0,5,6
 602 704 602 704 573 582 c 0,7,8
 566 551 566 551 553 490 c 0,9,10
 539 428 539 428 532 397 c 2,11,-1
 521 349 l 2,12,13
 518 332 518 332 520 330 c 0,14,15
 533 318 533 318 589 318 c 0,16,17
 620 318 620 318 681 317 c 0,18,19
 743 316 743 316 774 317 c 1,20,-1
 764 271 l 1,21,22
 727 271 727 271 655 271 c 0,23,24
 582 272 582 272 546 272 c 0,25,26
 482 272 482 272 466 282 c 0,27,28
 460 286 460 286 456 292 c 0,29,30
 439 317 439 317 455 387 c 0,31,32
 462 418 462 418 476 481 c 0,33,34
 490 544 490 544 497 574 c 0,35,36
 527 705 527 705 585 967 c 0,37,38
 643 1229 643 1229 673 1360 c 1,39,-1
 394 1360 l 1,40,-1
 182 441 l 2,41,42
 145 282 145 282 142 251 c 0,43,44
 130 130 130 130 188 71 c 0,45,46
 237 23 237 23 367 21 c 0,47,48
 375 21 375 21 387 21 c 0,49,50
 440 21 440 21 547 22 c 0,51,52
 654 23 654 23 707 23 c 1,53,-1
 686 -67 l 1,54,-1
 425 -67 l 2,55,56
 307 -67 307 -67 272 -58 c 0,57,58
 260 -55 260 -55 250 -51 c 0,59,60
 239 -47 239 -47 197 -16 c 0,61,62
 193 -13 193 -13 191 -11 c 0,63,64
 184 -6 184 -6 170 1 c 0,65,66
 134 21 134 21 120 39 c 0,67,68
 61 117 61 117 103 296 c 0,69,70
 108 319 108 319 121 365 c 0,71,72
 133 411 133 411 138 433 c 2,73,-1
 362 1405 l 1,0,-1
496 1656 m 1,74,75
 505 1694 505 1694 528 1768 c 0,76,77
 540 1805 540 1805 544 1810 c 0,78,79
 548 1814 548 1814 550 1815 c 0,80,81
 563 1825 563 1825 587 1825 c 2,82,-1
 653 1825 l 1,83,-1
 754 1825 l 2,84,85
 784 1824 784 1824 790 1811 c 0,86,87
 792 1804 792 1804 779 1764 c 0,88,89
 774 1747 774 1747 778 1738 c 0,90,91
 779 1735 779 1735 787 1733 c 0,92,93
 796 1729 796 1729 799 1725 c 0,94,95
 803 1710 803 1710 789 1661 c 1,96,-1
 710 1661 l 1,97,-1
 709 1660 l 1,98,-1
 764 1660 l 1,99,-1
 738 1571 l 1,100,-1
 776 1571 l 1,101,102
 757 1514 757 1514 747 1506 c 1,103,104
 722 1493 722 1493 659 1496 c 1,105,-1
 432 1496 l 1,106,-1
 445 1538 l 1,107,-1
 367 1538 l 1,108,109
 386 1617 386 1617 400 1656 c 1,110,-1
 496 1656 l 1,74,75
735 1750 m 1,111,112
 738 1774 738 1774 714 1779 c 0,113,114
 710 1779 710 1779 627 1779 c 0,115,116
 597 1778 597 1778 587 1773 c 0,117,118
 569 1760 569 1760 561 1724 c 0,119,120
 557 1709 557 1709 548 1678 c 0,121,122
 534 1632 534 1632 529 1610 c 1,123,-1
 432 1610 l 1,124,-1
 423 1584 l 1,125,-1
 629 1584 l 2,126,127
 678 1584 678 1584 692 1596 c 0,128,129
 700 1604 700 1604 705 1614 c 1,130,-1
 598 1614 l 1,131,132
 601 1629 601 1629 609 1657 c 0,133,134
 616 1686 616 1686 620 1701 c 0,135,136
 629 1733 629 1733 640 1742 c 0,137,138
 653 1750 653 1750 675 1750 c 2,139,-1
 735 1750 l 1,111,112
EndSplineSet
EndChar

StartChar: uniFE85
Encoding: 1572 1572 341
AltUni2: 00fe85.ffffffff.0
Width: 1000
VWidth: 1639
GlyphClass: 2
Flags: W
LayerCount: 2
Fore
SplineSet
269 82 m 1,0,1
 259 86 259 86 207 122 c 0,2,3
 202 126 202 126 197 128 c 0,4,5
 6 247 6 247 9 417 c 1,6,7
 14 618 14 618 251 874 c 1,8,9
 358 988 358 988 443 1022 c 0,10,11
 479 1035 479 1035 553 1035 c 0,12,13
 707 1034 707 1034 797 969 c 1,14,15
 877 909 877 909 902 789 c 0,16,17
 905 775 905 775 908 744 c 0,18,19
 910 723 910 723 911 713 c 0,20,21
 961 399 961 399 762 50 c 0,22,23
 699 -61 699 -61 617 -162 c 0,24,25
 549 -245 549 -245 427 -366 c 0,26,27
 422 -371 422 -371 370 -415 c 0,28,29
 349 -432 349 -432 344 -435 c 0,30,31
 341 -435 341 -435 338 -433 c 128,-1,32
 335 -431 335 -431 331 -427 c 2,33,-1
 326 -423 l 2,34,35
 322 -420 322 -420 314 -412 c 0,36,37
 295 -395 295 -395 285 -392 c 0,38,39
 261 -382 261 -382 197 -330 c 0,40,41
 177 -314 177 -314 137 -280 c 0,42,43
 65 -220 65 -220 27 -195 c 1,44,-1
 43 -182 l 1,45,-1
 44 -180 l 1,46,-1
 32 -172 l 1,47,-1
 49 -159 l 1,48,-1
 49 -157 l 1,49,-1
 37 -149 l 1,50,51
 49 -137 49 -137 77 -115 c 0,52,53
 94 -101 94 -101 102 -95 c 0,54,55
 221 11 221 11 269 82 c 1,0,1
104 -169 m 1,56,57
 124 -182 124 -182 156 -210 c 1,58,-1
 255 -289 l 1,59,-1
 294 -318 l 2,60,61
 307 -328 307 -328 310 -328 c 0,62,63
 317 -325 317 -325 330 -313 c 0,64,65
 339 -306 339 -306 355 -291 c 0,66,67
 372 -276 372 -276 380 -269 c 0,68,69
 483 -176 483 -176 576 -57 c 0,70,71
 777 198 777 198 836 443 c 0,72,73
 853 518 853 518 856 610 c 0,74,75
 867 836 867 836 733 931 c 0,76,77
 713 945 713 945 692 954 c 0,78,79
 629 980 629 980 563 986 c 0,80,81
 520 989 520 989 499 984 c 1,82,83
 432 964 432 964 354 897 c 0,84,85
 246 803 246 803 141 649 c 1,86,87
 72 542 72 542 63 485 c 0,88,89
 42 331 42 331 192 213 c 0,90,91
 201 206 201 206 209 200 c 0,92,93
 259 165 259 165 306 148 c 0,94,95
 348 134 348 134 351 133 c 1,96,-1
 335 112 l 1,97,-1
 346 110 l 1,98,-1
 330 89 l 1,99,-1
 340 87 l 1,100,101
 248 -29 248 -29 200 -79 c 0,102,103
 178 -100 178 -100 138 -138 c 0,104,105
 108 -164 108 -164 104 -169 c 1,56,57
532 725 m 1,106,107
 600 732 600 732 626 715 c 1,108,109
 656 689 656 689 645 628 c 0,110,111
 629 531 629 531 586 449 c 0,112,113
 551 387 551 387 526 356 c 1,114,115
 502 331 502 331 499 330 c 0,116,117
 496 329 496 329 495 328 c 0,118,119
 488 327 488 327 475 329 c 0,120,121
 466 330 466 330 462 330 c 0,122,123
 366 330 366 330 331 391 c 0,124,125
 322 407 322 407 319 425 c 0,126,127
 317 449 317 449 325 482 c 0,128,129
 349 581 349 581 428 659 c 0,130,131
 487 716 487 716 532 725 c 1,106,107
592 636 m 1,132,133
 516 630 516 630 429 510 c 0,134,135
 425 505 425 505 422 500 c 0,136,137
 387 449 387 449 389 431 c 1,138,139
 393 418 393 418 421 402 c 0,140,141
 462 378 462 378 474 382 c 1,142,143
 483 388 483 388 507 418 c 1,144,145
 543 470 543 470 571 531 c 0,146,147
 591 572 591 572 593 587 c 0,148,149
 594 598 594 598 592 636 c 1,132,133
857 1287 m 1,150,151
 866 1325 866 1325 889 1399 c 0,152,153
 901 1436 901 1436 905 1441 c 0,154,155
 909 1445 909 1445 911 1446 c 0,156,157
 924 1456 924 1456 948 1456 c 2,158,-1
 1014 1456 l 1,159,-1
 1114 1456 l 2,160,161
 1144 1455 1144 1455 1150 1442 c 0,162,163
 1152 1435 1152 1435 1140 1395 c 0,164,165
 1136 1378 1136 1378 1138 1369 c 0,166,167
 1139 1366 1139 1366 1148 1364 c 0,168,169
 1157 1360 1157 1360 1160 1356 c 0,170,171
 1164 1341 1164 1341 1150 1292 c 1,172,-1
 1070 1292 l 1,173,-1
 1070 1291 l 1,174,-1
 1125 1291 l 1,175,-1
 1098 1202 l 1,176,-1
 1136 1202 l 1,177,178
 1117 1145 1117 1145 1107 1137 c 1,179,180
 1082 1124 1082 1124 1020 1127 c 1,181,-1
 793 1127 l 1,182,-1
 805 1169 l 1,183,-1
 728 1169 l 1,184,185
 747 1248 747 1248 761 1287 c 1,186,-1
 857 1287 l 1,150,151
1095 1381 m 1,187,188
 1098 1405 1098 1405 1075 1410 c 0,189,190
 1071 1410 1071 1410 988 1410 c 0,191,192
 958 1409 958 1409 948 1404 c 0,193,194
 930 1391 930 1391 921 1355 c 0,195,196
 917 1340 917 1340 908 1309 c 0,197,198
 894 1263 894 1263 889 1241 c 1,199,-1
 793 1241 l 1,200,-1
 784 1215 l 1,201,-1
 990 1215 l 2,202,203
 1039 1215 1039 1215 1053 1227 c 0,204,205
 1061 1235 1061 1235 1065 1245 c 1,206,-1
 959 1245 l 1,207,208
 962 1260 962 1260 969 1288 c 0,209,210
 976 1317 976 1317 980 1332 c 0,211,212
 989 1364 989 1364 1000 1373 c 0,213,214
 1013 1381 1013 1381 1036 1381 c 2,215,-1
 1095 1381 l 1,187,188
EndSplineSet
AlternateSubs2: "gsub_alternate_dfl_aalt_arab_FAR_Lookup_01_Subtable_01" uniFE86 uniFE85
Substitution2: "gsub_single_rtl_fina_arab_FAR_Lookup_01_Subtable_01" uniFE86
EndChar

StartChar: uniFE86
Encoding: 65158 65158 342
Width: 848
VWidth: 1639
GlyphClass: 2
Flags: W
LayerCount: 2
Fore
SplineSet
221 82 m 1,0,1
 205 88 205 88 155 125 c 1,2,3
 77 178 77 178 72 182 c 0,4,5
 70 184 70 184 68 185 c 0,6,7
 17 233 17 233 -8 284 c 0,8,9
 -30 328 -30 328 -35 364 c 0,10,11
 -62 555 -62 555 151 815 c 0,12,13
 277 967 277 967 377 1014 c 0,14,15
 423 1035 423 1035 512 1035 c 0,16,17
 707 1034 707 1034 800 918 c 0,18,19
 811 905 811 905 819.5 891 c 128,-1,20
 828 877 828 877 833.5 856.5 c 128,-1,21
 839 836 839 836 843 826.5 c 128,-1,22
 847 817 847 817 852 789 c 128,-1,23
 857 761 857 761 858 756 c 128,-1,24
 859 751 859 751 864 717 c 2,25,-1
 868 682 l 1,26,27
 887 562 887 562 837 342 c 0,28,29
 834 330 834 330 831 317 c 1,30,-1
 950 317 l 1,31,-1
 939 271 l 1,32,-1
 733 271 l 1,33,-1
 745 294 l 1,34,-1
 739 294 l 1,35,-1
 750 317 l 1,36,-1
 744 317 l 1,37,38
 802 447 802 447 809 612 c 0,39,40
 813 730 813 730 777 817 c 0,41,42
 721 951 721 951 555 980 c 0,43,44
 552 981 552 981 549 981 c 0,45,46
 469 994 469 994 411 968 c 0,47,48
 302 918 302 918 158 737 c 0,49,50
 154 732 154 732 151 728 c 0,51,52
 88 647 88 647 50 574 c 0,53,54
 20 516 20 516 16 487 c 0,55,56
 -5 340 -5 340 133 224 c 0,57,58
 139 219 139 219 144 215 c 0,59,60
 231 144 231 144 303 133 c 1,61,-1
 288 112 l 1,62,-1
 298 110 l 1,63,-1
 282 89 l 1,64,-1
 293 87 l 1,65,66
 247 12 247 12 130 -102 c 0,67,68
 121 -111 121 -111 100 -128 c 0,69,70
 69 -155 69 -155 57 -169 c 1,71,72
 69 -174 69 -174 109 -208 c 0,73,74
 126 -221 126 -221 158 -248 c 0,75,76
 191 -275 191 -275 208 -287 c 2,77,-1
 247 -318 l 2,78,79
 258 -328 258 -328 263 -326 c 0,80,81
 269 -324 269 -324 281 -314 c 0,82,83
 283 -313 283 -313 284 -312 c 2,84,-1
 285 -310 l 1,85,86
 322 -278 322 -278 339 -262 c 0,87,88
 423 -187 423 -187 511 -75 c 0,89,90
 546 -32 546 -32 562 -10 c 1,91,92
 578 16 578 16 584 20 c 0,93,94
 589 22 589 22 606 21 c 2,95,-1
 663 21 l 2,96,97
 700 21 700 21 773 22 c 0,98,99
 846 23 846 23 882 23 c 1,100,-1
 861 -67 l 1,101,-1
 696 -67 l 1,102,-1
 655 -67 l 2,103,104
 640 -68 640 -68 638 -71 c 0,105,106
 631 -77 631 -77 614 -102 c 0,107,108
 588 -140 588 -140 565 -167 c 0,109,110
 484 -266 484 -266 389 -356 c 0,111,112
 366 -377 366 -377 324 -413 c 0,113,114
 300 -433 300 -433 296 -435 c 0,115,116
 294 -435 294 -435 291.5 -433 c 128,-1,117
 289 -431 289 -431 287 -429.5 c 128,-1,118
 285 -428 285 -428 282 -426 c 2,119,-1
 279 -423 l 2,120,121
 275 -420 275 -420 266 -412 c 0,122,123
 247 -395 247 -395 237 -392 c 0,124,125
 213 -382 213 -382 149 -330 c 0,126,127
 129 -314 129 -314 89 -280 c 0,128,129
 17 -220 17 -220 -21 -195 c 1,130,-1
 -4 -182 l 1,131,-1
 -4 -180 l 1,132,-1
 -16 -172 l 1,133,-1
 1 -159 l 1,134,-1
 1 -157 l 1,135,-1
 -10 -149 l 1,136,137
 2 -137 2 -137 30 -115 c 0,138,139
 47 -101 47 -101 54 -95 c 0,140,141
 173 11 173 11 221 82 c 1,0,1
484 725 m 1,142,143
 552 732 552 732 578 715 c 1,144,145
 608 689 608 689 598 628 c 0,146,147
 582 531 582 531 538 449 c 0,148,149
 503 387 503 387 478 356 c 1,150,151
 454 331 454 331 452 330 c 0,152,153
 449 329 449 329 448 328 c 0,154,155
 441 327 441 327 427 329 c 0,156,157
 418 330 418 330 414 330 c 0,158,159
 318 330 318 330 283 391 c 0,160,161
 274 407 274 407 272 425 c 0,162,163
 270 449 270 449 277 482 c 0,164,165
 301 581 301 581 381 659 c 0,166,167
 439 716 439 716 484 725 c 1,142,143
545 636 m 1,168,169
 469 630 469 630 381 510 c 0,170,171
 377 505 377 505 374 500 c 0,172,173
 339 449 339 449 342 431 c 1,174,175
 346 418 346 418 373 402 c 0,176,177
 414 378 414 378 426 382 c 1,178,179
 435 388 435 388 459 418 c 1,180,181
 495 470 495 470 523 531 c 0,182,183
 543 572 543 572 545 587 c 0,184,185
 547 598 547 598 545 636 c 1,168,169
875 1287 m 1,186,187
 884 1325 884 1325 907 1399 c 0,188,189
 919 1436 919 1436 923 1441 c 0,190,191
 927 1445 927 1445 928 1446 c 0,192,193
 941 1456 941 1456 966 1456 c 2,194,-1
 1031 1456 l 1,195,-1
 1132 1456 l 2,196,197
 1162 1455 1162 1455 1168 1442 c 0,198,199
 1170 1435 1170 1435 1158 1395 c 0,200,201
 1154 1378 1154 1378 1156 1369 c 0,202,203
 1157 1366 1157 1366 1166 1364 c 0,204,205
 1175 1360 1175 1360 1178 1356 c 0,206,207
 1182 1341 1182 1341 1167 1292 c 1,208,-1
 1088 1292 l 1,209,-1
 1088 1291 l 1,210,-1
 1143 1291 l 1,211,-1
 1116 1202 l 1,212,-1
 1154 1202 l 1,213,214
 1135 1145 1135 1145 1125 1137 c 1,215,216
 1100 1124 1100 1124 1038 1127 c 1,217,-1
 810 1127 l 1,218,-1
 823 1169 l 1,219,-1
 745 1169 l 1,220,221
 764 1248 764 1248 779 1287 c 1,222,-1
 875 1287 l 1,186,187
1113 1381 m 1,223,224
 1116 1405 1116 1405 1092 1410 c 0,225,226
 1088 1410 1088 1410 1006 1410 c 0,227,228
 976 1409 976 1409 966 1404 c 0,229,230
 948 1391 948 1391 939 1355 c 0,231,232
 935 1340 935 1340 926 1309 c 0,233,234
 912 1264 912 1264 907 1241 c 1,235,-1
 811 1241 l 1,236,-1
 802 1215 l 1,237,-1
 1008 1215 l 2,238,239
 1057 1215 1057 1215 1071 1227 c 0,240,241
 1079 1235 1079 1235 1083 1245 c 1,242,-1
 976 1245 l 1,243,244
 979 1260 979 1260 987 1288 c 0,245,246
 994 1317 994 1317 998 1332 c 0,247,248
 1007 1364 1007 1364 1018 1373 c 0,249,250
 1031 1381 1031 1381 1054 1381 c 2,251,-1
 1113 1381 l 1,223,224
EndSplineSet
EndChar

StartChar: uniFE87
Encoding: 1573 1573 343
AltUni2: 00fe87.ffffffff.0
Width: 475
VWidth: 1639
GlyphClass: 2
Flags: W
LayerCount: 2
Fore
SplineSet
382 1409 m 1,0,-1
 745 1409 l 1,1,-1
 725 1320 l 1,2,-1
 757 1320 l 1,3,-1
 441 -67 l 1,4,-1
 119 -67 l 1,5,-1
 129 -25 l 1,6,-1
 55 -25 l 1,7,-1
 382 1409 l 1,0,-1
692 1363 m 1,8,-1
 415 1363 l 1,9,-1
 108 21 l 1,10,-1
 387 21 l 1,11,-1
 692 1363 l 1,8,-1
66 -400 m 1,12,13
 75 -362 75 -362 98 -289 c 0,14,15
 110 -252 110 -252 114 -247 c 0,16,17
 118 -243 118 -243 120 -241 c 0,18,19
 133 -231 133 -231 157 -231 c 2,20,-1
 223 -231 l 1,21,-1
 323 -231 l 2,22,23
 353 -232 353 -232 360 -246 c 0,24,25
 362 -253 362 -253 349 -293 c 0,26,27
 345 -310 345 -310 347 -318 c 0,28,29
 348 -321 348 -321 357 -324 c 0,30,31
 366 -328 366 -328 369 -331 c 0,32,33
 373 -346 373 -346 359 -395 c 1,34,-1
 279 -395 l 1,35,-1
 279 -397 l 1,36,-1
 334 -397 l 1,37,-1
 307 -485 l 1,38,-1
 345 -485 l 1,39,40
 326 -542 326 -542 317 -551 c 1,41,42
 292 -564 292 -564 229 -561 c 1,43,-1
 2 -561 l 1,44,-1
 15 -518 l 1,45,-1
 -63 -518 l 1,46,47
 -44 -439 -44 -439 -30 -400 c 1,48,-1
 66 -400 l 1,12,13
304 -307 m 1,49,50
 307 -283 307 -283 284 -277 c 0,51,52
 280 -277 280 -277 197 -277 c 0,53,54
 167 -278 167 -278 157 -284 c 0,55,56
 139 -297 139 -297 131 -333 c 0,57,58
 127 -348 127 -348 117 -378 c 0,59,60
 103 -424 103 -424 98 -446 c 1,61,-1
 2 -446 l 1,62,-1
 -7 -472 l 1,63,-1
 199 -472 l 2,64,65
 248 -472 248 -472 262 -460 c 0,66,67
 270 -452 270 -452 274 -443 c 1,68,-1
 168 -443 l 1,69,70
 171 -428 171 -428 179 -399 c 0,71,72
 186 -370 186 -370 189 -356 c 0,73,74
 198 -324 198 -324 209 -315 c 0,75,76
 222 -307 222 -307 245 -307 c 2,77,-1
 304 -307 l 1,49,50
EndSplineSet
AlternateSubs2: "gsub_alternate_dfl_aalt_arab_FAR_Lookup_01_Subtable_01" uniFE88 uniFE87
Substitution2: "gsub_single_rtl_fina_arab_FAR_Lookup_01_Subtable_01" uniFE88
EndChar

StartChar: uniFE88
Encoding: 65160 65160 344
Width: 908
VWidth: 1639
GlyphClass: 2
Flags: W
LayerCount: 2
Fore
SplineSet
598 1405 m 1,0,-1
 963 1405 l 1,1,-1
 942 1317 l 1,2,-1
 974 1317 l 1,3,4
 946 1195 946 1195 892 950 c 0,5,6
 838 704 838 704 809 582 c 0,7,8
 802 551 802 551 789 490 c 0,9,10
 775 428 775 428 768 397 c 2,11,-1
 757 349 l 2,12,13
 754 332 754 332 755 330 c 0,14,15
 768 318 768 318 824 318 c 0,16,17
 855 318 855 318 917 317 c 0,18,19
 979 316 979 316 1010 317 c 1,20,-1
 1000 271 l 1,21,22
 963 271 963 271 891 271 c 0,23,24
 818 272 818 272 782 272 c 0,25,26
 718 272 718 272 702 282 c 0,27,28
 696 286 696 286 692 292 c 0,29,30
 675 317 675 317 691 387 c 0,31,32
 698 418 698 418 712 481 c 0,33,34
 726 544 726 544 733 574 c 0,35,36
 763 705 763 705 821 967 c 0,37,38
 879 1229 879 1229 909 1360 c 1,39,-1
 630 1360 l 1,40,-1
 418 441 l 2,41,42
 381 282 381 282 378 251 c 0,43,44
 366 130 366 130 424 71 c 0,45,46
 473 23 473 23 602 21 c 0,47,48
 610 21 610 21 623 21 c 0,49,50
 676 21 676 21 783 22 c 0,51,52
 890 23 890 23 942 23 c 1,53,-1
 922 -67 l 1,54,-1
 661 -67 l 2,55,56
 543 -67 543 -67 508 -58 c 0,57,58
 496 -55 496 -55 486 -51 c 0,59,60
 475 -47 475 -47 433 -16 c 0,61,62
 429 -13 429 -13 427 -11 c 0,63,64
 420 -6 420 -6 405 1 c 0,65,66
 369 21 369 21 356 39 c 0,67,68
 297 117 297 117 339 296 c 0,69,70
 344 319 344 319 356 365 c 0,71,72
 368 411 368 411 374 433 c 2,73,-1
 598 1405 l 1,0,-1
92 -285 m 1,74,75
 101 -247 101 -247 124 -174 c 0,76,77
 136 -137 136 -137 140 -132 c 0,78,79
 144 -128 144 -128 145 -126 c 0,80,81
 158 -116 158 -116 183 -116 c 2,82,-1
 248 -116 l 1,83,-1
 349 -116 l 2,84,85
 379 -117 379 -117 385 -131 c 0,86,87
 387 -138 387 -138 375 -178 c 0,88,89
 371 -195 371 -195 373 -203 c 0,90,91
 374 -206 374 -206 383 -209 c 0,92,93
 392 -213 392 -213 394 -216 c 0,94,95
 398 -231 398 -231 384 -280 c 1,96,-1
 305 -280 l 1,97,-1
 305 -282 l 1,98,-1
 359 -282 l 1,99,-1
 333 -371 l 1,100,-1
 371 -371 l 1,101,102
 352 -428 352 -428 342 -436 c 1,103,104
 317 -449 317 -449 255 -446 c 1,105,-1
 27 -446 l 1,106,-1
 40 -403 l 1,107,-1
 -38 -403 l 1,108,109
 -19 -324 -19 -324 -4 -285 c 1,110,-1
 92 -285 l 1,74,75
330 -192 m 1,111,112
 333 -168 333 -168 309 -162 c 0,113,114
 305 -162 305 -162 222 -162 c 0,115,116
 192 -163 192 -163 183 -169 c 0,117,118
 165 -182 165 -182 156 -218 c 0,119,120
 152 -233 152 -233 143 -263 c 0,121,122
 129 -309 129 -309 124 -331 c 1,123,-1
 28 -331 l 1,124,-1
 19 -358 l 1,125,-1
 225 -358 l 2,126,127
 274 -358 274 -358 287 -346 c 0,128,129
 295 -338 295 -338 300 -328 c 1,130,-1
 193 -328 l 1,131,132
 196 -313 196 -313 204 -285 c 0,133,134
 211 -256 211 -256 215 -241 c 0,135,136
 224 -209 224 -209 235 -200 c 0,137,138
 248 -192 248 -192 270 -192 c 2,139,-1
 330 -192 l 1,111,112
EndSplineSet
EndChar

StartChar: uniFE89
Encoding: 1574 1574 345
AltUni2: 00fe89.ffffffff.0
Width: 1427
VWidth: 1639
GlyphClass: 2
Flags: W
LayerCount: 2
Fore
SplineSet
788 -67 m 1,0,1
 677 -67 677 -67 647 -59 c 0,2,3
 636 -56 636 -56 628 -52 c 0,4,5
 623 -50 623 -50 580 -18 c 0,6,7
 576 -15 576 -15 573 -13 c 0,8,9
 517 19 517 19 504 38 c 0,10,11
 499 45 499 45 497 51 c 0,12,13
 466 112 466 112 497 248 c 0,14,15
 499 256 499 256 501 269 c 0,16,17
 556 507 556 507 635 695 c 0,18,19
 692 831 692 831 748 889 c 1,20,21
 833 973 833 973 992 1007 c 1,22,23
 1121 1034 1121 1034 1384 1028 c 0,24,25
 1454 1027 1454 1027 1491 1027 c 1,26,-1
 1469 938 l 1,27,-1
 1502 938 l 1,28,-1
 1424 646 l 1,29,30
 1239 646 1239 646 1145 635 c 0,31,32
 1049 624 1049 624 1001 579 c 0,33,34
 968 547 968 547 941 467 c 0,35,36
 912 386 912 386 905 361 c 0,37,38
 904 358 904 358 902 351 c 0,39,40
 896 331 896 331 899 326 c 1,41,42
 903 322 903 322 923 318 c 0,43,44
 934 316 934 316 1002 317 c 2,45,-1
 1289 317 l 1,46,-1
 1268 228 l 1,47,-1
 1300 228 l 1,48,49
 1226 -93 1226 -93 1220 -117 c 0,50,51
 1205 -173 1205 -173 1189 -220 c 0,52,53
 1152 -340 1152 -340 1120 -381 c 0,54,55
 1111 -392 1111 -392 1103 -400 c 0,56,57
 1067 -433 1067 -433 1002 -449 c 0,58,59
 928 -467 928 -467 789 -467 c 2,60,-1
 260 -467 l 2,61,62
 134 -467 134 -467 98 -458 c 0,63,64
 85 -455 85 -455 74 -451 c 0,65,66
 70 -449 70 -449 23 -415 c 0,67,68
 20 -413 20 -413 18 -412 c 0,69,70
 -41 -376 -41 -376 -54 -358 c 0,71,72
 -60 -350 -60 -350 -64 -343 c 0,73,74
 -106 -267 -106 -267 -67 -104 c 0,75,76
 -63 -89 -63 -89 -56 -56 c 0,77,78
 -55 -51 -55 -51 -29 59 c 0,79,80
 6 212 6 212 74 517 c 0,81,82
 142 823 142 823 178 976 c 1,83,-1
 227 976 l 1,84,-1
 310 959 l 1,85,-1
 534 918 l 1,86,-1
 514 835 l 1,87,-1
 545 830 l 1,88,89
 519 718 519 718 471 495 c 0,90,91
 422 271 422 271 397 161 c 0,92,93
 390 132 390 132 378 75 c 0,94,95
 365 17 365 17 359 -11 c 2,96,-1
 349 -56 l 2,97,98
 347 -70 347 -70 348 -72 c 0,99,100
 352 -81 352 -81 375 -82 c 0,101,102
 375 -84 375 -84 416 -83 c 2,103,-1
 457 -82 l 1,104,-1
 632 -82 l 1,105,-1
 722 -82 l 1,106,107
 733 -80 733 -80 755 -75 c 0,108,109
 777 -70 777 -70 788 -69 c 1,110,-1
 788 -67 l 1,0,1
1436 981 m 1,111,112
 1190 981 1190 981 1134 976 c 0,113,114
 1116 974 1116 974 1100 973 c 0,115,116
 961 958 961 958 863 905 c 1,117,118
 753 843 753 843 681 684 c 1,119,120
 636 581 636 581 567 348 c 0,121,122
 528 213 528 213 534 154 c 0,123,124
 536 135 536 135 541 118 c 0,125,126
 567 28 567 28 705 22 c 0,127,128
 722 21 722 21 787 21 c 2,129,-1
 859 21 l 2,130,131
 885 20 885 20 886 20 c 0,132,133
 889 15 889 15 886 -2 c 1,134,135
 881 -47 881 -47 868 -72 c 0,136,137
 838 -127 838 -127 742 -128 c 2,138,-1
 399 -128 l 2,139,140
 392 -128 392 -128 375 -129 c 0,141,142
 288 -131 288 -131 273 -98 c 1,143,144
 268 -75 268 -75 285 -8 c 0,145,146
 292 23 292 23 306 85 c 0,147,148
 320 148 320 148 326 179 c 0,149,150
 353 295 353 295 403 526 c 0,151,152
 453 758 453 758 481 872 c 1,153,-1
 293 907 l 1,154,-1
 208 922 l 1,155,156
 176 782 176 782 113 500 c 0,157,158
 50 218 50 218 18 79 c 0,159,160
 13 59 13 59 3 17 c 0,161,162
 -40 -153 -40 -153 -30 -230 c 0,163,164
 -23 -274 -23 -274 -5 -307 c 0,165,166
 37 -376 37 -376 175 -379 c 0,167,168
 185 -379 185 -379 230 -379 c 2,169,-1
 794 -379 l 2,170,171
 883 -379 883 -379 963 -356 c 0,172,173
 1018 -340 1018 -340 1049 -312 c 1,174,175
 1097 -264 1097 -264 1135 -133 c 0,176,177
 1169 -19 1169 -19 1235 271 c 1,178,-1
 953 271 l 2,179,180
 945 271 945 271 928 270 c 0,181,182
 859 267 859 267 838 285 c 1,183,184
 821 303 821 303 826 343 c 1,185,186
 831 392 831 392 862 484 c 1,187,188
 896 594 896 594 914 623 c 0,189,190
 928 646 928 646 943 663 c 0,191,192
 989 709 989 709 1080 722 c 0,193,194
 1169 735 1169 735 1370 735 c 1,195,-1
 1436 981 l 1,111,112
296 1046 m 1,196,197
 305 1084 305 1084 328 1158 c 0,198,199
 340 1195 340 1195 344 1200 c 0,200,201
 348 1204 348 1204 350 1205 c 0,202,203
 363 1215 363 1215 387 1215 c 2,204,-1
 453 1215 l 1,205,-1
 554 1215 l 2,206,207
 584 1214 584 1214 590 1200 c 0,208,209
 592 1193 592 1193 579 1154 c 0,210,211
 575 1137 575 1137 578 1128 c 0,212,213
 579 1125 579 1125 587 1123 c 0,214,215
 596 1119 596 1119 599 1115 c 0,216,217
 603 1100 603 1100 589 1051 c 1,218,-1
 510 1051 l 1,219,-1
 509 1050 l 1,220,-1
 564 1050 l 1,221,-1
 538 961 l 1,222,-1
 576 961 l 1,223,224
 557 904 557 904 547 895 c 1,225,226
 522 882 522 882 459 886 c 1,227,-1
 232 886 l 1,228,-1
 245 928 l 1,229,-1
 167 928 l 1,230,231
 186 1007 186 1007 200 1046 c 1,232,-1
 296 1046 l 1,196,197
535 1140 m 1,233,234
 538 1164 538 1164 514 1169 c 0,235,236
 510 1169 510 1169 427 1169 c 0,237,238
 397 1168 397 1168 387 1163 c 0,239,240
 369 1150 369 1150 361 1114 c 0,241,242
 357 1099 357 1099 348 1068 c 0,243,244
 334 1022 334 1022 329 1000 c 1,245,-1
 232 1000 l 1,246,-1
 223 974 l 1,247,-1
 429 974 l 2,248,249
 478 974 478 974 492 986 c 0,250,251
 500 994 500 994 505 1004 c 1,252,-1
 398 1004 l 1,253,254
 401 1019 401 1019 409 1047 c 0,255,256
 416 1076 416 1076 420 1091 c 0,257,258
 429 1123 429 1123 440 1132 c 0,259,260
 453 1140 453 1140 475 1140 c 2,261,-1
 535 1140 l 1,233,234
EndSplineSet
AlternateSubs2: "gsub_alternate_dfl_aalt_arab_FAR_Lookup_01_Subtable_01" uniFE8A uniFE8B uniFE89 uniFE8C
Substitution2: "gsub_single_rtl_fina_arab_FAR_Lookup_01_Subtable_01" uniFE8A
Substitution2: "gsub_single_rtl_init_arab_FAR_Lookup_01_Subtable_01" uniFE8B
Substitution2: "gsub_single_rtl_medi_arab_FAR_Lookup_01_Subtable_01" uniFE8C
EndChar

StartChar: uniFE8A
Encoding: 65162 65162 346
Width: 1338
VWidth: 1639
GlyphClass: 2
Flags: W
LayerCount: 2
Fore
SplineSet
220 1032 m 1,0,-1
 240 1025 l 1,1,-1
 241 1032 l 1,2,-1
 261 1025 l 1,3,-1
 263 1032 l 1,4,-1
 478 953 l 1,5,-1
 534 932 l 1,6,-1
 554 922 l 1,7,-1
 551 900 l 1,8,-1
 538 845 l 1,9,10
 563 838 563 838 566 833 c 1,11,12
 567 826 567 826 554 774 c 2,13,-1
 520 628 l 1,14,-1
 403 120 l 1,15,-1
 371 -16 l 2,16,17
 370 -20 370 -20 368 -30 c 0,18,19
 359 -61 359 -61 361 -69 c 1,20,21
 365 -76 365 -76 387 -80 c 0,22,23
 402 -82 402 -82 466 -82 c 0,24,25
 494 -82 494 -82 549 -83 c 0,26,27
 677 -86 677 -86 741 -80 c 0,28,29
 752 -79 752 -79 775 -74 c 0,30,31
 791 -70 791 -70 799 -69 c 1,32,-1
 799 -67 l 1,33,34
 687 -67 687 -67 655 -58 c 0,35,36
 644 -55 644 -55 635 -51 c 0,37,38
 629 -49 629 -49 593 -22 c 0,39,40
 585 -17 585 -17 580 -13 c 0,41,42
 518 24 518 24 502 56 c 0,43,44
 496 71 496 71 493 87 c 0,45,46
 483 145 483 145 517 279 c 0,47,48
 523 303 523 303 526 317 c 1,49,-1
 1440 317 l 1,50,-1
 1429 271 l 1,51,-1
 558 271 l 1,52,53
 538 183 538 183 545 136 c 0,54,55
 567 22 567 22 720 21 c 2,56,-1
 859 21 l 1,57,58
 900 18 900 18 902 16 c 1,59,60
 903 6 903 6 896 -21 c 0,61,62
 886 -61 886 -61 882 -72 c 0,63,64
 861 -109 861 -109 801 -123 c 1,65,66
 770 -128 770 -128 660 -128 c 2,67,-1
 439 -128 l 2,68,69
 430 -128 430 -128 408 -129 c 0,70,71
 320 -133 320 -133 298 -110 c 1,72,73
 281 -86 281 -86 294 -30 c 2,74,-1
 330 130 l 1,75,-1
 456 676 l 1,76,-1
 490 820 l 2,77,78
 491 823 491 823 494 833 c 0,79,80
 503 866 503 866 501 876 c 0,81,82
 499 879 499 879 487 883 c 0,83,84
 487 884 487 884 485 884 c 2,85,-1
 483 884 l 1,86,87
 466 890 466 890 437 902 c 0,88,89
 374 925 374 925 249 971 c 1,90,91
 215 822 215 822 143 523 c 0,92,93
 72 224 72 224 37 75 c 0,94,95
 33 57 33 57 23 19 c 0,96,97
 -21 -157 -21 -157 -10 -234 c 0,98,99
 -3 -276 -3 -276 16 -307 c 0,100,101
 61 -379 61 -379 197 -382 c 0,102,103
 210 -382 210 -382 259 -382 c 2,104,-1
 793 -382 l 2,105,106
 878 -382 878 -382 956 -366 c 0,107,108
 1019 -352 1019 -352 1050 -328 c 0,109,110
 1114 -278 1114 -278 1153 -136 c 0,111,112
 1155 -128 1155 -128 1159 -113 c 0,113,114
 1166 -88 1166 -88 1169 -77 c 0,115,116
 1173 -64 1173 -64 1181 -38 c 0,117,118
 1193 2 1193 2 1198 21 c 1,119,-1
 1372 23 l 1,120,-1
 1351 -67 l 1,121,-1
 1252 -67 l 1,122,123
 1246 -92 1246 -92 1215 -192 c 0,124,125
 1181 -301 1181 -301 1177 -312 c 0,126,127
 1144 -386 1144 -386 1106 -417 c 1,128,129
 1071 -443 1071 -443 1005 -456 c 0,130,131
 933 -471 933 -471 797 -471 c 2,132,-1
 306 -471 l 2,133,134
 172 -471 172 -471 168 -470 c 0,135,136
 133 -466 133 -466 106 -458 c 0,137,138
 99 -455 99 -455 51 -422 c 0,139,140
 44 -417 44 -417 38 -415 c 0,141,142
 -19 -380 -19 -380 -31 -363 c 0,143,144
 -34 -359 -34 -359 -36 -356 c 0,145,146
 -90 -275 -90 -275 -45 -83 c 0,147,148
 -40 -61 -40 -61 -28 -18 c 0,149,150
 -16 29 -16 29 -11 51 c 0,151,152
 27 214 27 214 104 541 c 0,153,154
 182 869 182 869 220 1032 c 1,0,-1
351 1282 m 1,155,156
 360 1320 360 1320 383 1394 c 0,157,158
 395 1431 395 1431 399 1436 c 0,159,160
 403 1440 403 1440 404 1442 c 0,161,162
 417 1452 417 1452 442 1451 c 2,163,-1
 507 1451 l 1,164,-1
 608 1451 l 2,165,166
 638 1450 638 1450 644 1437 c 0,167,168
 646 1430 646 1430 634 1390 c 0,169,170
 630 1373 630 1373 632 1364 c 0,171,172
 633 1361 633 1361 642 1359 c 0,173,174
 651 1355 651 1355 654 1351 c 0,175,176
 658 1336 658 1336 643 1287 c 1,177,-1
 564 1287 l 1,178,-1
 564 1286 l 1,179,-1
 619 1286 l 1,180,-1
 592 1197 l 1,181,-1
 630 1197 l 1,182,183
 611 1140 611 1140 601 1132 c 1,184,185
 576 1119 576 1119 514 1122 c 1,186,-1
 286 1122 l 1,187,-1
 299 1164 l 1,188,-1
 222 1164 l 1,189,190
 241 1243 241 1243 255 1282 c 1,191,-1
 351 1282 l 1,155,156
589 1376 m 1,192,193
 592 1400 592 1400 568 1405 c 0,194,195
 564 1405 564 1405 482 1405 c 0,196,197
 452 1404 452 1404 442 1399 c 0,198,199
 424 1386 424 1386 415 1350 c 0,200,201
 411 1335 411 1335 402 1304 c 0,202,203
 388 1258 388 1258 383 1237 c 1,204,-1
 287 1237 l 1,205,-1
 278 1210 l 1,206,-1
 484 1210 l 2,207,208
 533 1210 533 1210 547 1222 c 0,209,210
 555 1230 555 1230 559 1240 c 1,211,-1
 452 1240 l 1,212,213
 455 1255 455 1255 463 1283 c 0,214,215
 470 1312 470 1312 474 1327 c 0,216,217
 483 1359 483 1359 494 1368 c 0,218,219
 507 1376 507 1376 530 1376 c 2,220,-1
 589 1376 l 1,192,193
EndSplineSet
EndChar

StartChar: uniFE8B
Encoding: 65163 65163 347
Width: 691
VWidth: 1639
GlyphClass: 2
Flags: W
LayerCount: 2
Fore
SplineSet
529 1210 m 1,0,1
 545 1277 545 1277 562 1327 c 0,2,3
 575 1362 575 1362 583 1369 c 1,4,5
 599 1380 599 1380 639 1379 c 2,6,-1
 768 1379 l 2,7,8
 811 1378 811 1378 819 1369 c 0,9,10
 826 1359 826 1359 814 1316 c 0,11,12
 811 1303 811 1303 810 1296 c 0,13,14
 810 1293 810 1293 827 1282 c 0,15,16
 831 1278 831 1278 833 1276 c 0,17,18
 835 1260 835 1260 822 1215 c 1,19,-1
 743 1215 l 1,20,-1
 742 1214 l 1,21,-1
 797 1214 l 1,22,23
 790 1195 790 1195 792 1191 c 1,24,25
 785 1172 785 1172 786 1168 c 1,26,-1
 771 1125 l 1,27,-1
 809 1125 l 1,28,29
 806 1119 806 1119 800 1102 c 0,30,31
 789 1068 789 1068 780 1059 c 1,32,33
 755 1046 755 1046 692 1050 c 1,34,-1
 465 1050 l 1,35,-1
 478 1092 l 1,36,-1
 400 1092 l 1,37,-1
 432 1210 l 1,38,-1
 529 1210 l 1,0,1
768 1304 m 1,39,40
 770 1325 770 1325 754 1330 c 0,41,42
 735 1334 735 1334 658 1333 c 0,43,44
 628 1332 628 1332 619 1327 c 1,45,46
 605 1316 605 1316 595 1282 c 0,47,48
 571 1203 571 1203 562 1164 c 1,49,-1
 464 1164 l 1,50,-1
 456 1138 l 1,51,-1
 667 1138 l 2,52,53
 717 1138 717 1138 728 1152 c 0,54,55
 734 1160 734 1160 736 1168 c 1,56,-1
 631 1168 l 1,57,58
 649 1245 649 1245 654 1260 c 0,59,60
 664 1289 664 1289 668 1292 c 0,61,62
 671 1295 671 1295 673 1296 c 0,63,64
 686 1304 686 1304 708 1304 c 2,65,-1
 768 1304 l 1,39,40
420 1032 m 1,66,-1
 439 1025 l 1,67,-1
 441 1032 l 1,68,-1
 461 1025 l 1,69,-1
 462 1032 l 1,70,71
 495 1024 495 1024 668 959 c 0,72,73
 677 956 677 956 685 953 c 2,74,-1
 740 933 l 2,75,76
 758 927 758 927 761 923 c 0,77,78
 762 921 762 921 761 918 c 128,-1,79
 760 915 760 915 759 910 c 2,80,-1
 758 905 l 1,81,-1
 749 868 l 1,82,-1
 745 850 l 1,83,84
 746 847 746 847 764 841 c 0,85,86
 770 838 770 838 772 835 c 0,87,88
 772 831 772 831 761 787 c 0,89,90
 756 767 756 767 746 725 c 128,-1,91
 736 683 736 683 731 663 c 0,92,93
 678 435 678 435 648 321 c 0,94,95
 643 303 643 303 635 269 c 0,96,97
 625 223 625 223 618 200 c 0,98,99
 614 185 614 185 606 155 c 0,100,101
 579 46 579 46 541 4 c 0,102,103
 531 -7 531 -7 521 -15 c 0,104,105
 456 -67 456 -67 330 -67 c 0,106,107
 323 -67 323 -67 312 -67 c 0,108,109
 253 -67 253 -67 134 -66 c 0,110,111
 15 -65 15 -65 -44 -66 c 1,112,-1
 -24 23 l 1,113,114
 23 23 23 23 119 22 c 0,115,116
 215 21 215 21 261 21 c 0,117,118
 379 21 379 21 435 54 c 0,119,120
 443 59 443 59 449 62 c 0,121,122
 516 108 516 108 548 227 c 0,123,124
 551 237 551 237 556 258 c 0,125,126
 561 279 561 279 564 289 c 0,127,128
 577 338 577 338 600 435 c 0,129,130
 615 501 615 501 623 533 c 0,131,132
 668 708 668 708 708 881 c 1,133,-1
 637 905 l 1,134,-1
 448 971 l 1,135,136
 429 888 429 888 390 718 c 0,137,138
 352 549 352 549 333 464 c 0,139,140
 328 444 328 444 318 403 c 0,141,142
 308 362 308 362 303 343 c 0,143,144
 292 301 292 301 278 287 c 0,145,146
 274 284 274 284 270.5 281.5 c 128,-1,147
 267 279 267 279 262 277.5 c 128,-1,148
 257 276 257 276 253 275 c 128,-1,149
 249 274 249 274 243 273 c 128,-1,150
 237 272 237 272 234.5 271.5 c 128,-1,151
 232 271 232 271 225 271 c 128,-1,152
 218 271 218 271 216.5 271 c 128,-1,153
 215 271 215 271 207 271 c 2,154,-1
 200 271 l 1,155,-1
 33 271 l 1,156,-1
 44 317 l 1,157,-1
 177 317 l 2,158,159
 224 318 224 318 246 335 c 1,160,161
 262 351 262 351 272 392 c 0,162,163
 277 412 277 412 287 454 c 0,164,165
 298 496 298 496 302 517 c 0,166,167
 322 603 322 603 361 774 c 0,168,169
 400 946 400 946 420 1032 c 1,66,-1
EndSplineSet
EndChar

StartChar: uniFE8C
Encoding: 65164 65164 348
Width: 741
VWidth: 1639
GlyphClass: 2
Flags: W
LayerCount: 2
Fore
SplineSet
529 1210 m 1,0,1
 545 1277 545 1277 562 1327 c 0,2,3
 575 1362 575 1362 583 1369 c 1,4,5
 599 1380 599 1380 639 1379 c 2,6,-1
 768 1379 l 2,7,8
 811 1378 811 1378 819 1369 c 0,9,10
 826 1359 826 1359 814 1316 c 0,11,12
 811 1303 811 1303 810 1296 c 0,13,14
 810 1293 810 1293 827 1282 c 0,15,16
 831 1278 831 1278 833 1276 c 0,17,18
 835 1260 835 1260 822 1215 c 1,19,-1
 743 1215 l 1,20,-1
 742 1214 l 1,21,-1
 797 1214 l 1,22,23
 790 1195 790 1195 792 1191 c 1,24,25
 785 1172 785 1172 786 1168 c 1,26,-1
 771 1125 l 1,27,-1
 809 1125 l 1,28,29
 806 1119 806 1119 800 1102 c 0,30,31
 789 1068 789 1068 780 1059 c 1,32,33
 755 1046 755 1046 692 1050 c 1,34,-1
 465 1050 l 1,35,-1
 478 1092 l 1,36,-1
 400 1092 l 1,37,-1
 432 1210 l 1,38,-1
 529 1210 l 1,0,1
768 1304 m 1,39,40
 770 1325 770 1325 754 1330 c 0,41,42
 735 1334 735 1334 658 1333 c 0,43,44
 628 1332 628 1332 619 1327 c 1,45,46
 605 1316 605 1316 595 1282 c 0,47,48
 571 1203 571 1203 562 1164 c 1,49,-1
 464 1164 l 1,50,-1
 456 1138 l 1,51,-1
 667 1138 l 2,52,53
 717 1138 717 1138 728 1152 c 0,54,55
 734 1160 734 1160 736 1168 c 1,56,-1
 631 1168 l 1,57,58
 649 1245 649 1245 654 1260 c 0,59,60
 664 1289 664 1289 668 1292 c 0,61,62
 671 1295 671 1295 673 1296 c 0,63,64
 686 1304 686 1304 708 1304 c 2,65,-1
 768 1304 l 1,39,40
387 1032 m 1,66,-1
 407 1025 l 1,67,-1
 409 1032 l 1,68,-1
 429 1025 l 1,69,-1
 430 1032 l 1,70,71
 463 1024 463 1024 636 959 c 0,72,73
 645 956 645 956 653 953 c 2,74,-1
 708 933 l 2,75,76
 726 927 726 927 729 923 c 1,77,78
 730 918 730 918 725 902 c 2,79,-1
 712 846 l 1,80,81
 734 845 734 845 740 835 c 0,82,83
 741 830 741 830 734 804 c 2,84,-1
 716 722 l 2,85,86
 705 674 705 674 684 579 c 0,87,88
 663 483 663 483 653 436 c 2,89,-1
 635 359 l 2,90,91
 629 330 629 330 629 328 c 0,92,93
 631 323 631 323 635 320.5 c 128,-1,94
 639 318 639 318 646.5 317.5 c 128,-1,95
 654 317 654 317 659.5 317 c 128,-1,96
 665 317 665 317 674 317 c 2,97,-1
 683 317 l 1,98,-1
 843 317 l 1,99,-1
 833 271 l 1,100,-1
 657 271 l 2,101,102
 594 271 594 271 581 276 c 0,103,104
 577 278 577 278 574 280 c 0,105,106
 543 304 543 304 570 405 c 0,107,108
 577 430 577 430 578 436 c 0,109,110
 590 489 590 489 613 595 c 0,111,112
 636 701 636 701 648 754 c 2,113,-1
 669 843 l 2,114,115
 676 875 676 875 675 877 c 0,116,117
 672 882 672 882 659 886 c 1,118,119
 646 891 646 891 611 902 c 1,120,121
 505 943 505 943 418 971 c 1,122,-1
 301 467 l 2,123,124
 281 383 281 383 271 341 c 0,125,126
 260 300 260 300 248 289 c 1,127,128
 224 271 224 271 177 271 c 2,129,-1
 33 271 l 1,130,-1
 44 317 l 1,131,132
 56 317 56 317 80 316 c 0,133,134
 138 314 138 314 166 318 c 0,135,136
 199 323 199 323 216 336 c 0,137,138
 226 346 226 346 238 387 c 0,139,140
 239 389 239 389 239 390 c 0,141,142
 246 414 246 414 271 520 c 0,143,144
 291 605 291 605 329 776 c 0,145,146
 367 947 367 947 387 1032 c 1,66,-1
448 93 m 1,147,-1
 463 79 l 1,148,-1
 470 93 l 1,149,-1
 485 79 l 1,150,-1
 491 93 l 1,151,152
 497 87 497 87 509 75 c 0,153,154
 541 41 541 41 564 31 c 0,155,156
 588 21 588 21 648 21 c 0,157,158
 669 21 669 21 712 22 c 0,159,160
 755 23 755 23 775 23 c 1,161,-1
 755 -67 l 1,162,163
 740 -67 740 -67 708 -69 c 0,164,165
 623 -73 623 -73 588 -62 c 0,166,167
 574 -58 574 -58 529 -26 c 0,168,169
 525 -23 525 -23 523 -21 c 0,170,171
 519 -17 519 -17 507 -13 c 0,172,173
 499 -10 499 -10 497 -8 c 1,174,175
 462 -65 462 -65 385 -67 c 0,176,177
 376 -67 376 -67 357 -67 c 0,178,179
 345 -67 345 -67 340 -67 c 0,180,181
 276 -67 276 -67 148 -66 c 0,182,183
 20 -65 20 -65 -44 -66 c 1,184,-1
 -24 23 l 1,185,186
 32 23 32 23 143 22 c 0,187,188
 255 21 255 21 310 21 c 0,189,190
 396 21 396 21 430 64 c 0,191,192
 440 77 440 77 448 93 c 1,147,-1
EndSplineSet
EndChar

StartChar: alefarabic
Encoding: 1575 1575 349
AltUni2: 00fe8d.ffffffff.0
Width: 636
VWidth: 1639
GlyphClass: 2
Flags: HW
AnchorPoint: "GposMark2BaseAnchorClassErabAbove_01_02" 443 1559 basechar 0
AnchorPoint: "GposMark2BaseAnchorClassErabBelow_01_02" 443 -217 basechar 0
LayerCount: 2
Fore
SplineSet
420 1409 m 1,0,-1
 783 1409 l 1,1,-1
 762 1320 l 1,2,-1
 794 1320 l 1,3,-1
 479 -67 l 1,4,-1
 157 -67 l 1,5,-1
 167 -25 l 1,6,-1
 92 -25 l 1,7,-1
 420 1409 l 1,0,-1
730 1363 m 1,8,-1
 452 1363 l 1,9,-1
 145 21 l 1,10,-1
 424 21 l 1,11,-1
 730 1363 l 1,8,-1
EndSplineSet
AlternateSubs2: "gsub_alternate_dfl_aalt_arab_FAR_Lookup_01_Subtable_01" uniFE8E alefarabic
Substitution2: "gsub_single_rtl_fina_arab_FAR_Lookup_01_Subtable_01" uniFE8E
EndChar

StartChar: uniFE8E
Encoding: 65166 65166 350
Width: 732
VWidth: 1639
GlyphClass: 2
Flags: HW
AnchorPoint: "GposMark2BaseAnchorClassErabAbove_01_02" 477.5 1555 basechar 0
AnchorPoint: "GposMark2BaseAnchorClassErabBelow_01_02" 477.5 -217 basechar 0
LayerCount: 2
Fore
SplineSet
422 1405 m 1,0,-1
 787 1405 l 1,1,-1
 766 1317 l 1,2,-1
 798 1317 l 1,3,4
 770 1195 770 1195 716 950 c 0,5,6
 662 704 662 704 633 582 c 0,7,8
 626 551 626 551 613 490 c 0,9,10
 599 428 599 428 592 397 c 2,11,-1
 581 349 l 2,12,13
 578 332 578 332 580 330 c 0,14,15
 593 318 593 318 649 318 c 0,16,17
 680 318 680 318 741 317 c 0,18,19
 803 316 803 316 834 317 c 1,20,-1
 824 271 l 1,21,22
 787 271 787 271 715 271 c 0,23,24
 642 272 642 272 606 272 c 0,25,26
 542 272 542 272 526 282 c 0,27,28
 520 286 520 286 516 292 c 0,29,30
 499 317 499 317 515 387 c 0,31,32
 522 418 522 418 536 481 c 0,33,34
 550 544 550 544 557 574 c 0,35,36
 587 705 587 705 645 967 c 0,37,38
 703 1229 703 1229 733 1360 c 1,39,-1
 454 1360 l 1,40,-1
 242 441 l 2,41,42
 205 282 205 282 202 251 c 0,43,44
 190 130 190 130 248 71 c 0,45,46
 297 23 297 23 427 21 c 0,47,48
 435 21 435 21 447 21 c 0,49,50
 500 21 500 21 607 22 c 0,51,52
 714 23 714 23 766 23 c 1,53,-1
 746 -67 l 1,54,-1
 485 -67 l 2,55,56
 367 -67 367 -67 332 -58 c 0,57,58
 320 -55 320 -55 310 -51 c 0,59,60
 299 -47 299 -47 257 -16 c 0,61,62
 253 -13 253 -13 251 -11 c 0,63,64
 244 -6 244 -6 229 1 c 0,65,66
 193 21 193 21 180 39 c 0,67,68
 121 117 121 117 163 296 c 0,69,70
 168 319 168 319 181 365 c 0,71,72
 193 411 193 411 198 433 c 2,73,-1
 422 1405 l 1,0,-1
EndSplineSet
EndChar

StartChar: afii57416
Encoding: 1576 1576 351
AltUni2: 00fe8f.ffffffff.0
Width: 1986
VWidth: 1639
GlyphClass: 2
Flags: HW
AnchorPoint: "GposMark2BaseAnchorClassErabAbove_01_02" 1033 1182 basechar 0
AnchorPoint: "GposMark2BaseAnchorClassErabBelow_01_02" 1033 -642 basechar 0
LayerCount: 2
Fore
SplineSet
560 1032 m 1,0,-1
 560 1025 l 1,1,-1
 583 1032 l 1,2,-1
 581 1025 l 1,3,-1
 604 1032 l 1,4,-1
 583 933 l 1,5,-1
 616 943 l 1,6,7
 599 868 599 868 566 717 c 0,8,9
 534 566 534 566 517 490 c 0,10,11
 498 409 498 409 491 371 c 0,12,13
 484 336 484 336 486 330 c 0,14,15
 488 325 488 325 493 322.5 c 128,-1,16
 498 320 498 320 506 318.5 c 128,-1,17
 514 317 514 317 518.5 317 c 128,-1,18
 523 317 523 317 533 317 c 2,19,-1
 544 317 l 1,20,-1
 707 317 l 1,21,-1
 1296 317 l 1,22,-1
 1433 317 l 2,23,24
 1484 318 1484 318 1507 339 c 1,25,26
 1525 359 1525 359 1535 402 c 0,27,28
 1537 402 1537 402 1551 465 c 2,29,-1
 1565 528 l 1,30,-1
 1681 1032 l 1,31,-1
 1701 1025 l 1,32,-1
 1702 1032 l 1,33,-1
 1722 1025 l 1,34,-1
 1723 1032 l 1,35,36
 1846 987 1846 987 1941 954 c 0,37,38
 1981 941 1981 941 2000 933 c 0,39,40
 2018 927 2018 927 2020 923 c 1,41,42
 2021 918 2021 918 2017 904 c 2,43,-1
 2006 853 l 1,44,45
 2007 846 2007 846 2024 841 c 0,46,47
 2032 837 2032 837 2033 833 c 1,48,49
 2032 825 2032 825 2019 774 c 0,50,51
 2014 754 2014 754 2007 716 c 0,52,53
 1999 677 1999 677 1994 658 c 0,54,55
 1981 602 1981 602 1956 490.5 c 128,-1,56
 1931 379 1931 379 1918 323 c 0,57,58
 1885 182 1885 182 1872 147 c 0,59,60
 1868 136 1868 136 1864 128 c 0,61,62
 1812 10 1812 10 1713 -41 c 0,63,64
 1689 -53 1689 -53 1667 -59 c 1,65,66
 1616 -69 1616 -69 1509 -67 c 1,67,-1
 1240 -67 l 1,68,-1
 550 -67 l 1,69,-1
 366 -67 l 2,70,71
 266 -67 266 -67 238 -59 c 0,72,73
 210 -50 210 -50 153 -11 c 0,74,75
 147 -8 147 -8 134 -2 c 0,76,77
 116 6 116 6 109 11 c 0,78,79
 33 72 33 72 56 225 c 0,80,81
 71 320 71 320 145 619 c 0,82,83
 157 666 157 666 165 700 c 0,84,85
 171 727 171 727 184 782 c 0,86,87
 198 837 198 837 204 864 c 2,88,-1
 214 907 l 2,89,90
 218 922 218 922 219 923 c 0,91,92
 224 929 224 929 243 933 c 2,93,-1
 307 953 l 2,94,95
 342 965 342 965 412 985 c 0,96,97
 512 1014 512 1014 560 1032 c 1,0,-1
547 971 m 1,98,99
 516 965 516 965 367 915 c 0,100,101
 347 908 347 908 330 904 c 0,102,103
 297 895 297 895 273 887 c 0,104,105
 271 886 271 886 265 885 c 0,106,107
 254 881 254 881 251 877 c 0,108,109
 245 867 245 867 237 823 c 0,110,111
 231 798 231 798 219 749 c 0,112,113
 207 698 207 698 201 674 c 2,114,-1
 155 474 l 1,115,116
 112 316 112 316 105 238 c 1,117,118
 98 105 98 105 164 57 c 1,119,120
 221 21 221 21 348 21 c 2,121,-1
 572 21 l 1,122,-1
 1245 21 l 1,123,-1
 1463 21 l 2,124,125
 1573 21 1573 21 1585 23 c 0,126,127
 1625 32 1625 32 1654 44 c 1,128,129
 1790 111 1790 111 1846 323 c 0,130,131
 1857 365 1857 365 1873 449 c 0,132,133
 1882 496 1882 496 1887 517 c 2,134,-1
 1917 646 l 2,135,136
 1923 674 1923 674 1935 730 c 0,137,138
 1947 786 1947 786 1954 813 c 2,139,-1
 1964 859 l 2,140,141
 1967 875 1967 875 1967 877 c 0,142,143
 1965 881 1965 881 1951 886 c 0,144,145
 1943 889 1943 889 1927 895 c 0,146,147
 1910 901 1910 901 1903 904 c 0,148,149
 1829 929 1829 929 1773 950 c 0,150,151
 1765 952 1765 952 1749 958 c 0,152,153
 1722 968 1722 968 1709 971 c 1,154,155
 1690 889 1690 889 1653 724 c 128,-1,156
 1616 559 1616 559 1597 477 c 0,157,158
 1578 396 1578 396 1567 356 c 0,159,160
 1556 312 1556 312 1539 294 c 1,161,162
 1514 271 1514 271 1458 271 c 2,163,-1
 1287 271 l 1,164,-1
 639 271 l 1,165,-1
 491 271 l 2,166,167
 433 273 433 273 419 297 c 0,168,169
 406 322 406 322 421 384 c 0,170,171
 425 402 425 402 432 437 c 0,172,173
 440 473 440 473 444 490 c 0,174,175
 463 570 463 570 496 731 c 0,176,177
 529 891 529 891 547 971 c 1,98,99
659 -136 m 1,178,-1
 983 -136 l 1,179,-1
 962 -225 l 1,180,-1
 994 -225 l 1,181,-1
 957 -392 l 1,182,-1
 936 -492 l 1,183,-1
 653 -492 l 1,184,-1
 663 -449 l 1,185,-1
 588 -449 l 1,186,-1
 659 -136 l 1,178,-1
929 -182 m 1,187,-1
 691 -182 l 1,188,-1
 642 -403 l 1,189,-1
 880 -403 l 1,190,-1
 929 -182 l 1,187,-1
EndSplineSet
AlternateSubs2: "gsub_alternate_dfl_aalt_arab_FAR_Lookup_01_Subtable_01" uniFE90 uniFE91 afii57416 uniFE92
Substitution2: "gsub_single_rtl_fina_arab_FAR_Lookup_01_Subtable_01" uniFE90
Substitution2: "gsub_single_rtl_init_arab_FAR_Lookup_01_Subtable_01" uniFE91
Substitution2: "gsub_single_rtl_medi_arab_FAR_Lookup_01_Subtable_01" uniFE92
EndChar

StartChar: uniFE90
Encoding: 65168 65168 352
Width: 2015
VWidth: 1639
GlyphClass: 2
Flags: HW
AnchorPoint: "GposMark2BaseAnchorClassErabAbove_01_02" 1075 1182 basechar 0
AnchorPoint: "GposMark2BaseAnchorClassErabBelow_01_02" 1075 -642 basechar 0
LayerCount: 2
Fore
SplineSet
558 1032 m 1,0,-1
 558 1025 l 1,1,-1
 581 1032 l 1,2,-1
 580 1025 l 1,3,-1
 603 1032 l 1,4,-1
 581 933 l 1,5,-1
 614 943 l 1,6,7
 613 937 613 937 561 690 c 0,8,9
 555 664 555 664 543 612 c 0,10,11
 523 524 523 524 515 481 c 0,12,13
 512 463 512 463 503 426 c 0,14,15
 494 389 494 389 491 371 c 0,16,17
 483 335 483 335 483 333 c 0,18,19
 484 330 484 330 485 330 c 0,20,21
 487 325 487 325 491.5 322.5 c 128,-1,22
 496 320 496 320 504 318.5 c 128,-1,23
 512 317 512 317 516.5 317 c 128,-1,24
 521 317 521 317 532 317 c 2,25,-1
 543 317 l 1,26,-1
 706 317 l 1,27,-1
 1295 317 l 1,28,-1
 1432 317 l 2,29,30
 1483 318 1483 318 1506 339 c 0,31,32
 1520 353 1520 353 1533 397 c 0,33,34
 1540 421 1540 421 1564 526 c 0,35,36
 1583 610 1583 610 1621.5 778.5 c 128,-1,37
 1660 947 1660 947 1679 1032 c 1,38,-1
 1699 1025 l 1,39,-1
 1701 1032 l 1,40,-1
 1721 1025 l 1,41,-1
 1722 1032 l 1,42,-1
 1939 954 l 1,43,-1
 1998 933 l 1,44,-1
 2019 923 l 1,45,-1
 2015 900 l 1,46,-1
 2004 846 l 1,47,48
 2028 840 2028 840 2031 835 c 0,49,50
 2032 830 2032 830 2025 805 c 1,51,52
 2020 776 2020 776 2007 720 c 0,53,54
 1996 673 1996 673 1975.5 580.5 c 128,-1,55
 1955 488 1955 488 1944 441 c 2,56,-1
 1926 364 l 2,57,58
 1920 333 1920 333 1920 331 c 0,59,60
 1921 328 1921 328 1922.5 326.5 c 128,-1,61
 1924 325 1924 325 1926.5 323 c 128,-1,62
 1929 321 1929 321 1932 320.5 c 128,-1,63
 1935 320 1935 320 1938.5 319 c 128,-1,64
 1942 318 1942 318 1944 317.5 c 128,-1,65
 1946 317 1946 317 1950.5 317 c 128,-1,66
 1955 317 1955 317 1957.5 317 c 128,-1,67
 1960 317 1960 317 1964 317 c 2,68,-1
 1969 317 l 1,69,-1
 2117 317 l 1,70,-1
 2106 271 l 1,71,-1
 1948 271 l 2,72,73
 1889 271 1889 271 1877 276 c 0,74,75
 1872 278 1872 278 1869 280 c 0,76,77
 1834 304 1834 304 1861 407 c 0,78,79
 1867 432 1867 432 1869 438 c 0,80,81
 1881 491 1881 491 1904.5 597 c 128,-1,82
 1928 703 1928 703 1941 756 c 0,83,84
 1955 817 1955 817 1960 846 c 0,85,86
 1966 875 1966 875 1966 877 c 0,87,88
 1964 880 1964 880 1951 885 c 0,89,90
 1951 886 1951 886 1949 886 c 2,91,-1
 1948 886 l 1,92,93
 1910 901 1910 901 1899 904 c 0,94,95
 1874 912 1874 912 1824 931 c 0,96,97
 1747 960 1747 960 1708 971 c 1,98,99
 1689 888 1689 888 1652 723 c 0,100,101
 1615 558 1615 558 1595 476 c 0,102,103
 1570 370 1570 370 1565 349 c 0,104,105
 1550 304 1550 304 1538 292 c 0,106,107
 1513 271 1513 271 1458 271 c 2,108,-1
 1286 271 l 1,109,-1
 637 271 l 1,110,-1
 488 271 l 2,111,112
 430 273 430 273 416 297 c 1,113,114
 405 322 405 322 418 379 c 0,115,116
 422 397 422 397 430 434 c 0,117,118
 438 471 438 471 442 489 c 0,119,120
 461 569 461 569 494 730 c 0,121,122
 527 891 527 891 546 971 c 1,123,124
 494 954 494 954 333 905 c 0,125,126
 293 892 293 892 273 887 c 0,127,128
 271 886 271 886 265 885 c 0,129,130
 254 881 254 881 251 877 c 0,131,132
 246 871 246 871 237 827 c 2,133,-1
 203 679 l 2,134,135
 165 516 165 516 145 436 c 0,136,137
 117 329 117 329 110 277 c 0,138,139
 92 131 92 131 148 72 c 1,140,141
 210 22 210 22 337 21 c 2,142,-1
 508 21 l 1,143,-1
 1399 21 l 1,144,-1
 1614 21 l 2,145,146
 1622 21 1622 21 1640 20 c 0,147,148
 1696 18 1696 18 1720 26 c 1,149,150
 1756 43 1756 43 1789 92 c 1,151,-1
 1792 67 l 1,152,-1
 1795 67 l 1,153,-1
 1810 92 l 1,154,-1
 1814 67 l 1,155,-1
 1817 67 l 1,156,-1
 1832 92 l 1,157,158
 1834 86 1834 86 1837 73 c 0,159,160
 1844 48 1844 48 1854 38 c 0,161,162
 1873 21 1873 21 1925 21 c 0,163,164
 1946 21 1946 21 1987 22 c 0,165,166
 2029 23 2029 23 2049 23 c 1,167,-1
 2028 -67 l 1,168,169
 2015 -67 2015 -67 1987 -69 c 0,170,171
 1915 -72 1915 -72 1886 -64 c 1,172,173
 1871 -58 1871 -58 1859 -46 c 0,174,175
 1838 -25 1838 -25 1831 -23 c 1,176,177
 1823 -27 1823 -27 1802 -48 c 1,178,179
 1777 -65 1777 -65 1751 -67 c 0,180,181
 1751 -69 1751 -69 1696 -68 c 2,182,-1
 1641 -67 l 1,183,-1
 1423 -67 l 1,184,-1
 767 -67 l 1,185,-1
 408 -67 l 2,186,187
 281 -67 281 -67 264 -65 c 0,188,189
 231 -60 231 -60 207 -49 c 0,190,191
 197 -44 197 -44 151 -11 c 0,192,193
 143 -6 143 -6 129 3 c 0,194,195
 82 32 82 32 68 62 c 0,196,197
 33 141 33 141 72 312 c 0,198,199
 85 368 85 368 112 480 c 0,200,201
 139 593 139 593 151 648 c 0,202,203
 159 682 159 682 175 749 c 0,204,205
 191 817 191 817 199 850 c 2,206,-1
 212 904 l 2,207,208
 217 922 217 922 218 923 c 0,209,210
 223 929 223 929 241 933 c 2,211,-1
 305 953 l 2,212,213
 333 962 333 962 390 979 c 0,214,215
 447 996 447 996 475 1005 c 0,216,217
 547 1027 547 1027 558 1032 c 1,0,-1
655 -136 m 1,218,-1
 978 -136 l 1,219,-1
 958 -225 l 1,220,-1
 990 -225 l 1,221,-1
 953 -392 l 1,222,-1
 931 -492 l 1,223,-1
 649 -492 l 1,224,-1
 659 -449 l 1,225,-1
 584 -449 l 1,226,-1
 655 -136 l 1,218,-1
925 -182 m 1,227,-1
 687 -182 l 1,228,-1
 637 -403 l 1,229,-1
 875 -403 l 1,230,-1
 925 -182 l 1,227,-1
EndSplineSet
EndChar

StartChar: uniFE91
Encoding: 65169 65169 353
Width: 721
VWidth: 1639
GlyphClass: 2
Flags: HW
AnchorPoint: "GposMark2BaseAnchorClassErabAbove_01_02" 364 1182 basechar 0
AnchorPoint: "GposMark2BaseAnchorClassErabBelow_01_02" 364 -642 basechar 0
LayerCount: 2
Fore
SplineSet
420 1032 m 1,0,-1
 439 1025 l 1,1,-1
 441 1032 l 1,2,-1
 461 1025 l 1,3,-1
 462 1032 l 1,4,5
 495 1024 495 1024 668 959 c 0,6,7
 677 956 677 956 685 953 c 2,8,-1
 740 933 l 2,9,10
 758 927 758 927 761 923 c 0,11,12
 762 921 762 921 761 918 c 128,-1,13
 760 915 760 915 759 910 c 2,14,-1
 758 905 l 1,15,-1
 749 868 l 1,16,-1
 745 850 l 1,17,18
 746 847 746 847 764 841 c 0,19,20
 770 838 770 838 772 835 c 0,21,22
 772 831 772 831 761 787 c 0,23,24
 756 767 756 767 746 725 c 128,-1,25
 736 683 736 683 731 663 c 0,26,27
 678 435 678 435 648 321 c 0,28,29
 643 303 643 303 635 269 c 0,30,31
 625 223 625 223 618 200 c 0,32,33
 614 185 614 185 606 155 c 0,34,35
 579 46 579 46 541 4 c 0,36,37
 531 -7 531 -7 521 -15 c 0,38,39
 456 -67 456 -67 330 -67 c 0,40,41
 323 -67 323 -67 312 -67 c 0,42,43
 253 -67 253 -67 134 -66 c 0,44,45
 15 -65 15 -65 -44 -66 c 1,46,-1
 -24 23 l 1,47,48
 23 23 23 23 119 22 c 0,49,50
 215 21 215 21 261 21 c 0,51,52
 379 21 379 21 435 54 c 0,53,54
 443 59 443 59 449 62 c 0,55,56
 516 108 516 108 548 227 c 0,57,58
 551 237 551 237 556 258 c 0,59,60
 561 279 561 279 564 289 c 0,61,62
 577 338 577 338 600 435 c 0,63,64
 615 501 615 501 623 533 c 0,65,66
 668 708 668 708 708 881 c 1,67,-1
 637 905 l 1,68,-1
 448 971 l 1,69,70
 429 888 429 888 390 718 c 0,71,72
 352 549 352 549 333 464 c 0,73,74
 328 444 328 444 318 403 c 0,75,76
 308 362 308 362 303 343 c 0,77,78
 292 301 292 301 278 287 c 0,79,80
 274 284 274 284 270.5 281.5 c 128,-1,81
 267 279 267 279 262 277.5 c 128,-1,82
 257 276 257 276 253 275 c 128,-1,83
 249 274 249 274 243 273 c 128,-1,84
 237 272 237 272 234.5 271.5 c 128,-1,85
 232 271 232 271 225 271 c 128,-1,86
 218 271 218 271 216.5 271 c 128,-1,87
 215 271 215 271 207 271 c 2,88,-1
 200 271 l 1,89,-1
 33 271 l 1,90,-1
 44 317 l 1,91,-1
 177 317 l 2,92,93
 224 318 224 318 246 335 c 1,94,95
 262 351 262 351 272 392 c 0,96,97
 277 412 277 412 287 454 c 0,98,99
 298 496 298 496 302 517 c 0,100,101
 322 603 322 603 361 774 c 0,102,103
 400 946 400 946 420 1032 c 1,0,-1
84 -136 m 1,104,-1
 408 -136 l 1,105,-1
 389 -225 l 1,106,-1
 419 -225 l 1,107,-1
 361 -492 l 1,108,-1
 78 -492 l 1,109,-1
 88 -449 l 1,110,-1
 14 -449 l 1,111,-1
 84 -136 l 1,104,-1
354 -182 m 1,112,-1
 118 -182 l 1,113,-1
 67 -403 l 1,114,-1
 306 -403 l 1,115,-1
 354 -182 l 1,112,-1
EndSplineSet
EndChar

StartChar: uniFE92
Encoding: 65170 65170 354
Width: 740
VWidth: 1639
GlyphClass: 2
Flags: HW
AnchorPoint: "GposMark2BaseAnchorClassErabAbove_01_02" 399 1182 basechar 0
AnchorPoint: "GposMark2BaseAnchorClassErabBelow_01_02" 399 -642 basechar 0
LayerCount: 2
Fore
SplineSet
387 1032 m 1,0,-1
 407 1025 l 1,1,-1
 409 1032 l 1,2,-1
 429 1025 l 1,3,-1
 430 1032 l 1,4,5
 463 1024 463 1024 636 959 c 0,6,7
 645 956 645 956 653 953 c 2,8,-1
 708 933 l 2,9,10
 726 927 726 927 729 923 c 1,11,12
 730 918 730 918 725 902 c 2,13,-1
 712 846 l 1,14,15
 734 845 734 845 740 835 c 0,16,17
 741 830 741 830 734 804 c 2,18,-1
 716 722 l 2,19,20
 705 674 705 674 684 579 c 0,21,22
 663 483 663 483 653 436 c 2,23,-1
 635 359 l 2,24,25
 629 330 629 330 629 328 c 0,26,27
 631 323 631 323 635 320.5 c 128,-1,28
 639 318 639 318 646.5 317.5 c 128,-1,29
 654 317 654 317 658.5 317 c 128,-1,30
 663 317 663 317 672 317 c 2,31,-1
 681 317 l 1,32,-1
 842 317 l 1,33,-1
 831 271 l 1,34,-1
 657 271 l 2,35,36
 594 271 594 271 581 276 c 0,37,38
 577 278 577 278 574 280 c 0,39,40
 543 304 543 304 570 405 c 0,41,42
 577 430 577 430 578 436 c 0,43,44
 590 489 590 489 613 595 c 0,45,46
 636 701 636 701 648 754 c 2,47,-1
 669 843 l 2,48,49
 676 875 676 875 675 877 c 0,50,51
 672 882 672 882 659 886 c 1,52,53
 646 891 646 891 611 902 c 1,54,55
 505 943 505 943 418 971 c 1,56,-1
 301 467 l 2,57,58
 281 383 281 383 271 341 c 0,59,60
 260 300 260 300 248 289 c 1,61,62
 224 271 224 271 177 271 c 2,63,-1
 33 271 l 1,64,-1
 44 317 l 1,65,66
 56 317 56 317 80 316 c 0,67,68
 138 314 138 314 166 318 c 0,69,70
 199 323 199 323 216 336 c 0,71,72
 226 346 226 346 238 387 c 0,73,74
 239 389 239 389 239 390 c 0,75,76
 246 414 246 414 271 520 c 0,77,78
 291 605 291 605 329 776 c 0,79,80
 367 947 367 947 387 1032 c 1,0,-1
448 93 m 1,81,-1
 463 79 l 1,82,-1
 470 93 l 1,83,-1
 485 79 l 1,84,-1
 491 93 l 1,85,86
 497 87 497 87 509 75 c 0,87,88
 541 41 541 41 564 31 c 0,89,90
 587 21 587 21 647 21 c 0,91,92
 668 21 668 21 710 22 c 0,93,94
 753 23 753 23 774 23 c 1,95,-1
 753 -67 l 1,96,97
 738 -67 738 -67 706 -69 c 0,98,99
 622 -73 622 -73 588 -62 c 0,100,101
 574 -58 574 -58 529 -26 c 0,102,103
 525 -23 525 -23 523 -21 c 0,104,105
 519 -17 519 -17 507 -13 c 0,106,107
 499 -10 499 -10 497 -8 c 1,108,109
 462 -65 462 -65 385 -67 c 0,110,111
 376 -67 376 -67 357 -67 c 0,112,113
 345 -67 345 -67 340 -67 c 0,114,115
 276 -67 276 -67 148 -66 c 0,116,117
 20 -65 20 -65 -44 -66 c 1,118,-1
 -24 23 l 1,119,120
 32 23 32 23 143 22 c 0,121,122
 255 21 255 21 310 21 c 0,123,124
 396 21 396 21 430 64 c 0,125,126
 440 77 440 77 448 93 c 1,81,-1
84 -136 m 1,127,-1
 408 -136 l 1,128,-1
 389 -225 l 1,129,-1
 419 -225 l 1,130,-1
 361 -492 l 1,131,-1
 78 -492 l 1,132,-1
 88 -449 l 1,133,-1
 14 -449 l 1,134,-1
 84 -136 l 1,127,-1
354 -182 m 1,135,-1
 118 -182 l 1,136,-1
 67 -403 l 1,137,-1
 306 -403 l 1,138,-1
 354 -182 l 1,135,-1
EndSplineSet
EndChar

StartChar: afii57417
Encoding: 1577 1577 355
AltUni2: 00fe93.ffffffff.0
Width: 895
VWidth: 1639
GlyphClass: 2
Flags: HW
AnchorPoint: "GposMark2BaseAnchorClassErabAbove_01_02" 480 1546 basechar 0
AnchorPoint: "GposMark2BaseAnchorClassErabBelow_01_02" 480 -221 basechar 0
LayerCount: 2
Fore
SplineSet
284 1396 m 1,0,-1
 595 1396 l 1,1,-1
 576 1307 l 1,2,-1
 607 1307 l 1,3,-1
 550 1048 l 1,4,-1
 280 1048 l 1,5,-1
 288 1091 l 1,6,-1
 215 1091 l 1,7,-1
 284 1396 l 1,0,-1
641 1396 m 1,8,-1
 954 1396 l 1,9,-1
 935 1307 l 1,10,-1
 965 1307 l 1,11,-1
 908 1048 l 1,12,-1
 637 1048 l 1,13,-1
 647 1091 l 1,14,-1
 572 1091 l 1,15,-1
 641 1396 l 1,8,-1
542 1350 m 1,16,-1
 316 1350 l 1,17,-1
 268 1137 l 1,18,-1
 496 1137 l 1,19,-1
 542 1350 l 1,16,-1
900 1350 m 1,20,-1
 675 1350 l 1,21,-1
 625 1137 l 1,22,-1
 854 1137 l 1,23,-1
 900 1350 l 1,20,-1
186 1032 m 1,24,-1
 630 1032 l 2,25,26
 646 1032 646 1032 680 1033 c 0,27,28
 813 1036 813 1036 866 1010 c 1,29,30
 930 976 930 976 946 900 c 0,31,32
 947 891 947 891 948 873 c 0,33,34
 949 849 949 849 951 838 c 0,35,36
 952 828 952 828 956 810 c 0,37,38
 961 784 961 784 962 771 c 0,39,40
 964 703 964 703 925 536 c 0,41,42
 922 525 922 525 920 518 c 2,43,-1
 861 259 l 2,44,45
 830 126 830 126 826 114 c 0,46,47
 795 23 795 23 738 -20 c 0,48,49
 669 -71 669 -71 532 -68 c 0,50,51
 525 -68 525 -68 512 -68 c 0,52,53
 486 -67 486 -67 474 -67 c 2,54,-1
 303 -67 l 2,55,56
 206 -67 206 -67 170 -56 c 0,57,58
 159 -52 159 -52 107 -17 c 0,59,60
 102 -14 102 -14 100 -11 c 0,61,62
 93 -6 93 -6 77 1 c 0,63,64
 58 11 58 11 50 18 c 0,65,66
 -5 69 -5 69 -3 174 c 0,67,68
 -1 223 -1 223 33 367 c 2,69,-1
 97 643 l 1,70,-1
 175 661 l 1,71,-1
 183 692 l 1,72,-1
 108 692 l 1,73,-1
 186 1032 l 1,24,-1
129 597 m 1,74,75
 123 570 123 570 109 516 c 0,76,77
 78 389 78 389 68 326 c 0,78,79
 52 241 52 241 50 218 c 0,80,81
 50 166 50 166 59 138 c 0,82,83
 68 110 68 110 80 90 c 0,84,85
 125 24 125 24 260 22 c 0,86,87
 275 22 275 22 299 21 c 2,88,-1
 435 21 l 2,89,90
 557 21 557 21 592 29 c 0,91,92
 644 41 644 41 684 69 c 0,93,94
 754 120 754 120 785 256 c 0,95,96
 788 267 788 267 793 288 c 0,97,98
 797 307 797 307 799 315 c 2,99,-1
 861 584 l 2,100,101
 894 730 894 730 896 776 c 0,102,103
 903 916 903 916 814 964 c 0,104,105
 766 989 766 989 638 986 c 0,106,107
 614 985 614 985 601 986 c 2,108,-1
 218 986 l 1,109,-1
 161 738 l 1,110,-1
 628 738 l 1,111,112
 616 684 616 684 591 575 c 0,113,114
 566 465 566 465 554 412 c 0,115,116
 536 336 536 336 530 321 c 0,117,118
 519 301 519 301 506 290 c 0,119,120
 488 277 488 277 450 274 c 0,121,122
 425 271 425 271 313 272 c 1,123,-1
 398 661 l 1,124,125
 359 653 359 653 282 632 c 0,126,127
 179 605 179 605 129 597 c 1,74,75
565 649 m 1,128,-1
 440 649 l 1,129,-1
 433 622 l 1,130,-1
 465 628 l 1,131,-1
 397 318 l 1,132,133
 458 319 458 319 481 341 c 1,134,135
 500 362 500 362 517 435 c 0,136,137
 525 471 525 471 541 542 c 0,138,139
 557 613 557 613 565 649 c 1,128,-1
EndSplineSet
AlternateSubs2: "gsub_alternate_dfl_aalt_arab_FAR_Lookup_01_Subtable_01" uniFE94 afii57417
Substitution2: "gsub_single_rtl_fina_arab_FAR_Lookup_01_Subtable_01" uniFE94
EndChar

StartChar: uniFE94
Encoding: 65172 65172 356
Width: 1032
VWidth: 1639
GlyphClass: 2
Flags: HW
AnchorPoint: "GposMark2BaseAnchorClassErabAbove_01_02" 581 1546 basechar 0
AnchorPoint: "GposMark2BaseAnchorClassErabBelow_01_02" 581 -217 basechar 0
LayerCount: 2
Fore
SplineSet
336 1396 m 1,0,-1
 648 1396 l 1,1,-1
 630 1307 l 1,2,-1
 660 1307 l 1,3,-1
 603 1048 l 1,4,-1
 332 1048 l 1,5,-1
 342 1091 l 1,6,-1
 267 1091 l 1,7,-1
 336 1396 l 1,0,-1
694 1396 m 1,8,-1
 1007 1396 l 1,9,-1
 986 1307 l 1,10,-1
 1018 1307 l 1,11,-1
 962 1048 l 1,12,-1
 690 1048 l 1,13,-1
 700 1091 l 1,14,-1
 625 1091 l 1,15,-1
 694 1396 l 1,8,-1
595 1350 m 1,16,-1
 368 1350 l 1,17,-1
 353 1278 l 1,18,-1
 320 1137 l 1,19,-1
 549 1137 l 1,20,-1
 595 1350 l 1,16,-1
954 1350 m 1,21,-1
 726 1350 l 1,22,-1
 679 1137 l 1,23,-1
 906 1137 l 1,24,-1
 954 1350 l 1,21,-1
483 -67 m 1,25,-1
 323 -67 l 2,26,27
 227 -67 227 -67 184 -52 c 0,28,29
 174 -49 174 -49 136 -19 c 0,30,31
 131 -15 131 -15 128 -13 c 0,32,33
 123 -10 123 -10 111 -6 c 0,34,35
 99 -1 99 -1 93 2 c 0,36,37
 64 21 64 21 48 62 c 1,38,39
 28 119 28 119 53 246 c 0,40,41
 60 283 60 283 62 297 c 0,42,43
 72 352 72 352 133 615 c 0,44,45
 138 637 138 637 147 681 c 0,46,47
 170 791 170 791 189 845 c 0,48,49
 243 994 243 994 348 1024 c 0,50,51
 354 1026 354 1026 359 1027 c 0,52,53
 394 1035 394 1035 504 1032 c 0,54,55
 514 1032 514 1032 522 1032 c 0,56,57
 547 1032 547 1032 599 1032 c 0,58,59
 755 1034 755 1034 828 1025 c 0,60,61
 936 1009 936 1009 968 938 c 0,62,63
 977 918 977 918 983 848 c 0,64,65
 983 845 l 0,66,67
 984 835 984 835 988 816 c 0,68,69
 994 784 994 784 995 768 c 0,70,71
 994 709 994 709 958 543 c 0,72,73
 956 536 956 536 955 530 c 0,74,75
 950 507 950 507 940 462 c 0,76,77
 930 416 930 416 925 394 c 0,78,79
 924 391 924 391 921 381 c 0,80,81
 912 350 912 350 916 343 c 0,82,83
 936 317 936 317 994 317 c 2,84,-1
 1134 317 l 1,85,-1
 1124 271 l 1,86,-1
 965 271 l 2,87,88
 894 272 894 272 871 287 c 0,89,90
 830 320 830 320 857 434 c 0,91,92
 858 439 858 439 861 450 c 0,93,94
 865 466 865 466 867 472 c 0,95,96
 902 625 902 625 916 700 c 0,97,98
 939 830 939 830 915 891 c 1,99,100
 882 964 882 964 773 979 c 0,101,102
 722 986 722 986 548 986 c 0,103,104
 534 986 534 986 505 987 c 0,105,106
 437 989 437 989 404 984 c 1,107,108
 374 977 374 977 354 968 c 0,109,110
 248 918 248 918 202 736 c 0,111,112
 195 710 195 710 185 660 c 0,113,114
 178 629 178 629 175 615 c 0,115,116
 154 526 154 526 152 508 c 0,117,118
 145 468 145 468 126 389 c 0,119,120
 95 260 95 260 91 198 c 0,121,122
 87 92 87 92 143 51 c 0,123,124
 173 30 173 30 251 23 c 2,125,-1
 252 23 l 2,126,127
 274 21 274 21 429 21 c 1,128,-1
 489 271 l 1,129,-1
 355 271 l 1,130,131
 369 333 369 333 395 458 c 0,132,133
 420 584 420 584 434 646 c 0,134,135
 454 733 454 733 466 755 c 0,136,137
 480 779 480 779 497 794 c 0,138,139
 518 809 518 809 553 815 c 0,140,141
 580 820 580 820 677 820 c 1,142,143
 675 812 675 812 599 443 c 0,144,145
 565 280 565 280 572 215 c 0,146,147
 579 146 579 146 615 102 c 1,148,149
 638 77 638 77 662 61 c 1,150,151
 729 22 729 22 871 21 c 0,152,153
 904 21 904 21 969 22 c 0,154,155
 1035 23 1035 23 1067 23 c 1,156,-1
 1046 -67 l 1,157,-1
 886 -67 l 2,158,159
 779 -67 779 -67 730 -52 c 0,160,161
 708 -45 708 -45 643 -3 c 0,162,163
 638 0 638 0 635 2 c 0,164,165
 567 41 567 41 546 79 c 0,166,167
 532 106 532 106 530 116 c 1,168,-1
 529 116 l 1,169,-1
 483 -67 l 1,25,-1
615 728 m 1,170,171
 575 720 575 720 555 707 c 0,172,173
 517 680 517 680 496 592 c 0,174,175
 485 546 485 546 468 454 c 0,176,177
 450 362 450 362 439 317 c 1,178,-1
 529 317 l 1,179,-1
 615 728 l 1,170,171
EndSplineSet
EndChar

StartChar: afii57418
Encoding: 1578 1578 357
AltUni2: 00fe95.ffffffff.0
Width: 1986
VWidth: 1639
GlyphClass: 2
Flags: HW
AnchorPoint: "GposMark2BaseAnchorClassErabAbove_01_02" 1033 1554 basechar 0
AnchorPoint: "GposMark2BaseAnchorClassErabBelow_01_02" 1033 -219 basechar 0
LayerCount: 2
Fore
SplineSet
865 1404 m 1,0,-1
 1187 1404 l 1,1,-1
 1168 1315 l 1,2,-1
 1199 1315 l 1,3,-1
 1140 1050 l 1,4,-1
 858 1050 l 1,5,-1
 868 1092 l 1,6,-1
 793 1092 l 1,7,-1
 865 1404 l 1,0,-1
1224 1404 m 1,8,-1
 1546 1404 l 1,9,-1
 1527 1315 l 1,10,-1
 1557 1315 l 1,11,-1
 1499 1050 l 1,12,-1
 1217 1050 l 1,13,-1
 1227 1092 l 1,14,-1
 1152 1092 l 1,15,-1
 1224 1404 l 1,8,-1
1134 1358 m 1,16,-1
 897 1358 l 1,17,-1
 847 1138 l 1,18,-1
 1086 1138 l 1,19,-1
 1134 1358 l 1,16,-1
1492 1358 m 1,20,-1
 1256 1358 l 1,21,-1
 1205 1138 l 1,22,-1
 1445 1138 l 1,23,-1
 1492 1358 l 1,20,-1
560 1032 m 1,24,-1
 560 1025 l 1,25,-1
 583 1032 l 1,26,-1
 581 1025 l 1,27,-1
 604 1032 l 1,28,-1
 583 933 l 1,29,-1
 616 943 l 1,30,31
 599 868 599 868 566 717 c 0,32,33
 534 566 534 566 517 490 c 0,34,35
 498 409 498 409 491 371 c 0,36,37
 484 336 484 336 486 330 c 0,38,39
 488 325 488 325 493 322.5 c 128,-1,40
 498 320 498 320 506 318.5 c 128,-1,41
 514 317 514 317 518.5 317 c 128,-1,42
 523 317 523 317 533 317 c 2,43,-1
 544 317 l 1,44,-1
 707 317 l 1,45,-1
 1296 317 l 1,46,-1
 1433 317 l 2,47,48
 1484 318 1484 318 1507 339 c 1,49,50
 1525 359 1525 359 1535 402 c 0,51,52
 1537 402 1537 402 1551 465 c 2,53,-1
 1565 528 l 1,54,-1
 1681 1032 l 1,55,-1
 1701 1025 l 1,56,-1
 1702 1032 l 1,57,-1
 1722 1025 l 1,58,-1
 1723 1032 l 1,59,60
 1846 987 1846 987 1941 954 c 0,61,62
 1981 941 1981 941 2000 933 c 0,63,64
 2018 927 2018 927 2020 923 c 1,65,66
 2021 918 2021 918 2017 904 c 2,67,-1
 2006 853 l 1,68,69
 2007 846 2007 846 2024 841 c 0,70,71
 2032 837 2032 837 2033 833 c 1,72,73
 2032 825 2032 825 2019 774 c 0,74,75
 2014 754 2014 754 2007 716 c 0,76,77
 1999 677 1999 677 1994 658 c 0,78,79
 1981 602 1981 602 1956 490.5 c 128,-1,80
 1931 379 1931 379 1918 323 c 0,81,82
 1885 182 1885 182 1872 147 c 0,83,84
 1868 136 1868 136 1864 128 c 0,85,86
 1812 10 1812 10 1713 -41 c 0,87,88
 1689 -53 1689 -53 1667 -59 c 1,89,90
 1616 -69 1616 -69 1509 -67 c 1,91,-1
 1240 -67 l 1,92,-1
 550 -67 l 1,93,-1
 366 -67 l 2,94,95
 266 -67 266 -67 238 -59 c 0,96,97
 210 -50 210 -50 153 -11 c 0,98,99
 147 -8 147 -8 134 -2 c 0,100,101
 116 6 116 6 109 11 c 0,102,103
 33 72 33 72 56 225 c 0,104,105
 71 320 71 320 145 619 c 0,106,107
 157 666 157 666 165 700 c 0,108,109
 171 727 171 727 184 782 c 0,110,111
 198 837 198 837 204 864 c 2,112,-1
 214 907 l 2,113,114
 218 922 218 922 219 923 c 0,115,116
 224 929 224 929 243 933 c 2,117,-1
 307 953 l 2,118,119
 342 965 342 965 412 985 c 0,120,121
 512 1014 512 1014 560 1032 c 1,24,-1
547 971 m 1,122,123
 516 965 516 965 367 915 c 0,124,125
 347 908 347 908 330 904 c 0,126,127
 297 895 297 895 273 887 c 0,128,129
 271 886 271 886 265 885 c 0,130,131
 254 881 254 881 251 877 c 0,132,133
 245 867 245 867 237 823 c 0,134,135
 231 798 231 798 219 749 c 0,136,137
 207 698 207 698 201 674 c 2,138,-1
 155 474 l 1,139,140
 112 316 112 316 105 238 c 1,141,142
 98 105 98 105 164 57 c 1,143,144
 221 21 221 21 348 21 c 2,145,-1
 572 21 l 1,146,-1
 1245 21 l 1,147,-1
 1463 21 l 2,148,149
 1573 21 1573 21 1585 23 c 0,150,151
 1625 32 1625 32 1654 44 c 1,152,153
 1790 111 1790 111 1846 323 c 0,154,155
 1857 365 1857 365 1873 449 c 0,156,157
 1882 496 1882 496 1887 517 c 2,158,-1
 1917 646 l 2,159,160
 1923 674 1923 674 1935 730 c 0,161,162
 1947 786 1947 786 1954 813 c 2,163,-1
 1964 859 l 2,164,165
 1967 875 1967 875 1967 877 c 0,166,167
 1965 881 1965 881 1951 886 c 0,168,169
 1943 889 1943 889 1927 895 c 0,170,171
 1910 901 1910 901 1903 904 c 0,172,173
 1829 929 1829 929 1773 950 c 0,174,175
 1765 952 1765 952 1749 958 c 0,176,177
 1722 968 1722 968 1709 971 c 1,178,179
 1690 889 1690 889 1653 724 c 128,-1,180
 1616 559 1616 559 1597 477 c 0,181,182
 1578 396 1578 396 1567 356 c 0,183,184
 1556 312 1556 312 1539 294 c 1,185,186
 1514 271 1514 271 1458 271 c 2,187,-1
 1287 271 l 1,188,-1
 639 271 l 1,189,-1
 491 271 l 2,190,191
 433 273 433 273 419 297 c 0,192,193
 406 322 406 322 421 384 c 0,194,195
 425 402 425 402 432 437 c 0,196,197
 440 473 440 473 444 490 c 0,198,199
 463 570 463 570 496 731 c 0,200,201
 529 891 529 891 547 971 c 1,122,123
EndSplineSet
AlternateSubs2: "gsub_alternate_dfl_aalt_arab_FAR_Lookup_01_Subtable_01" uniFE96 uniFE97 afii57418 uniFE98
Substitution2: "gsub_single_rtl_fina_arab_FAR_Lookup_01_Subtable_01" uniFE96
Substitution2: "gsub_single_rtl_init_arab_FAR_Lookup_01_Subtable_01" uniFE97
Substitution2: "gsub_single_rtl_medi_arab_FAR_Lookup_01_Subtable_01" uniFE98
EndChar

StartChar: uniFE96
Encoding: 65174 65174 358
Width: 2016
VWidth: 1639
GlyphClass: 2
Flags: HW
AnchorPoint: "GposMark2BaseAnchorClassErabAbove_01_02" 1075.5 1554 basechar 0
AnchorPoint: "GposMark2BaseAnchorClassErabBelow_01_02" 1075.5 -222 basechar 0
LayerCount: 2
Fore
SplineSet
861 1404 m 1,0,-1
 1183 1404 l 1,1,-1
 1164 1315 l 1,2,-1
 1194 1315 l 1,3,-1
 1136 1050 l 1,4,-1
 854 1050 l 1,5,-1
 864 1092 l 1,6,-1
 789 1092 l 1,7,-1
 861 1404 l 1,0,-1
1219 1404 m 1,8,-1
 1541 1404 l 1,9,-1
 1522 1315 l 1,10,-1
 1553 1315 l 1,11,-1
 1495 1050 l 1,12,-1
 1212 1050 l 1,13,-1
 1222 1092 l 1,14,-1
 1147 1092 l 1,15,-1
 1219 1404 l 1,8,-1
1129 1358 m 1,16,-1
 893 1358 l 1,17,-1
 842 1138 l 1,18,-1
 1082 1138 l 1,19,-1
 1129 1358 l 1,16,-1
1488 1358 m 1,20,-1
 1252 1358 l 1,21,-1
 1201 1138 l 1,22,-1
 1440 1138 l 1,23,-1
 1488 1358 l 1,20,-1
558 1032 m 1,24,-1
 558 1025 l 1,25,-1
 581 1032 l 1,26,-1
 580 1025 l 1,27,-1
 603 1032 l 1,28,-1
 581 933 l 1,29,-1
 614 943 l 1,30,31
 613 937 613 937 561 690 c 0,32,33
 555 664 555 664 543 612 c 0,34,35
 523 524 523 524 515 481 c 0,36,37
 512 463 512 463 503 426 c 0,38,39
 494 389 494 389 491 371 c 0,40,41
 483 335 483 335 483 333 c 0,42,43
 484 330 484 330 485 330 c 0,44,45
 487 325 487 325 491.5 322.5 c 128,-1,46
 496 320 496 320 504 318.5 c 128,-1,47
 512 317 512 317 516.5 317 c 128,-1,48
 521 317 521 317 532 317 c 2,49,-1
 543 317 l 1,50,-1
 706 317 l 1,51,-1
 1295 317 l 1,52,-1
 1432 317 l 2,53,54
 1483 318 1483 318 1506 339 c 0,55,56
 1520 353 1520 353 1533 397 c 0,57,58
 1540 421 1540 421 1564 526 c 0,59,60
 1583 610 1583 610 1621.5 778.5 c 128,-1,61
 1660 947 1660 947 1679 1032 c 1,62,-1
 1699 1025 l 1,63,-1
 1701 1032 l 1,64,-1
 1721 1025 l 1,65,-1
 1722 1032 l 1,66,-1
 1939 954 l 1,67,-1
 1998 933 l 1,68,-1
 2019 923 l 1,69,-1
 2015 900 l 1,70,-1
 2004 846 l 1,71,72
 2028 840 2028 840 2031 835 c 0,73,74
 2032 830 2032 830 2025 805 c 1,75,76
 2020 776 2020 776 2007 720 c 0,77,78
 1996 673 1996 673 1975.5 580.5 c 128,-1,79
 1955 488 1955 488 1944 441 c 2,80,-1
 1926 364 l 2,81,82
 1920 333 1920 333 1920 331 c 0,83,84
 1921 328 1921 328 1922.5 326.5 c 128,-1,85
 1924 325 1924 325 1926.5 323 c 128,-1,86
 1929 321 1929 321 1932 320.5 c 128,-1,87
 1935 320 1935 320 1938.5 319 c 128,-1,88
 1942 318 1942 318 1944 317.5 c 128,-1,89
 1946 317 1946 317 1950.5 317 c 128,-1,90
 1955 317 1955 317 1957.5 317 c 128,-1,91
 1960 317 1960 317 1964 317 c 2,92,-1
 1969 317 l 1,93,-1
 2118 317 l 1,94,-1
 2108 271 l 1,95,-1
 1948 271 l 2,96,97
 1889 271 1889 271 1877 276 c 0,98,99
 1872 278 1872 278 1869 280 c 0,100,101
 1834 304 1834 304 1861 407 c 0,102,103
 1867 432 1867 432 1869 438 c 0,104,105
 1881 491 1881 491 1904.5 597 c 128,-1,106
 1928 703 1928 703 1941 756 c 0,107,108
 1955 817 1955 817 1960 846 c 0,109,110
 1966 875 1966 875 1966 877 c 0,111,112
 1964 880 1964 880 1951 885 c 0,113,114
 1951 886 1951 886 1949 886 c 2,115,-1
 1948 886 l 1,116,117
 1910 901 1910 901 1899 904 c 0,118,119
 1874 912 1874 912 1824 931 c 0,120,121
 1747 960 1747 960 1708 971 c 1,122,123
 1689 888 1689 888 1652 723 c 0,124,125
 1615 558 1615 558 1595 476 c 0,126,127
 1570 370 1570 370 1565 349 c 0,128,129
 1550 304 1550 304 1538 292 c 0,130,131
 1513 271 1513 271 1458 271 c 2,132,-1
 1286 271 l 1,133,-1
 637 271 l 1,134,-1
 488 271 l 2,135,136
 430 273 430 273 416 297 c 1,137,138
 405 322 405 322 418 379 c 0,139,140
 422 397 422 397 430 434 c 0,141,142
 438 471 438 471 442 489 c 0,143,144
 461 569 461 569 494 730 c 0,145,146
 527 891 527 891 546 971 c 1,147,148
 494 954 494 954 333 905 c 0,149,150
 293 892 293 892 273 887 c 0,151,152
 271 886 271 886 265 885 c 0,153,154
 254 881 254 881 251 877 c 0,155,156
 246 871 246 871 237 827 c 2,157,-1
 203 679 l 2,158,159
 165 516 165 516 145 436 c 0,160,161
 117 329 117 329 110 277 c 0,162,163
 92 131 92 131 148 72 c 1,164,165
 210 22 210 22 337 21 c 2,166,-1
 508 21 l 1,167,-1
 1399 21 l 1,168,-1
 1614 21 l 2,169,170
 1622 21 1622 21 1640 20 c 0,171,172
 1696 18 1696 18 1720 26 c 1,173,174
 1756 43 1756 43 1789 92 c 1,175,-1
 1792 67 l 1,176,-1
 1795 67 l 1,177,-1
 1810 92 l 1,178,-1
 1814 67 l 1,179,-1
 1817 67 l 1,180,-1
 1832 92 l 1,181,182
 1834 86 1834 86 1837 73 c 0,183,184
 1844 48 1844 48 1854 38 c 0,185,186
 1873 21 1873 21 1925 21 c 0,187,188
 1946 21 1946 21 1988 22 c 0,189,190
 2031 23 2031 23 2051 23 c 1,191,-1
 2030 -67 l 1,192,193
 2017 -67 2017 -67 1988 -69 c 0,194,195
 1915 -72 1915 -72 1886 -64 c 1,196,197
 1871 -58 1871 -58 1859 -46 c 0,198,199
 1838 -25 1838 -25 1831 -23 c 1,200,201
 1823 -27 1823 -27 1802 -48 c 1,202,203
 1777 -65 1777 -65 1751 -67 c 0,204,205
 1751 -69 1751 -69 1696 -68 c 2,206,-1
 1641 -67 l 1,207,-1
 1424 -67 l 1,208,-1
 768 -67 l 1,209,-1
 410 -67 l 2,210,211
 282 -67 282 -67 264 -65 c 0,212,213
 231 -60 231 -60 207 -49 c 0,214,215
 197 -44 197 -44 151 -11 c 0,216,217
 143 -6 143 -6 129 3 c 0,218,219
 82 32 82 32 68 62 c 0,220,221
 33 141 33 141 72 312 c 0,222,223
 85 368 85 368 112 480 c 0,224,225
 139 593 139 593 151 648 c 0,226,227
 159 682 159 682 175 749 c 0,228,229
 191 817 191 817 199 850 c 2,230,-1
 212 904 l 2,231,232
 217 922 217 922 218 923 c 0,233,234
 223 929 223 929 241 933 c 2,235,-1
 305 953 l 2,236,237
 333 962 333 962 390 979 c 0,238,239
 447 996 447 996 475 1005 c 0,240,241
 547 1027 547 1027 558 1032 c 1,24,-1
EndSplineSet
EndChar

StartChar: uniFE97
Encoding: 65175 65175 359
Width: 762
VWidth: 1639
GlyphClass: 2
Flags: HW
AnchorPoint: "GposMark2BaseAnchorClassErabAbove_01_02" 459 1554 basechar 0
AnchorPoint: "GposMark2BaseAnchorClassErabBelow_01_02" 459 -217 basechar 0
LayerCount: 2
Fore
SplineSet
258 1404 m 1,0,-1
 581 1404 l 1,1,-1
 562 1315 l 1,2,-1
 593 1315 l 1,3,-1
 534 1050 l 1,4,-1
 252 1050 l 1,5,-1
 262 1092 l 1,6,-1
 187 1092 l 1,7,-1
 258 1404 l 1,0,-1
616 1404 m 1,8,-1
 939 1404 l 1,9,-1
 921 1315 l 1,10,-1
 951 1315 l 1,11,-1
 893 1050 l 1,12,-1
 611 1050 l 1,13,-1
 620 1092 l 1,14,-1
 546 1092 l 1,15,-1
 616 1404 l 1,8,-1
528 1358 m 1,16,-1
 290 1358 l 1,17,-1
 241 1138 l 1,18,-1
 478 1138 l 1,19,-1
 528 1358 l 1,16,-1
886 1358 m 1,20,-1
 648 1358 l 1,21,-1
 599 1138 l 1,22,-1
 837 1138 l 1,23,-1
 886 1358 l 1,20,-1
431 1032 m 1,24,-1
 451 1025 l 1,25,-1
 452 1032 l 1,26,-1
 472 1025 l 1,27,-1
 474 1032 l 1,28,29
 507 1024 507 1024 680 959 c 0,30,31
 689 956 689 956 697 953 c 2,32,-1
 751 933 l 2,33,34
 769 927 769 927 772 923 c 0,35,36
 773 921 773 921 772.5 918 c 128,-1,37
 772 915 772 915 771 910 c 2,38,-1
 769 905 l 1,39,-1
 761 868 l 1,40,-1
 757 850 l 1,41,42
 758 847 758 847 776 841 c 0,43,44
 782 838 782 838 784 835 c 0,45,46
 784 831 784 831 773 787 c 0,47,48
 768 767 768 767 757.5 725 c 128,-1,49
 747 683 747 683 742 663 c 0,50,51
 689 435 689 435 659 321 c 0,52,53
 654 303 654 303 647 269 c 0,54,55
 637 223 637 223 629 200 c 0,56,57
 625 185 625 185 618 155 c 0,58,59
 591 46 591 46 552 4 c 0,60,61
 542 -7 542 -7 533 -15 c 0,62,63
 468 -67 468 -67 341 -67 c 0,64,65
 334 -67 334 -67 324 -67 c 0,66,67
 265 -67 265 -67 145 -66 c 0,68,69
 26 -65 26 -65 -33 -66 c 1,70,-1
 -12 23 l 1,71,72
 35 23 35 23 130 22 c 0,73,74
 226 21 226 21 273 21 c 0,75,76
 391 21 391 21 447 54 c 0,77,78
 455 59 455 59 460 62 c 0,79,80
 527 108 527 108 559 227 c 0,81,82
 562 237 562 237 567 258 c 0,83,84
 572 279 572 279 575 289 c 0,85,86
 588 338 588 338 611 435 c 0,87,88
 626 501 626 501 635 533 c 0,89,90
 680 708 680 708 720 881 c 1,91,-1
 649 905 l 1,92,-1
 460 971 l 1,93,94
 441 888 441 888 402 718 c 0,95,96
 364 549 364 549 344 464 c 0,97,98
 339 444 339 444 329 403 c 0,99,100
 319 362 319 362 315 343 c 0,101,102
 304 301 304 301 290 287 c 0,103,104
 286 284 286 284 282.5 281.5 c 128,-1,105
 279 279 279 279 274 277.5 c 128,-1,106
 269 276 269 276 265 275 c 128,-1,107
 261 274 261 274 254.5 273 c 128,-1,108
 248 272 248 272 245.5 271.5 c 128,-1,109
 243 271 243 271 236 271 c 128,-1,110
 229 271 229 271 227.5 271 c 128,-1,111
 226 271 226 271 219 271 c 2,112,-1
 211 271 l 1,113,-1
 45 271 l 1,114,-1
 55 317 l 1,115,-1
 188 317 l 2,116,117
 235 318 235 318 258 335 c 1,118,119
 274 351 274 351 283 392 c 0,120,121
 288 412 288 412 298 454 c 0,122,123
 309 496 309 496 314 517 c 0,124,125
 334 603 334 603 372 774 c 0,126,127
 411 946 411 946 431 1032 c 1,24,-1
EndSplineSet
EndChar

StartChar: uniFE98
Encoding: 65176 65176 360
Width: 751
VWidth: 1639
GlyphClass: 2
Flags: HW
AnchorPoint: "GposMark2BaseAnchorClassErabAbove_01_02" 459 1554 basechar 0
AnchorPoint: "GposMark2BaseAnchorClassErabBelow_01_02" 459 -223 basechar 0
LayerCount: 2
Fore
SplineSet
258 1404 m 1,0,-1
 581 1404 l 1,1,-1
 562 1315 l 1,2,-1
 593 1315 l 1,3,-1
 534 1050 l 1,4,-1
 252 1050 l 1,5,-1
 262 1092 l 1,6,-1
 187 1092 l 1,7,-1
 258 1404 l 1,0,-1
616 1404 m 1,8,-1
 939 1404 l 1,9,-1
 921 1315 l 1,10,-1
 951 1315 l 1,11,-1
 893 1050 l 1,12,-1
 611 1050 l 1,13,-1
 620 1092 l 1,14,-1
 546 1092 l 1,15,-1
 616 1404 l 1,8,-1
528 1358 m 1,16,-1
 290 1358 l 1,17,-1
 241 1138 l 1,18,-1
 478 1138 l 1,19,-1
 528 1358 l 1,16,-1
886 1358 m 1,20,-1
 648 1358 l 1,21,-1
 599 1138 l 1,22,-1
 837 1138 l 1,23,-1
 886 1358 l 1,20,-1
399 1032 m 1,24,-1
 419 1025 l 1,25,-1
 420 1032 l 1,26,-1
 440 1025 l 1,27,-1
 442 1032 l 1,28,29
 475 1024 475 1024 648 959 c 0,30,31
 657 956 657 956 664 953 c 2,32,-1
 719 933 l 2,33,34
 737 927 737 927 740 923 c 1,35,36
 741 918 741 918 737 902 c 2,37,-1
 724 846 l 1,38,39
 746 845 746 845 752 835 c 0,40,41
 753 830 753 830 746 804 c 2,42,-1
 727 722 l 2,43,44
 716 674 716 674 696 579 c 0,45,46
 675 483 675 483 664 436 c 2,47,-1
 646 359 l 2,48,49
 640 330 640 330 641 328 c 0,50,51
 643 323 643 323 647 320.5 c 128,-1,52
 651 318 651 318 658.5 317.5 c 128,-1,53
 666 317 666 317 670.5 317 c 128,-1,54
 675 317 675 317 684 317 c 2,55,-1
 693 317 l 1,56,-1
 853 317 l 1,57,-1
 843 271 l 1,58,-1
 669 271 l 2,59,60
 606 271 606 271 593 276 c 0,61,62
 589 278 589 278 586 280 c 0,63,64
 555 304 555 304 581 405 c 0,65,66
 588 430 588 430 589 436 c 0,67,68
 601 489 601 489 625 595 c 0,69,70
 648 701 648 701 660 754 c 2,71,-1
 680 843 l 2,72,73
 687 875 687 875 687 877 c 0,74,75
 684 882 684 882 670 886 c 1,76,77
 657 891 657 891 622 902 c 1,78,79
 516 943 516 943 429 971 c 1,80,-1
 313 467 l 2,81,82
 293 383 293 383 282 341 c 0,83,84
 271 300 271 300 259 289 c 1,85,86
 235 271 235 271 188 271 c 2,87,-1
 45 271 l 1,88,-1
 55 317 l 1,89,90
 67 317 67 317 91 316 c 0,91,92
 149 314 149 314 178 318 c 0,93,94
 211 323 211 323 228 336 c 0,95,96
 238 346 238 346 250 387 c 0,97,98
 251 389 251 389 251 390 c 0,99,100
 258 414 258 414 282 520 c 0,101,102
 302 605 302 605 341 776 c 0,103,104
 379 947 379 947 399 1032 c 1,24,-1
460 93 m 1,105,-1
 475 79 l 1,106,-1
 481 93 l 1,107,-1
 496 79 l 1,108,-1
 503 93 l 1,109,110
 509 87 509 87 521 75 c 0,111,112
 553 41 553 41 575 31 c 0,113,114
 598 21 598 21 658 21 c 0,115,116
 679 21 679 21 722 22 c 0,117,118
 765 23 765 23 785 23 c 1,119,-1
 765 -67 l 1,120,121
 750 -67 750 -67 718 -69 c 0,122,123
 634 -73 634 -73 599 -62 c 0,124,125
 585 -58 585 -58 541 -26 c 0,126,127
 537 -23 537 -23 534 -21 c 0,128,129
 530 -17 530 -17 519 -13 c 0,130,131
 511 -10 511 -10 508 -8 c 1,132,133
 473 -65 473 -65 396 -67 c 0,134,135
 387 -67 387 -67 368 -67 c 0,136,137
 356 -67 356 -67 351 -67 c 0,138,139
 287 -67 287 -67 159 -66 c 0,140,141
 31 -65 31 -65 -33 -66 c 1,142,-1
 -12 23 l 1,143,144
 44 23 44 23 154 22 c 0,145,146
 266 21 266 21 321 21 c 0,147,148
 407 21 407 21 442 64 c 0,149,150
 452 77 452 77 460 93 c 1,105,-1
EndSplineSet
EndChar

StartChar: afii57419
Encoding: 1579 1579 361
AltUni2: 00fe99.ffffffff.0
Width: 1986
VWidth: 1639
GlyphClass: 2
Flags: HW
AnchorPoint: "GposMark2BaseAnchorClassErabAbove_01_02" 1033 1897 basechar 0
AnchorPoint: "GposMark2BaseAnchorClassErabBelow_01_02" 1033 -219 basechar 0
LayerCount: 2
Fore
SplineSet
1131 1747 m 1,0,-1
 1454 1747 l 1,1,-1
 1433 1658 l 1,2,-1
 1465 1658 l 1,3,-1
 1408 1404 l 1,4,-1
 1585 1404 l 1,5,-1
 1565 1315 l 1,6,-1
 1597 1315 l 1,7,-1
 1537 1050 l 1,8,-1
 1256 1050 l 1,9,-1
 1264 1089 l 1,10,-1
 1245 1092 l 1,11,-1
 1191 1092 l 1,12,-1
 1259 1392 l 1,13,-1
 1212 1392 l 1,14,-1
 1196 1315 l 1,15,-1
 1226 1315 l 1,16,-1
 1168 1050 l 1,17,-1
 886 1050 l 1,18,-1
 896 1092 l 1,19,-1
 821 1092 l 1,20,-1
 893 1404 l 1,21,-1
 1128 1404 l 1,22,-1
 1135 1435 l 1,23,-1
 1060 1435 l 1,24,-1
 1131 1747 l 1,0,-1
1401 1701 m 1,25,-1
 1163 1701 l 1,26,-1
 1113 1481 l 1,27,-1
 1351 1481 l 1,28,-1
 1401 1701 l 1,25,-1
1161 1358 m 1,29,-1
 925 1358 l 1,30,-1
 874 1138 l 1,31,-1
 1114 1138 l 1,32,-1
 1161 1358 l 1,29,-1
1532 1358 m 1,33,-1
 1294 1358 l 1,34,-1
 1245 1138 l 1,35,-1
 1483 1138 l 1,36,-1
 1532 1358 l 1,33,-1
560 1032 m 1,37,-1
 560 1025 l 1,38,-1
 583 1032 l 1,39,-1
 581 1025 l 1,40,-1
 604 1032 l 1,41,-1
 583 933 l 1,42,-1
 616 943 l 1,43,44
 599 868 599 868 566 717 c 0,45,46
 534 566 534 566 517 490 c 0,47,48
 498 409 498 409 491 371 c 0,49,50
 484 336 484 336 486 330 c 0,51,52
 488 325 488 325 493 322.5 c 128,-1,53
 498 320 498 320 506 318.5 c 128,-1,54
 514 317 514 317 518.5 317 c 128,-1,55
 523 317 523 317 533 317 c 2,56,-1
 544 317 l 1,57,-1
 707 317 l 1,58,-1
 1296 317 l 1,59,-1
 1433 317 l 2,60,61
 1484 318 1484 318 1507 339 c 1,62,63
 1525 359 1525 359 1535 402 c 0,64,65
 1537 402 1537 402 1551 465 c 2,66,-1
 1565 528 l 1,67,-1
 1681 1032 l 1,68,-1
 1701 1025 l 1,69,-1
 1702 1032 l 1,70,-1
 1722 1025 l 1,71,-1
 1723 1032 l 1,72,73
 1846 987 1846 987 1941 954 c 0,74,75
 1981 941 1981 941 2000 933 c 0,76,77
 2018 927 2018 927 2020 923 c 1,78,79
 2021 918 2021 918 2017 904 c 2,80,-1
 2006 853 l 1,81,82
 2007 846 2007 846 2024 841 c 0,83,84
 2032 837 2032 837 2033 833 c 1,85,86
 2032 825 2032 825 2019 774 c 0,87,88
 2014 754 2014 754 2007 716 c 0,89,90
 1999 677 1999 677 1994 658 c 0,91,92
 1981 602 1981 602 1956 490.5 c 128,-1,93
 1931 379 1931 379 1918 323 c 0,94,95
 1885 182 1885 182 1872 147 c 0,96,97
 1868 136 1868 136 1864 128 c 0,98,99
 1812 10 1812 10 1713 -41 c 0,100,101
 1689 -53 1689 -53 1667 -59 c 1,102,103
 1616 -69 1616 -69 1509 -67 c 1,104,-1
 1240 -67 l 1,105,-1
 550 -67 l 1,106,-1
 366 -67 l 2,107,108
 266 -67 266 -67 238 -59 c 0,109,110
 210 -50 210 -50 153 -11 c 0,111,112
 147 -8 147 -8 134 -2 c 0,113,114
 116 6 116 6 109 11 c 0,115,116
 33 72 33 72 56 225 c 0,117,118
 71 320 71 320 145 619 c 0,119,120
 157 666 157 666 165 700 c 0,121,122
 171 727 171 727 184 782 c 0,123,124
 198 837 198 837 204 864 c 2,125,-1
 214 907 l 2,126,127
 218 922 218 922 219 923 c 0,128,129
 224 929 224 929 243 933 c 2,130,-1
 307 953 l 2,131,132
 342 965 342 965 412 985 c 0,133,134
 512 1014 512 1014 560 1032 c 1,37,-1
547 971 m 1,135,136
 516 965 516 965 367 915 c 0,137,138
 347 908 347 908 330 904 c 0,139,140
 297 895 297 895 273 887 c 0,141,142
 271 886 271 886 265 885 c 0,143,144
 254 881 254 881 251 877 c 0,145,146
 245 867 245 867 237 823 c 0,147,148
 231 798 231 798 219 749 c 0,149,150
 207 698 207 698 201 674 c 2,151,-1
 155 474 l 1,152,153
 112 316 112 316 105 238 c 1,154,155
 98 105 98 105 164 57 c 1,156,157
 221 21 221 21 348 21 c 2,158,-1
 572 21 l 1,159,-1
 1245 21 l 1,160,-1
 1463 21 l 2,161,162
 1573 21 1573 21 1585 23 c 0,163,164
 1625 32 1625 32 1654 44 c 1,165,166
 1790 111 1790 111 1846 323 c 0,167,168
 1857 365 1857 365 1873 449 c 0,169,170
 1882 496 1882 496 1887 517 c 2,171,-1
 1917 646 l 2,172,173
 1923 674 1923 674 1935 730 c 0,174,175
 1947 786 1947 786 1954 813 c 2,176,-1
 1964 859 l 2,177,178
 1967 875 1967 875 1967 877 c 0,179,180
 1965 881 1965 881 1951 886 c 0,181,182
 1943 889 1943 889 1927 895 c 0,183,184
 1910 901 1910 901 1903 904 c 0,185,186
 1829 929 1829 929 1773 950 c 0,187,188
 1765 952 1765 952 1749 958 c 0,189,190
 1722 968 1722 968 1709 971 c 1,191,192
 1690 889 1690 889 1653 724 c 128,-1,193
 1616 559 1616 559 1597 477 c 0,194,195
 1578 396 1578 396 1567 356 c 0,196,197
 1556 312 1556 312 1539 294 c 1,198,199
 1514 271 1514 271 1458 271 c 2,200,-1
 1287 271 l 1,201,-1
 639 271 l 1,202,-1
 491 271 l 2,203,204
 433 273 433 273 419 297 c 0,205,206
 406 322 406 322 421 384 c 0,207,208
 425 402 425 402 432 437 c 0,209,210
 440 473 440 473 444 490 c 0,211,212
 463 570 463 570 496 731 c 0,213,214
 529 891 529 891 547 971 c 1,135,136
EndSplineSet
AlternateSubs2: "gsub_alternate_dfl_aalt_arab_FAR_Lookup_01_Subtable_01" uniFE9A uniFE9B afii57419 uniFE9C
Substitution2: "gsub_single_rtl_fina_arab_FAR_Lookup_01_Subtable_01" uniFE9A
Substitution2: "gsub_single_rtl_init_arab_FAR_Lookup_01_Subtable_01" uniFE9B
Substitution2: "gsub_single_rtl_medi_arab_FAR_Lookup_01_Subtable_01" uniFE9C
EndChar

StartChar: uniFE9A
Encoding: 65178 65178 362
Width: 2016
VWidth: 1639
GlyphClass: 2
Flags: HW
AnchorPoint: "GposMark2BaseAnchorClassErabAbove_01_02" 1075.5 1897 basechar 0
AnchorPoint: "GposMark2BaseAnchorClassErabBelow_01_02" 1075.5 -222 basechar 0
LayerCount: 2
Fore
SplineSet
1126 1747 m 1,0,-1
 1450 1747 l 1,1,-1
 1429 1658 l 1,2,-1
 1461 1658 l 1,3,-1
 1404 1404 l 1,4,-1
 1581 1404 l 1,5,-1
 1560 1315 l 1,6,-1
 1592 1315 l 1,7,-1
 1533 1050 l 1,8,-1
 1252 1050 l 1,9,-1
 1260 1089 l 1,10,-1
 1240 1092 l 1,11,-1
 1187 1092 l 1,12,-1
 1255 1392 l 1,13,-1
 1208 1392 l 1,14,-1
 1191 1315 l 1,15,-1
 1222 1315 l 1,16,-1
 1164 1050 l 1,17,-1
 881 1050 l 1,18,-1
 891 1092 l 1,19,-1
 816 1092 l 1,20,-1
 888 1404 l 1,21,-1
 1123 1404 l 1,22,-1
 1131 1435 l 1,23,-1
 1056 1435 l 1,24,-1
 1126 1747 l 1,0,-1
1396 1701 m 1,25,-1
 1158 1701 l 1,26,-1
 1109 1481 l 1,27,-1
 1347 1481 l 1,28,-1
 1396 1701 l 1,25,-1
1157 1358 m 1,29,-1
 921 1358 l 1,30,-1
 870 1138 l 1,31,-1
 1109 1138 l 1,32,-1
 1157 1358 l 1,29,-1
1528 1358 m 1,33,-1
 1290 1358 l 1,34,-1
 1240 1138 l 1,35,-1
 1478 1138 l 1,36,-1
 1528 1358 l 1,33,-1
558 1032 m 1,37,-1
 558 1025 l 1,38,-1
 581 1032 l 1,39,-1
 580 1025 l 1,40,-1
 603 1032 l 1,41,-1
 581 933 l 1,42,-1
 614 943 l 1,43,44
 613 937 613 937 561 690 c 0,45,46
 555 664 555 664 543 612 c 0,47,48
 523 524 523 524 515 481 c 0,49,50
 512 463 512 463 503 426 c 0,51,52
 494 389 494 389 491 371 c 0,53,54
 483 335 483 335 483 333 c 0,55,56
 484 330 484 330 485 330 c 0,57,58
 487 325 487 325 491.5 322.5 c 128,-1,59
 496 320 496 320 504 318.5 c 128,-1,60
 512 317 512 317 516.5 317 c 128,-1,61
 521 317 521 317 532 317 c 2,62,-1
 543 317 l 1,63,-1
 706 317 l 1,64,-1
 1295 317 l 1,65,-1
 1432 317 l 2,66,67
 1483 318 1483 318 1506 339 c 0,68,69
 1520 353 1520 353 1533 397 c 0,70,71
 1540 421 1540 421 1564 526 c 0,72,73
 1583 610 1583 610 1621.5 778.5 c 128,-1,74
 1660 947 1660 947 1679 1032 c 1,75,-1
 1699 1025 l 1,76,-1
 1701 1032 l 1,77,-1
 1721 1025 l 1,78,-1
 1722 1032 l 1,79,-1
 1939 954 l 1,80,-1
 1998 933 l 1,81,-1
 2019 923 l 1,82,-1
 2015 900 l 1,83,-1
 2004 846 l 1,84,85
 2028 840 2028 840 2031 835 c 0,86,87
 2032 830 2032 830 2025 805 c 1,88,89
 2020 776 2020 776 2007 720 c 0,90,91
 1996 673 1996 673 1975.5 580.5 c 128,-1,92
 1955 488 1955 488 1944 441 c 2,93,-1
 1926 364 l 2,94,95
 1920 333 1920 333 1920 331 c 0,96,97
 1921 328 1921 328 1922.5 326.5 c 128,-1,98
 1924 325 1924 325 1926.5 323 c 128,-1,99
 1929 321 1929 321 1932 320.5 c 128,-1,100
 1935 320 1935 320 1938.5 319 c 128,-1,101
 1942 318 1942 318 1944 317.5 c 128,-1,102
 1946 317 1946 317 1950.5 317 c 128,-1,103
 1955 317 1955 317 1957.5 317 c 128,-1,104
 1960 317 1960 317 1964 317 c 2,105,-1
 1969 317 l 1,106,-1
 2118 317 l 1,107,-1
 2108 271 l 1,108,-1
 1948 271 l 2,109,110
 1889 271 1889 271 1877 276 c 0,111,112
 1872 278 1872 278 1869 280 c 0,113,114
 1834 304 1834 304 1861 407 c 0,115,116
 1867 432 1867 432 1869 438 c 0,117,118
 1881 491 1881 491 1904.5 597 c 128,-1,119
 1928 703 1928 703 1941 756 c 0,120,121
 1955 817 1955 817 1960 846 c 0,122,123
 1966 875 1966 875 1966 877 c 0,124,125
 1964 880 1964 880 1951 885 c 0,126,127
 1951 886 1951 886 1949 886 c 2,128,-1
 1948 886 l 1,129,130
 1910 901 1910 901 1899 904 c 0,131,132
 1874 912 1874 912 1824 931 c 0,133,134
 1747 960 1747 960 1708 971 c 1,135,136
 1689 888 1689 888 1652 723 c 0,137,138
 1615 558 1615 558 1595 476 c 0,139,140
 1570 370 1570 370 1565 349 c 0,141,142
 1550 304 1550 304 1538 292 c 0,143,144
 1513 271 1513 271 1458 271 c 2,145,-1
 1286 271 l 1,146,-1
 637 271 l 1,147,-1
 488 271 l 2,148,149
 430 273 430 273 416 297 c 1,150,151
 405 322 405 322 418 379 c 0,152,153
 422 397 422 397 430 434 c 0,154,155
 438 471 438 471 442 489 c 0,156,157
 461 569 461 569 494 730 c 0,158,159
 527 891 527 891 546 971 c 1,160,161
 494 954 494 954 333 905 c 0,162,163
 293 892 293 892 273 887 c 0,164,165
 271 886 271 886 265 885 c 0,166,167
 254 881 254 881 251 877 c 0,168,169
 246 871 246 871 237 827 c 2,170,-1
 203 679 l 2,171,172
 165 516 165 516 145 436 c 0,173,174
 117 329 117 329 110 277 c 0,175,176
 92 131 92 131 148 72 c 1,177,178
 210 22 210 22 337 21 c 2,179,-1
 508 21 l 1,180,-1
 1399 21 l 1,181,-1
 1614 21 l 2,182,183
 1622 21 1622 21 1640 20 c 0,184,185
 1696 18 1696 18 1720 26 c 1,186,187
 1756 43 1756 43 1789 92 c 1,188,-1
 1792 67 l 1,189,-1
 1795 67 l 1,190,-1
 1810 92 l 1,191,-1
 1814 67 l 1,192,-1
 1817 67 l 1,193,-1
 1832 92 l 1,194,195
 1834 86 1834 86 1837 73 c 0,196,197
 1844 48 1844 48 1854 38 c 0,198,199
 1873 21 1873 21 1925 21 c 0,200,201
 1946 21 1946 21 1988 22 c 0,202,203
 2031 23 2031 23 2051 23 c 1,204,-1
 2030 -67 l 1,205,206
 2017 -67 2017 -67 1988 -69 c 0,207,208
 1915 -72 1915 -72 1886 -64 c 1,209,210
 1871 -58 1871 -58 1859 -46 c 0,211,212
 1838 -25 1838 -25 1831 -23 c 1,213,214
 1823 -27 1823 -27 1802 -48 c 1,215,216
 1777 -65 1777 -65 1751 -67 c 0,217,218
 1751 -69 1751 -69 1696 -68 c 2,219,-1
 1641 -67 l 1,220,-1
 1424 -67 l 1,221,-1
 768 -67 l 1,222,-1
 410 -67 l 2,223,224
 282 -67 282 -67 264 -65 c 0,225,226
 231 -60 231 -60 207 -49 c 0,227,228
 197 -44 197 -44 151 -11 c 0,229,230
 143 -6 143 -6 129 3 c 0,231,232
 82 32 82 32 68 62 c 0,233,234
 33 141 33 141 72 312 c 0,235,236
 85 368 85 368 112 480 c 0,237,238
 139 593 139 593 151 648 c 0,239,240
 159 682 159 682 175 749 c 0,241,242
 191 817 191 817 199 850 c 2,243,-1
 212 904 l 2,244,245
 217 922 217 922 218 923 c 0,246,247
 223 929 223 929 241 933 c 2,248,-1
 305 953 l 2,249,250
 333 962 333 962 390 979 c 0,251,252
 447 996 447 996 475 1005 c 0,253,254
 547 1027 547 1027 558 1032 c 1,37,-1
EndSplineSet
EndChar

StartChar: uniFE9B
Encoding: 65179 65179 363
Width: 773
VWidth: 1639
GlyphClass: 2
Flags: HW
AnchorPoint: "GposMark2BaseAnchorClassErabAbove_01_02" 477 1897 basechar 0
AnchorPoint: "GposMark2BaseAnchorClassErabBelow_01_02" 477 -217 basechar 0
LayerCount: 2
Fore
SplineSet
502 1747 m 1,0,-1
 825 1747 l 1,1,-1
 805 1658 l 1,2,-1
 837 1658 l 1,3,-1
 780 1404 l 1,4,-1
 956 1404 l 1,5,-1
 936 1315 l 1,6,-1
 968 1315 l 1,7,-1
 908 1050 l 1,8,-1
 628 1050 l 1,9,-1
 637 1092 l 1,10,-1
 563 1092 l 1,11,-1
 630 1392 l 1,12,-1
 583 1392 l 1,13,-1
 567 1315 l 1,14,-1
 597 1315 l 1,15,-1
 539 1050 l 1,16,-1
 257 1050 l 1,17,-1
 267 1092 l 1,18,-1
 192 1092 l 1,19,-1
 264 1404 l 1,20,-1
 499 1404 l 1,21,-1
 506 1435 l 1,22,-1
 431 1435 l 1,23,-1
 502 1747 l 1,0,-1
772 1701 m 1,24,-1
 534 1701 l 1,25,-1
 485 1481 l 1,26,-1
 723 1481 l 1,27,-1
 772 1701 l 1,24,-1
533 1358 m 1,28,-1
 296 1358 l 1,29,-1
 245 1138 l 1,30,-1
 485 1138 l 1,31,-1
 533 1358 l 1,28,-1
903 1358 m 1,32,-1
 665 1358 l 1,33,-1
 616 1138 l 1,34,-1
 854 1138 l 1,35,-1
 903 1358 l 1,32,-1
450 1032 m 1,36,-1
 469 1025 l 1,37,-1
 471 1032 l 1,38,-1
 491 1025 l 1,39,-1
 492 1032 l 1,40,41
 525 1024 525 1024 698 959 c 0,42,43
 707 956 707 956 715 953 c 2,44,-1
 770 933 l 2,45,46
 788 927 788 927 791 923 c 0,47,48
 792 921 792 921 791 918 c 128,-1,49
 790 915 790 915 789 910 c 2,50,-1
 788 905 l 1,51,-1
 779 868 l 1,52,-1
 775 850 l 1,53,54
 776 847 776 847 794 841 c 0,55,56
 800 838 800 838 802 835 c 0,57,58
 802 831 802 831 791 787 c 0,59,60
 786 767 786 767 776 725 c 128,-1,61
 766 683 766 683 761 663 c 0,62,63
 708 435 708 435 678 321 c 0,64,65
 673 303 673 303 665 269 c 0,66,67
 655 223 655 223 648 200 c 0,68,69
 644 185 644 185 636 155 c 0,70,71
 609 46 609 46 571 4 c 0,72,73
 561 -7 561 -7 551 -15 c 0,74,75
 486 -67 486 -67 360 -67 c 0,76,77
 353 -67 353 -67 342 -67 c 0,78,79
 283 -67 283 -67 164 -66 c 0,80,81
 45 -65 45 -65 -14 -66 c 1,82,-1
 6 23 l 1,83,84
 53 23 53 23 149 22 c 0,85,86
 245 21 245 21 291 21 c 0,87,88
 409 21 409 21 465 54 c 0,89,90
 473 59 473 59 479 62 c 0,91,92
 546 108 546 108 578 227 c 0,93,94
 581 237 581 237 586 258 c 0,95,96
 591 279 591 279 594 289 c 0,97,98
 607 338 607 338 630 435 c 0,99,100
 645 501 645 501 653 533 c 0,101,102
 698 708 698 708 738 881 c 1,103,-1
 668 905 l 1,104,-1
 478 971 l 1,105,106
 459 888 459 888 421 718 c 0,107,108
 383 549 383 549 363 464 c 0,109,110
 358 444 358 444 348 403 c 0,111,112
 338 362 338 362 333 343 c 0,113,114
 322 301 322 301 308 287 c 0,115,116
 304 284 304 284 300.5 281.5 c 128,-1,117
 297 279 297 279 292 277.5 c 128,-1,118
 287 276 287 276 283 275 c 128,-1,119
 279 274 279 274 273 273 c 128,-1,120
 267 272 267 272 264.5 271.5 c 128,-1,121
 262 271 262 271 255 271 c 128,-1,122
 248 271 248 271 246.5 271 c 128,-1,123
 245 271 245 271 237 271 c 2,124,-1
 230 271 l 1,125,-1
 63 271 l 1,126,-1
 74 317 l 1,127,-1
 207 317 l 2,128,129
 254 318 254 318 276 335 c 1,130,131
 292 351 292 351 302 392 c 0,132,133
 307 412 307 412 317 454 c 0,134,135
 328 496 328 496 332 517 c 0,136,137
 352 603 352 603 391 774 c 0,138,139
 430 946 430 946 450 1032 c 1,36,-1
EndSplineSet
EndChar

StartChar: uniFE9C
Encoding: 65180 65180 364
Width: 770
VWidth: 1639
GlyphClass: 2
Flags: HW
AnchorPoint: "GposMark2BaseAnchorClassErabAbove_01_02" 477 1897 basechar 0
AnchorPoint: "GposMark2BaseAnchorClassErabBelow_01_02" 477 -223 basechar 0
LayerCount: 2
Fore
SplineSet
502 1747 m 1,0,-1
 825 1747 l 1,1,-1
 805 1658 l 1,2,-1
 837 1658 l 1,3,-1
 780 1404 l 1,4,-1
 956 1404 l 1,5,-1
 936 1315 l 1,6,-1
 968 1315 l 1,7,-1
 908 1050 l 1,8,-1
 628 1050 l 1,9,-1
 637 1092 l 1,10,-1
 563 1092 l 1,11,-1
 630 1392 l 1,12,-1
 583 1392 l 1,13,-1
 567 1315 l 1,14,-1
 597 1315 l 1,15,-1
 539 1050 l 1,16,-1
 257 1050 l 1,17,-1
 267 1092 l 1,18,-1
 192 1092 l 1,19,-1
 264 1404 l 1,20,-1
 499 1404 l 1,21,-1
 506 1435 l 1,22,-1
 431 1435 l 1,23,-1
 502 1747 l 1,0,-1
772 1701 m 1,24,-1
 534 1701 l 1,25,-1
 485 1481 l 1,26,-1
 723 1481 l 1,27,-1
 772 1701 l 1,24,-1
533 1358 m 1,28,-1
 296 1358 l 1,29,-1
 245 1138 l 1,30,-1
 485 1138 l 1,31,-1
 533 1358 l 1,28,-1
903 1358 m 1,32,-1
 665 1358 l 1,33,-1
 616 1138 l 1,34,-1
 854 1138 l 1,35,-1
 903 1358 l 1,32,-1
418 1032 m 1,36,-1
 437 1025 l 1,37,-1
 439 1032 l 1,38,-1
 459 1025 l 1,39,-1
 460 1032 l 1,40,41
 493 1024 493 1024 666 959 c 0,42,43
 675 956 675 956 683 953 c 2,44,-1
 738 933 l 2,45,46
 756 927 756 927 759 923 c 1,47,48
 760 918 760 918 755 902 c 2,49,-1
 742 846 l 1,50,51
 764 845 764 845 770 835 c 0,52,53
 771 830 771 830 765 804 c 2,54,-1
 746 722 l 2,55,56
 735 674 735 674 714 579 c 0,57,58
 693 483 693 483 683 436 c 2,59,-1
 665 359 l 2,60,61
 659 330 659 330 659 328 c 0,62,63
 661 323 661 323 665 320.5 c 128,-1,64
 669 318 669 318 676.5 317.5 c 128,-1,65
 684 317 684 317 688.5 317 c 128,-1,66
 693 317 693 317 702 317 c 2,67,-1
 712 317 l 1,68,-1
 872 317 l 1,69,-1
 861 271 l 1,70,-1
 687 271 l 2,71,72
 624 271 624 271 611 276 c 0,73,74
 607 278 607 278 604 280 c 0,75,76
 573 304 573 304 600 405 c 0,77,78
 607 430 607 430 608 436 c 0,79,80
 620 489 620 489 643 595 c 0,81,82
 666 701 666 701 678 754 c 2,83,-1
 699 843 l 2,84,85
 706 875 706 875 705 877 c 0,86,87
 702 882 702 882 689 886 c 1,88,89
 676 891 676 891 641 902 c 1,90,91
 535 943 535 943 448 971 c 1,92,-1
 332 467 l 2,93,94
 312 383 312 383 301 341 c 0,95,96
 290 300 290 300 278 289 c 1,97,98
 254 271 254 271 207 271 c 2,99,-1
 63 271 l 1,100,-1
 74 317 l 1,101,102
 86 317 86 317 110 316 c 0,103,104
 168 314 168 314 196 318 c 0,105,106
 229 323 229 323 246 336 c 0,107,108
 256 346 256 346 269 387 c 0,109,110
 270 389 270 389 270 390 c 0,111,112
 277 414 277 414 301 520 c 0,113,114
 321 605 321 605 359 776 c 0,115,116
 398 947 398 947 418 1032 c 1,36,-1
479 93 m 1,117,-1
 493 79 l 1,118,-1
 500 93 l 1,119,-1
 515 79 l 1,120,-1
 521 93 l 1,121,122
 527 87 527 87 539 75 c 0,123,124
 571 41 571 41 594 31 c 0,125,126
 617 21 617 21 677 21 c 0,127,128
 698 21 698 21 740 22 c 0,129,130
 783 23 783 23 804 23 c 1,131,-1
 783 -67 l 1,132,133
 768 -67 768 -67 736 -69 c 0,134,135
 652 -73 652 -73 618 -62 c 0,136,137
 604 -58 604 -58 559 -26 c 0,138,139
 555 -23 555 -23 553 -21 c 0,140,141
 549 -17 549 -17 537 -13 c 0,142,143
 529 -10 529 -10 527 -8 c 1,144,145
 492 -65 492 -65 415 -67 c 0,146,147
 406 -67 406 -67 387 -67 c 0,148,149
 375 -67 375 -67 370 -67 c 0,150,151
 306 -67 306 -67 178 -66 c 0,152,153
 50 -65 50 -65 -14 -66 c 1,154,-1
 6 23 l 1,155,156
 62 23 62 23 173 22 c 0,157,158
 285 21 285 21 340 21 c 0,159,160
 426 21 426 21 460 64 c 0,161,162
 471 77 471 77 479 93 c 1,117,-1
EndSplineSet
EndChar

StartChar: afii57420
Encoding: 1580 1580 365
AltUni2: 00fe9d.ffffffff.0
Width: 1060
VWidth: 1639
GlyphClass: 2
Flags: HW
AnchorPoint: "GposMark2BaseAnchorClassErabAbove_01_02" 531 1182 basechar 0
AnchorPoint: "GposMark2BaseAnchorClassErabBelow_01_02" 531 -1042 basechar 0
LayerCount: 2
Fore
SplineSet
138 597 m 1,0,1
 151 625 151 625 176 685 c 0,2,3
 249 857 249 857 308 926 c 0,4,5
 334 957 334 957 362 979 c 0,6,7
 428 1031 428 1031 534 1032 c 0,8,9
 543 1032 543 1032 562 1032 c 0,10,11
 576 1032 576 1032 583 1032 c 2,12,-1
 847 1032 l 2,13,14
 982 1032 982 1032 997 1030 c 0,15,16
 1093 1017 1093 1017 1122 948 c 0,17,18
 1129 933 1129 933 1134 871 c 0,19,20
 1135 862 1135 862 1136 856 c 0,21,22
 1137 847 1137 847 1141 830 c 0,23,24
 1147 801 1147 801 1147 786 c 0,25,26
 1148 732 1148 732 1124 641 c 0,27,28
 1075 462 1075 462 978 313 c 0,29,30
 940 256 940 256 797 80 c 0,31,32
 789 71 789 71 783 64 c 0,33,34
 768 45 768 45 738 4 c 0,35,36
 664 -94 664 -94 623 -136 c 1,37,-1
 942 -136 l 1,38,-1
 921 -225 l 1,39,-1
 953 -225 l 1,40,-1
 895 -492 l 1,41,-1
 612 -492 l 1,42,-1
 622 -449 l 1,43,-1
 548 -449 l 1,44,-1
 616 -146 l 1,45,-1
 615 -146 l 1,46,47
 606 -162 606 -162 547 -231 c 0,48,49
 538 -242 538 -242 533 -249 c 0,50,51
 401 -423 401 -423 350 -507 c 1,52,53
 387 -524 387 -524 390 -525 c 0,54,55
 422 -533 422 -533 535 -530 c 0,56,57
 546 -530 546 -530 555 -530 c 2,58,-1
 904 -530 l 1,59,-1
 884 -618 l 1,60,-1
 916 -618 l 1,61,-1
 854 -892 l 1,62,-1
 413 -892 l 2,63,64
 255 -892 255 -892 250 -892 c 0,65,66
 182 -886 182 -886 138 -864 c 0,67,68
 127 -859 127 -859 82 -827 c 1,69,70
 27 -795 27 -795 10 -776 c 0,71,72
 -86 -667 -86 -667 -37 -460 c 0,73,74
 -13 -362 -13 -362 36 -272 c 0,75,76
 75 -202 75 -202 190 -65 c 0,77,78
 196 -58 196 -58 200 -54 c 2,79,-1
 357 133 l 2,80,81
 384 165 384 165 437 229 c 0,82,83
 477 278 477 278 499 303 c 0,84,85
 523 333 523 333 681 523 c 0,86,87
 686 529 686 529 696 542 c 0,88,89
 742 598 742 598 740 630 c 0,90,91
 738 642 738 642 738 645 c 0,92,93
 735 647 735 647 731 646.5 c 128,-1,94
 727 646 727 646 721 646 c 2,95,-1
 715 646 l 2,96,97
 668 646 668 646 660 645 c 0,98,99
 603 637 603 637 580 625 c 0,100,101
 533 596 533 596 496 508 c 1,102,-1
 192 508 l 1,103,-1
 211 551 l 1,104,-1
 127 551 l 1,105,106
 134 570 134 570 133 574 c 1,107,108
 140 593 140 593 138 597 c 1,0,1
851 -576 m 1,109,-1
 454 -576 l 2,110,111
 357 -576 357 -576 354 -575 c 0,112,113
 313 -569 313 -569 293 -548 c 0,114,115
 260 -510 260 -510 288 -437 c 0,116,117
 290 -432 290 -432 292 -426 c 0,118,119
 302 -404 302 -404 352 -336 c 1,120,121
 431 -221 431 -221 491 -146 c 0,122,123
 537 -88 537 -88 630 29 c 0,124,125
 724 146 724 146 770 203 c 0,126,127
 920 389 920 389 974 486 c 0,128,129
 995 525 995 525 1011 563 c 0,130,131
 1098 763 1098 763 1078 876 c 1,132,133
 1056 981 1056 981 902 987 c 0,134,135
 876 988 876 988 825 986 c 0,136,137
 795 985 795 985 781 986 c 2,138,-1
 591 986 l 2,139,140
 497 985 497 985 461 973 c 0,141,142
 352 932 352 932 262 751 c 0,143,144
 251 728 251 728 235 695 c 0,145,146
 197 614 197 614 191 597 c 1,147,-1
 441 597 l 1,148,149
 479 683 479 683 524 712 c 1,150,151
 564 735 564 735 649 735 c 0,152,153
 733 735 733 735 740 733 c 0,154,155
 787 722 787 722 794 682 c 1,156,157
 795 660 795 660 792 645 c 0,158,159
 784 588 784 588 766 549 c 0,160,161
 754 526 754 526 707 471 c 0,162,163
 687 447 687 447 647 399 c 0,164,165
 607 350 607 350 588 326 c 0,166,167
 318 1 318 1 278 -46 c 0,168,169
 262 -65 262 -65 229 -103 c 0,170,171
 109 -243 109 -243 66 -321 c 0,172,173
 17 -412 17 -412 6 -477 c 0,174,175
 -20 -633 -20 -633 64 -728 c 0,176,177
 108 -776 108 -776 171 -792 c 0,178,179
 226 -807 226 -807 379 -804 c 0,180,181
 397 -804 397 -804 409 -804 c 2,182,-1
 800 -804 l 1,183,-1
 851 -576 l 1,109,-1
888 -182 m 1,184,-1
 650 -182 l 1,185,-1
 601 -403 l 1,186,-1
 839 -403 l 1,187,-1
 888 -182 l 1,184,-1
EndSplineSet
AlternateSubs2: "gsub_alternate_dfl_aalt_arab_FAR_Lookup_01_Subtable_01" uniFE9E uniFE9F afii57420 uniFEA0
Substitution2: "gsub_single_rtl_fina_arab_FAR_Lookup_01_Subtable_01" uniFE9E
Substitution2: "gsub_single_rtl_init_arab_FAR_Lookup_01_Subtable_01" uniFE9F
Substitution2: "gsub_single_rtl_medi_arab_FAR_Lookup_01_Subtable_01" uniFEA0
EndChar

StartChar: uniFE9E
Encoding: 65182 65182 366
Width: 1032
VWidth: 1639
GlyphClass: 2
Flags: HW
AnchorPoint: "GposMark2BaseAnchorClassErabAbove_01_02" 581 1182 basechar 0
AnchorPoint: "GposMark2BaseAnchorClassErabBelow_01_02" 581 -1045 basechar 0
LayerCount: 2
Fore
SplineSet
138 597 m 1,0,1
 211 778 211 778 214 786 c 0,2,3
 284 933 284 933 374 994 c 1,4,5
 438 1032 438 1032 543 1032 c 2,6,-1
 703 1032 l 1,7,-1
 914 1032 l 2,8,9
 1026 1032 1026 1032 1068 1008 c 0,10,11
 1076 1003 1076 1003 1083 999 c 0,12,13
 1124 969 1124 969 1135 899 c 0,14,15
 1136 892 1136 892 1135 877 c 0,16,17
 1135 862 1135 862 1136 856 c 0,18,19
 1147 791 1147 791 1147 779 c 0,20,21
 1145 619 1145 619 1036 418 c 0,22,23
 992 338 992 338 976 317 c 1,24,-1
 1251 317 l 1,25,-1
 1240 271 l 1,26,-1
 979 271 l 2,27,28
 974 271 974 271 961 270 c 0,29,30
 901 268 901 268 891 287 c 0,31,32
 886 300 886 300 894 330 c 1,33,34
 899 363 899 363 906 379 c 0,35,36
 911 391 911 391 958 466 c 0,37,38
 966 479 966 479 972 489 c 0,39,40
 1109 742 1109 742 1077 877 c 0,41,42
 1052 979 1052 979 901 986 c 0,43,44
 875 987 875 987 822 986 c 0,45,46
 793 985 793 985 780 986 c 2,47,-1
 588 986 l 2,48,49
 492 986 492 986 453 971 c 0,50,51
 446 968 446 968 441 966 c 0,52,53
 331 918 331 918 243 728 c 0,54,55
 235 711 235 711 227 692 c 0,56,57
 202 634 202 634 188 597 c 1,58,-1
 365 597 l 1,59,-1
 415 597 l 2,60,61
 435 598 435 598 439 599 c 0,62,63
 444 602 444 602 457 626 c 0,64,65
 495 689 495 689 502 697 c 0,66,67
 506 701 506 701 509 704 c 0,68,69
 535 725 535 725 581 731 c 0,70,71
 607 734 607 734 717 735 c 0,72,73
 765 734 765 734 784 712 c 1,74,75
 799 679 799 679 781 608 c 0,76,77
 768 553 768 553 704 475 c 0,78,79
 692 460 692 460 688 454 c 0,80,81
 668 429 668 429 627 381 c 0,82,83
 586 332 586 332 567 308 c 0,84,85
 514 245 514 245 410 119 c 0,86,87
 305 -8 305 -8 252 -71 c 0,88,89
 126 -222 126 -222 93 -272 c 0,90,91
 56 -328 56 -328 35 -379 c 0,92,93
 6 -445 6 -445 1 -472 c 0,94,95
 -28 -623 -28 -623 53 -723 c 0,96,97
 97 -775 97 -775 160 -794 c 1,98,99
 223 -808 223 -808 369 -807 c 2,100,-1
 791 -807 l 1,101,-1
 853 -579 l 1,102,-1
 431 -579 l 2,103,104
 422 -579 422 -579 402 -580 c 0,105,106
 304 -584 304 -584 278 -552 c 0,107,108
 275 -548 275 -548 272 -544 c 0,109,110
 230 -471 230 -471 329 -339 c 1,111,112
 462 -164 462 -164 694 93 c 1,113,-1
 707 82 l 1,114,-1
 716 93 l 1,115,-1
 728 82 l 1,116,-1
 737 93 l 1,117,118
 796 39 796 39 825 29 c 0,119,120
 827 28 827 28 829 28 c 0,121,122
 858 21 858 21 954 21 c 0,123,124
 992 21 992 21 1068 22 c 0,125,126
 1145 23 1145 23 1183 23 c 1,127,-1
 1162 -67 l 1,128,-1
 964 -67 l 2,129,130
 867 -67 867 -67 844 -62 c 0,131,132
 826 -57 826 -57 774 -21 c 0,133,134
 755 -8 755 -8 740 -3 c 1,135,136
 735 -10 735 -10 707 -44 c 0,137,138
 665 -94 665 -94 642 -118 c 0,139,140
 455 -338 455 -338 430 -369 c 0,141,142
 392 -416 392 -416 357 -467 c 1,143,144
 335 -496 335 -496 336 -505 c 0,145,146
 336 -516 336 -516 362 -526 c 2,147,-1
 363 -526 l 1,148,149
 387 -533 387 -533 470 -533 c 2,150,-1
 908 -533 l 1,151,-1
 886 -622 l 1,152,-1
 920 -622 l 1,153,-1
 846 -895 l 1,154,-1
 406 -895 l 2,155,156
 249 -895 249 -895 228 -893 c 0,157,158
 173 -886 173 -886 135 -869 c 0,159,160
 121 -862 121 -862 98 -845 c 0,161,162
 84 -835 84 -835 77 -830 c 0,163,164
 69 -824 69 -824 52 -814 c 0,165,166
 21 -795 21 -795 7 -782 c 0,167,168
 -89 -678 -89 -678 -44 -482 c 0,169,170
 -21 -383 -21 -383 6 -325 c 0,171,172
 54 -225 54 -225 182 -69 c 2,173,-1
 354 138 l 2,174,175
 423 223 423 223 508 323 c 0,176,177
 527 346 527 346 566 393 c 0,178,179
 629 470 629 470 660 507 c 0,180,181
 717 575 717 575 719 578 c 0,182,183
 734 601 734 601 739 620 c 0,184,185
 739 646 l 1,186,187
 644 646 644 646 630 644 c 0,188,189
 585 635 585 635 559 610 c 0,190,191
 550 601 550 601 515 543 c 0,192,193
 513 539 513 539 511 536 c 0,194,195
 500 514 500 514 494 510 c 1,196,197
 487 508 487 508 468 508 c 2,198,-1
 407 508 l 1,199,-1
 192 508 l 1,200,-1
 208 551 l 1,201,-1
 127 551 l 1,202,-1
 133 574 l 1,203,-1
 138 597 l 1,0,1
659 -136 m 1,204,-1
 983 -136 l 1,205,-1
 964 -225 l 1,206,-1
 994 -225 l 1,207,-1
 936 -492 l 1,208,-1
 654 -492 l 1,209,-1
 663 -449 l 1,210,-1
 589 -449 l 1,211,-1
 659 -136 l 1,204,-1
930 -182 m 1,212,-1
 693 -182 l 1,213,-1
 642 -403 l 1,214,-1
 881 -403 l 1,215,-1
 930 -182 l 1,212,-1
EndSplineSet
EndChar

StartChar: uniFE9F
Encoding: 65183 65183 367
Width: 1155
VWidth: 1639
GlyphClass: 2
Flags: HW
AnchorPoint: "GposMark2BaseAnchorClassErabAbove_01_02" 568.5 1185 basechar 0
AnchorPoint: "GposMark2BaseAnchorClassErabBelow_01_02" 568.5 -645 basechar 0
LayerCount: 2
Fore
SplineSet
184 594 m 1,0,1
 181 599 181 599 189 618 c 2,2,-1
 190 620 l 1,3,4
 195 633 195 633 205 659 c 0,5,6
 215 686 215 686 219 699 c 0,7,8
 225 716 225 716 237 751 c 0,9,10
 287 900 287 900 337 958 c 0,11,12
 363 987 363 987 391 1005 c 0,13,14
 441 1035 441 1035 543 1032 c 0,15,16
 564 1031 564 1031 574 1032 c 2,17,-1
 894 1032 l 2,18,19
 1007 1032 1007 1032 1019 1030 c 0,20,21
 1048 1025 1048 1025 1069 1015 c 0,22,23
 1142 977 1142 977 1164 877 c 0,24,25
 1165 874 1165 874 1165 872 c 0,26,27
 1167 862 1167 862 1167 842 c 0,28,29
 1167 826 1167 826 1168 818 c 0,30,31
 1169 808 1169 808 1173 790 c 0,32,33
 1181 748 1181 748 1180 723 c 1,34,35
 1176 692 1176 692 1141 574 c 0,36,37
 1127 528 1127 528 1070 313 c 0,38,39
 1024 142 1024 142 962 68 c 0,40,41
 929 29 929 29 889 2 c 0,42,43
 786 -65 786 -65 579 -67 c 0,44,45
 565 -67 565 -67 543 -67 c 0,46,47
 445 -67 445 -67 249 -66 c 0,48,49
 53 -65 53 -65 -44 -66 c 1,50,-1
 -24 23 l 1,51,52
 42 23 42 23 174 21 c 0,53,54
 438 17 438 17 571 23 c 0,55,56
 638 26 638 26 718 44 c 0,57,58
 766 54 766 54 813 79 c 0,59,60
 939 145 939 145 1000 340 c 0,61,62
 1012 380 1012 380 1032 459 c 0,63,64
 1048 523 1048 523 1056 553 c 0,65,66
 1071 604 1071 604 1096 700 c 1,67,68
 1112 751 1112 751 1114 763 c 0,69,70
 1121 833 1121 833 1086 894 c 1,71,72
 1043 965 1043 965 981 981 c 1,73,74
 942 988 942 988 834 986 c 1,75,-1
 612 986 l 2,76,77
 507 986 507 986 499 985 c 0,78,79
 444 977 444 977 406 946 c 0,80,81
 339 893 339 893 292 765 c 0,82,83
 289 757 289 757 283 741 c 0,84,85
 278 727 278 727 276 720 c 0,86,87
 235 611 235 611 230 594 c 1,88,-1
 407 594 l 1,89,-1
 457 594 l 2,90,91
 477 595 477 595 480 595 c 0,92,93
 484 597 484 597 499 627 c 0,94,95
 501 630 501 630 501 631 c 0,96,97
 529 694 529 694 553 718 c 1,98,99
 574 736 574 736 620 736 c 2,100,-1
 727 736 l 2,101,102
 777 735 777 735 792 730 c 1,103,104
 839 699 839 699 828 626 c 1,105,106
 805 526 805 526 749 372 c 1,107,108
 724 314 724 314 682 290 c 0,109,110
 647 270 647 270 581 271 c 2,111,-1
 479 271 l 1,112,-1
 33 271 l 1,113,-1
 44 317 l 1,114,-1
 448 317 l 1,115,-1
 546 317 l 2,116,117
 609 318 609 318 641 331 c 0,118,119
 694 357 694 357 721 436 c 0,120,121
 724 444 724 444 727 454 c 0,122,123
 752 523 752 523 763 558 c 0,124,125
 779 604 779 604 777 625 c 0,126,127
 776 642 776 642 770 646 c 1,128,129
 762 649 762 649 721 648 c 0,130,131
 652 648 652 648 650 647 c 0,132,133
 614 639 614 639 592 610 c 0,134,135
 579 593 579 593 552 535 c 0,136,137
 539 509 539 509 536 507 c 0,138,139
 529 505 529 505 510 505 c 2,140,-1
 450 505 l 1,141,-1
 235 505 l 1,142,-1
 250 548 l 1,143,-1
 171 548 l 1,144,-1
 179 571 l 1,145,146
 176 576 176 576 184 593 c 2,147,-1
 184 594 l 1,0,1
361 -139 m 1,148,-1
 685 -139 l 1,149,-1
 664 -228 l 1,150,-1
 696 -228 l 1,151,-1
 636 -495 l 1,152,-1
 355 -495 l 1,153,-1
 365 -453 l 1,154,-1
 290 -453 l 1,155,-1
 361 -139 l 1,148,-1
631 -185 m 1,156,-1
 393 -185 l 1,157,-1
 344 -407 l 1,158,-1
 582 -407 l 1,159,-1
 631 -185 l 1,156,-1
EndSplineSet
EndChar

StartChar: uniFEA0
Encoding: 65184 65184 368
Width: 1139
VWidth: 1639
GlyphClass: 2
Flags: HW
AnchorPoint: "GposMark2BaseAnchorClassErabAbove_01_02" 598.5 1187 basechar 0
AnchorPoint: "GposMark2BaseAnchorClassErabBelow_01_02" 598.5 -645 basechar 0
LayerCount: 2
Fore
SplineSet
126 548 m 1,0,1
 129 557 129 557 133 574 c 0,2,3
 137 592 137 592 140 600 c 0,4,5
 149 631 149 631 212 800 c 0,6,7
 258 924 258 924 310 976 c 0,8,9
 316 982 316 982 320 986 c 0,10,11
 378 1037 378 1037 493 1033 c 0,12,13
 500 1033 500 1033 514 1033 c 0,14,15
 540 1032 540 1032 552 1032 c 2,16,-1
 830 1032 l 2,17,18
 845 1032 845 1032 876 1033 c 0,19,20
 968 1036 968 1036 1006 1023 c 1,21,22
 1069 999 1069 999 1107 923 c 1,23,24
 1122 886 1122 886 1124 854 c 0,25,26
 1125 849 1125 849 1125 838 c 0,27,28
 1125 823 1125 823 1126 817 c 0,29,30
 1127 807 1127 807 1131 789 c 0,31,32
 1139 742 1139 742 1135 715 c 0,33,34
 1130 690 1130 690 1114 643 c 0,35,36
 1098 594 1098 594 1070 500 c 0,37,38
 1063 478 1063 478 1049 434 c 0,39,40
 1035 389 1035 389 1029 367 c 0,41,42
 1014 325 1014 325 1015 320 c 1,43,44
 1018 316 1018 316 1029 317 c 2,45,-1
 1069 317 l 1,46,-1
 1241 317 l 1,47,-1
 1231 271 l 1,48,-1
 1017 271 l 2,49,50
 965 271 965 271 957 274 c 0,51,52
 945 280 945 280 941 290 c 0,53,54
 935 308 935 308 943 344 c 0,55,56
 944 349 944 349 969 438 c 0,57,58
 972 449 972 449 1042 676 c 1,59,60
 1076 776 1076 776 1070 819 c 0,61,62
 1068 832 1068 832 1065 843 c 0,63,64
 1033 945 1033 945 953 976 c 1,65,66
 918 987 918 987 821 986 c 2,67,-1
 592 986 l 2,68,69
 579 986 579 986 552 987 c 0,70,71
 439 991 439 991 385 962 c 0,72,73
 370 953 370 953 358 943 c 0,74,75
 292 889 292 889 248 764 c 1,76,77
 188 599 188 599 186 594 c 1,78,-1
 363 594 l 1,79,-1
 413 594 l 2,80,81
 433 595 433 595 436 595 c 0,82,83
 441 599 441 599 456 630 c 0,84,85
 492 702 492 702 509 718 c 1,86,87
 531 737 531 737 576 736 c 2,88,-1
 682 736 l 2,89,90
 732 735 732 735 748 730 c 0,91,92
 801 706 801 706 782 620 c 0,93,94
 765 546 765 546 714 403 c 0,95,96
 689 329 689 329 660 305 c 0,97,98
 651 298 651 298 642 292 c 0,99,100
 595 265 595 265 486 270 c 0,101,102
 462 271 462 271 450 271 c 2,103,-1
 33 271 l 1,104,-1
 44 317 l 1,105,-1
 422 317 l 2,106,107
 434 317 434 317 459 315 c 0,108,109
 557 312 557 312 602 335 c 0,110,111
 652 362 652 362 678 439 c 0,112,113
 680 445 680 445 682 451 c 2,114,-1
 721 559 l 2,115,116
 735 600 735 600 733 625 c 0,117,118
 732 642 732 642 726 646 c 1,119,120
 718 649 718 649 679 648 c 0,121,122
 672 648 672 648 656 649 c 0,123,124
 586 653 586 653 558 623 c 0,125,126
 553 617 553 617 550 613 c 0,127,128
 528 580 528 580 508 536 c 0,129,130
 494 508 494 508 492 507 c 0,131,132
 485 505 485 505 466 505 c 2,133,-1
 405 505 l 1,134,-1
 191 505 l 1,135,-1
 207 548 l 1,136,-1
 126 548 l 1,0,1
799 93 m 1,137,138
 810 87 810 87 821 93 c 1,139,-1
 822 93 l 1,140,141
 830 85 830 85 842 93 c 1,142,-1
 844 93 l 1,143,144
 878 46 878 46 916 30 c 0,145,146
 939 22 939 22 1011 21 c 0,147,148
 1038 21 1038 21 1092 22 c 0,149,150
 1147 23 1147 23 1173 23 c 1,151,-1
 1153 -67 l 1,152,-1
 1021 -67 l 2,153,154
 957 -67 957 -67 939 -62 c 0,155,156
 912 -54 912 -54 891 -38 c 0,157,158
 853 -9 853 -9 840 -7 c 0,159,160
 835 -8 835 -8 815 -18 c 1,161,162
 795 -27 795 -27 756 -39 c 1,163,164
 697 -56 697 -56 587 -66 c 0,165,166
 560 -68 560 -68 376 -67 c 0,167,168
 306 -67 306 -67 166 -66 c 0,169,170
 25 -65 25 -65 -44 -66 c 1,171,-1
 -24 23 l 1,172,173
 35 23 35 23 153 21 c 0,174,175
 391 17 391 17 510 23 c 0,176,177
 676 32 676 32 753 67 c 0,178,179
 778 79 778 79 799 93 c 1,137,138
361 -139 m 1,180,-1
 685 -139 l 1,181,-1
 664 -228 l 1,182,-1
 696 -228 l 1,183,-1
 636 -495 l 1,184,-1
 355 -495 l 1,185,-1
 365 -453 l 1,186,-1
 290 -453 l 1,187,-1
 361 -139 l 1,180,-1
631 -185 m 1,188,-1
 393 -185 l 1,189,-1
 344 -407 l 1,190,-1
 582 -407 l 1,191,-1
 631 -185 l 1,188,-1
EndSplineSet
EndChar

StartChar: afii57421
Encoding: 1581 1581 369
AltUni2: 00fea1.ffffffff.0
Width: 1060
VWidth: 1639
GlyphClass: 2
Flags: HW
AnchorPoint: "GposMark2BaseAnchorClassErabAbove_01_02" 531 1182 basechar 0
AnchorPoint: "GposMark2BaseAnchorClassErabBelow_01_02" 531 -1042 basechar 0
LayerCount: 2
Fore
SplineSet
138 597 m 1,0,1
 151 624 151 624 176 683 c 0,2,3
 251 859 251 859 310 929 c 0,4,5
 345 970 345 970 384 995 c 1,6,7
 449 1031 449 1031 546 1032 c 2,8,-1
 676 1032 l 1,9,-1
 923 1032 l 2,10,11
 1045 1032 1045 1032 1090 994 c 0,12,13
 1099 986 1099 986 1106 977 c 0,14,15
 1128 949 1128 949 1134 876 c 0,16,17
 1135 865 1135 865 1136 858 c 0,18,19
 1137 847 1137 847 1141 825 c 0,20,21
 1147 792 1147 792 1148 776 c 0,22,23
 1146 724 1146 724 1124 640 c 0,24,25
 1078 466 1078 466 978 313 c 0,26,27
 942 259 942 259 841 136 c 0,28,29
 802 87 802 87 724 -11 c 0,30,31
 645 -109 645 -109 607 -157 c 0,32,33
 438 -363 438 -363 350 -507 c 1,34,35
 387 -524 387 -524 390 -525 c 0,36,37
 422 -533 422 -533 535 -530 c 0,38,39
 546 -530 546 -530 555 -530 c 2,40,-1
 904 -530 l 1,41,-1
 884 -618 l 1,42,-1
 916 -618 l 1,43,-1
 854 -892 l 1,44,-1
 413 -892 l 2,45,46
 255 -892 255 -892 250 -892 c 0,47,48
 182 -886 182 -886 138 -864 c 0,49,50
 127 -859 127 -859 82 -827 c 1,51,52
 27 -795 27 -795 10 -776 c 0,53,54
 -86 -667 -86 -667 -37 -460 c 0,55,56
 -13 -362 -13 -362 36 -272 c 0,57,58
 75 -202 75 -202 190 -65 c 0,59,60
 196 -58 196 -58 200 -54 c 2,61,-1
 357 133 l 2,62,63
 384 165 384 165 437 229 c 0,64,65
 477 278 477 278 499 303 c 0,66,67
 523 333 523 333 681 523 c 0,68,69
 686 529 686 529 696 542 c 0,70,71
 742 598 742 598 740 630 c 0,72,73
 738 642 738 642 738 645 c 0,74,75
 735 647 735 647 731 646.5 c 128,-1,76
 727 646 727 646 721 646 c 2,77,-1
 715 646 l 2,78,79
 668 646 668 646 660 645 c 0,80,81
 603 637 603 637 580 625 c 0,82,83
 533 596 533 596 496 508 c 1,84,-1
 192 508 l 1,85,-1
 211 551 l 1,86,-1
 127 551 l 1,87,88
 134 570 134 570 133 574 c 1,89,90
 140 593 140 593 138 597 c 1,0,1
851 -576 m 1,91,-1
 454 -576 l 2,92,93
 357 -576 357 -576 354 -575 c 0,94,95
 313 -569 313 -569 293 -548 c 0,96,97
 260 -510 260 -510 288 -437 c 0,98,99
 290 -432 290 -432 292 -426 c 0,100,101
 302 -404 302 -404 352 -336 c 1,102,103
 431 -221 431 -221 491 -146 c 0,104,105
 537 -88 537 -88 630 29 c 0,106,107
 724 146 724 146 770 203 c 0,108,109
 920 389 920 389 974 486 c 0,110,111
 995 525 995 525 1011 563 c 0,112,113
 1098 763 1098 763 1078 876 c 1,114,115
 1056 981 1056 981 902 987 c 0,116,117
 876 988 876 988 825 986 c 0,118,119
 795 985 795 985 781 986 c 2,120,-1
 591 986 l 2,121,122
 497 985 497 985 461 973 c 0,123,124
 352 932 352 932 262 751 c 0,125,126
 251 728 251 728 235 695 c 0,127,128
 197 614 197 614 191 597 c 1,129,-1
 441 597 l 1,130,131
 479 683 479 683 524 712 c 1,132,133
 564 735 564 735 649 735 c 0,134,135
 733 735 733 735 740 733 c 0,136,137
 787 722 787 722 794 682 c 1,138,139
 795 660 795 660 792 645 c 0,140,141
 784 588 784 588 766 549 c 0,142,143
 754 526 754 526 707 471 c 0,144,145
 687 447 687 447 647 399 c 0,146,147
 607 350 607 350 588 326 c 0,148,149
 318 1 318 1 278 -46 c 0,150,151
 262 -65 262 -65 229 -103 c 0,152,153
 109 -243 109 -243 66 -321 c 0,154,155
 17 -412 17 -412 6 -477 c 0,156,157
 -20 -633 -20 -633 64 -728 c 0,158,159
 108 -776 108 -776 171 -792 c 0,160,161
 226 -807 226 -807 379 -804 c 0,162,163
 397 -804 397 -804 409 -804 c 2,164,-1
 800 -804 l 1,165,-1
 851 -576 l 1,91,-1
EndSplineSet
AlternateSubs2: "gsub_alternate_dfl_aalt_arab_FAR_Lookup_01_Subtable_01" uniFEA2 uniFEA3 afii57421 uniFEA4
Substitution2: "gsub_single_rtl_fina_arab_FAR_Lookup_01_Subtable_01" uniFEA2
Substitution2: "gsub_single_rtl_init_arab_FAR_Lookup_01_Subtable_01" uniFEA3
Substitution2: "gsub_single_rtl_medi_arab_FAR_Lookup_01_Subtable_01" uniFEA4
EndChar

StartChar: uniFEA2
Encoding: 65186 65186 370
Width: 1029
VWidth: 1639
GlyphClass: 2
Flags: HW
AnchorPoint: "GposMark2BaseAnchorClassErabAbove_01_02" 579 1182 basechar 0
AnchorPoint: "GposMark2BaseAnchorClassErabBelow_01_02" 579 -1045 basechar 0
LayerCount: 2
Fore
SplineSet
138 597 m 1,0,1
 211 778 211 778 214 786 c 0,2,3
 284 933 284 933 374 994 c 1,4,5
 438 1032 438 1032 543 1032 c 2,6,-1
 703 1032 l 1,7,-1
 914 1032 l 2,8,9
 1026 1032 1026 1032 1068 1008 c 0,10,11
 1076 1003 1076 1003 1083 999 c 0,12,13
 1124 969 1124 969 1135 899 c 0,14,15
 1136 892 1136 892 1135 877 c 0,16,17
 1135 862 1135 862 1136 856 c 0,18,19
 1147 791 1147 791 1147 779 c 0,20,21
 1145 619 1145 619 1036 418 c 0,22,23
 992 338 992 338 976 317 c 1,24,-1
 1247 317 l 1,25,-1
 1237 271 l 1,26,-1
 979 271 l 2,27,28
 974 271 974 271 961 270 c 0,29,30
 901 268 901 268 891 287 c 0,31,32
 886 300 886 300 894 330 c 1,33,34
 899 363 899 363 906 379 c 0,35,36
 911 391 911 391 958 466 c 0,37,38
 966 479 966 479 972 489 c 0,39,40
 1109 742 1109 742 1077 877 c 0,41,42
 1052 979 1052 979 901 986 c 0,43,44
 875 987 875 987 822 986 c 0,45,46
 793 985 793 985 780 986 c 2,47,-1
 588 986 l 2,48,49
 492 986 492 986 453 971 c 0,50,51
 446 968 446 968 441 966 c 0,52,53
 331 918 331 918 243 728 c 0,54,55
 235 711 235 711 227 692 c 0,56,57
 202 634 202 634 188 597 c 1,58,-1
 365 597 l 1,59,-1
 415 597 l 2,60,61
 435 598 435 598 439 599 c 0,62,63
 444 602 444 602 457 626 c 0,64,65
 495 689 495 689 502 697 c 0,66,67
 506 701 506 701 509 704 c 0,68,69
 535 725 535 725 581 731 c 0,70,71
 607 734 607 734 717 735 c 0,72,73
 765 734 765 734 784 712 c 1,74,75
 799 679 799 679 781 608 c 0,76,77
 768 553 768 553 704 475 c 0,78,79
 692 460 692 460 688 454 c 0,80,81
 668 429 668 429 627 381 c 0,82,83
 586 332 586 332 567 308 c 0,84,85
 514 245 514 245 410 119 c 0,86,87
 305 -8 305 -8 252 -71 c 0,88,89
 126 -222 126 -222 93 -272 c 0,90,91
 56 -328 56 -328 35 -379 c 0,92,93
 6 -445 6 -445 1 -472 c 0,94,95
 -28 -623 -28 -623 53 -723 c 0,96,97
 97 -775 97 -775 160 -794 c 1,98,99
 223 -808 223 -808 369 -807 c 2,100,-1
 791 -807 l 1,101,-1
 853 -579 l 1,102,-1
 431 -579 l 2,103,104
 422 -579 422 -579 402 -580 c 0,105,106
 304 -584 304 -584 278 -552 c 0,107,108
 275 -548 275 -548 272 -544 c 0,109,110
 230 -471 230 -471 329 -339 c 1,111,112
 462 -164 462 -164 694 93 c 1,113,-1
 707 82 l 1,114,-1
 716 93 l 1,115,-1
 728 82 l 1,116,-1
 737 93 l 1,117,118
 796 39 796 39 825 29 c 0,119,120
 827 28 827 28 829 28 c 0,121,122
 857 21 857 21 952 21 c 0,123,124
 990 21 990 21 1066 22 c 0,125,126
 1142 23 1142 23 1180 23 c 1,127,-1
 1159 -67 l 1,128,-1
 964 -67 l 2,129,130
 867 -67 867 -67 844 -62 c 0,131,132
 826 -57 826 -57 774 -21 c 0,133,134
 755 -8 755 -8 740 -3 c 1,135,136
 735 -10 735 -10 707 -44 c 0,137,138
 665 -94 665 -94 642 -118 c 0,139,140
 455 -338 455 -338 430 -369 c 0,141,142
 392 -416 392 -416 357 -467 c 1,143,144
 335 -496 335 -496 336 -505 c 0,145,146
 336 -516 336 -516 362 -526 c 2,147,-1
 363 -526 l 1,148,149
 387 -533 387 -533 470 -533 c 2,150,-1
 908 -533 l 1,151,-1
 886 -622 l 1,152,-1
 920 -622 l 1,153,-1
 846 -895 l 1,154,-1
 406 -895 l 2,155,156
 249 -895 249 -895 228 -893 c 0,157,158
 173 -886 173 -886 135 -869 c 0,159,160
 121 -862 121 -862 98 -845 c 0,161,162
 84 -835 84 -835 77 -830 c 0,163,164
 69 -824 69 -824 52 -814 c 0,165,166
 21 -795 21 -795 7 -782 c 0,167,168
 -89 -678 -89 -678 -44 -482 c 0,169,170
 -21 -383 -21 -383 6 -325 c 0,171,172
 54 -225 54 -225 182 -69 c 2,173,-1
 354 138 l 2,174,175
 423 223 423 223 508 323 c 0,176,177
 527 346 527 346 566 393 c 0,178,179
 629 470 629 470 660 507 c 0,180,181
 717 575 717 575 719 578 c 0,182,183
 734 601 734 601 739 620 c 0,184,185
 739 646 l 1,186,187
 644 646 644 646 630 644 c 0,188,189
 585 635 585 635 559 610 c 0,190,191
 550 601 550 601 515 543 c 0,192,193
 513 539 513 539 511 536 c 0,194,195
 500 514 500 514 494 510 c 1,196,197
 487 508 487 508 468 508 c 2,198,-1
 407 508 l 1,199,-1
 192 508 l 1,200,-1
 208 551 l 1,201,-1
 127 551 l 1,202,-1
 133 574 l 1,203,-1
 138 597 l 1,0,1
EndSplineSet
EndChar

StartChar: uniFEA3
Encoding: 65187 65187 371
Width: 1155
VWidth: 1639
GlyphClass: 2
Flags: HW
AnchorPoint: "GposMark2BaseAnchorClassErabAbove_01_02" 568.5 1185 basechar 0
AnchorPoint: "GposMark2BaseAnchorClassErabBelow_01_02" 568.5 -217 basechar 0
LayerCount: 2
Fore
SplineSet
184 594 m 1,0,1
 181 599 181 599 189 618 c 2,2,-1
 190 620 l 1,3,4
 195 633 195 633 205 659 c 0,5,6
 215 686 215 686 219 699 c 0,7,8
 225 716 225 716 237 751 c 0,9,10
 287 900 287 900 337 958 c 0,11,12
 363 987 363 987 391 1005 c 0,13,14
 441 1035 441 1035 543 1032 c 0,15,16
 564 1031 564 1031 574 1032 c 2,17,-1
 894 1032 l 2,18,19
 1007 1032 1007 1032 1019 1030 c 0,20,21
 1048 1025 1048 1025 1069 1015 c 0,22,23
 1142 977 1142 977 1164 877 c 0,24,25
 1165 874 1165 874 1165 872 c 0,26,27
 1167 862 1167 862 1167 842 c 0,28,29
 1167 826 1167 826 1168 818 c 0,30,31
 1169 808 1169 808 1173 790 c 0,32,33
 1181 748 1181 748 1180 723 c 1,34,35
 1176 692 1176 692 1141 574 c 0,36,37
 1127 528 1127 528 1070 313 c 0,38,39
 1024 142 1024 142 962 68 c 0,40,41
 929 29 929 29 889 2 c 0,42,43
 786 -65 786 -65 579 -67 c 0,44,45
 565 -67 565 -67 543 -67 c 0,46,47
 445 -67 445 -67 249 -66 c 0,48,49
 53 -65 53 -65 -44 -66 c 1,50,-1
 -24 23 l 1,51,52
 42 23 42 23 174 21 c 0,53,54
 438 17 438 17 571 23 c 0,55,56
 638 26 638 26 718 44 c 0,57,58
 766 54 766 54 813 79 c 0,59,60
 939 145 939 145 1000 340 c 0,61,62
 1012 380 1012 380 1032 459 c 0,63,64
 1048 523 1048 523 1056 553 c 0,65,66
 1071 604 1071 604 1096 700 c 1,67,68
 1112 751 1112 751 1114 763 c 0,69,70
 1121 833 1121 833 1086 894 c 1,71,72
 1043 965 1043 965 981 981 c 1,73,74
 942 988 942 988 834 986 c 1,75,-1
 612 986 l 2,76,77
 507 986 507 986 499 985 c 0,78,79
 444 977 444 977 406 946 c 0,80,81
 339 893 339 893 292 765 c 0,82,83
 289 757 289 757 283 741 c 0,84,85
 278 727 278 727 276 720 c 0,86,87
 235 611 235 611 230 594 c 1,88,-1
 407 594 l 1,89,-1
 457 594 l 2,90,91
 477 595 477 595 480 595 c 0,92,93
 484 597 484 597 499 627 c 0,94,95
 501 630 501 630 501 631 c 0,96,97
 529 694 529 694 553 718 c 1,98,99
 574 736 574 736 620 736 c 2,100,-1
 727 736 l 2,101,102
 777 735 777 735 792 730 c 1,103,104
 839 699 839 699 828 626 c 1,105,106
 805 526 805 526 749 372 c 1,107,108
 724 314 724 314 682 290 c 0,109,110
 647 270 647 270 581 271 c 2,111,-1
 480 271 l 1,112,-1
 33 271 l 1,113,-1
 44 317 l 1,114,-1
 448 317 l 1,115,-1
 546 317 l 2,116,117
 609 318 609 318 641 331 c 0,118,119
 694 357 694 357 721 436 c 0,120,121
 724 444 724 444 727 454 c 0,122,123
 752 523 752 523 763 558 c 0,124,125
 779 604 779 604 777 625 c 0,126,127
 776 642 776 642 770 646 c 1,128,129
 762 649 762 649 721 648 c 0,130,131
 652 648 652 648 650 647 c 0,132,133
 614 639 614 639 592 610 c 0,134,135
 579 593 579 593 552 535 c 0,136,137
 539 509 539 509 536 507 c 0,138,139
 529 505 529 505 510 505 c 2,140,-1
 450 505 l 1,141,-1
 235 505 l 1,142,-1
 250 548 l 1,143,-1
 171 548 l 1,144,-1
 179 571 l 1,145,146
 176 576 176 576 184 593 c 2,147,-1
 184 594 l 1,0,1
EndSplineSet
EndChar

StartChar: uniFEA4
Encoding: 65188 65188 372
Width: 1146
VWidth: 1639
GlyphClass: 2
Flags: HW
AnchorPoint: "GposMark2BaseAnchorClassErabAbove_01_02" 601.5 1187 basechar 0
AnchorPoint: "GposMark2BaseAnchorClassErabBelow_01_02" 601.5 -218 basechar 0
LayerCount: 2
Fore
SplineSet
126 548 m 1,0,1
 129 557 129 557 133 574 c 0,2,3
 137 592 137 592 140 600 c 0,4,5
 149 631 149 631 212 800 c 0,6,7
 258 924 258 924 310 976 c 0,8,9
 316 982 316 982 320 986 c 0,10,11
 378 1037 378 1037 493 1033 c 0,12,13
 500 1033 500 1033 514 1033 c 0,14,15
 540 1032 540 1032 552 1032 c 2,16,-1
 830 1032 l 2,17,18
 845 1032 845 1032 876 1033 c 0,19,20
 968 1036 968 1036 1006 1023 c 1,21,22
 1069 999 1069 999 1107 923 c 1,23,24
 1122 886 1122 886 1124 854 c 0,25,26
 1125 849 1125 849 1125 838 c 0,27,28
 1125 823 1125 823 1126 817 c 0,29,30
 1127 807 1127 807 1131 789 c 0,31,32
 1139 742 1139 742 1135 715 c 0,33,34
 1130 690 1130 690 1114 643 c 0,35,36
 1098 594 1098 594 1070 500 c 0,37,38
 1063 478 1063 478 1049 434 c 0,39,40
 1035 389 1035 389 1029 367 c 0,41,42
 1014 325 1014 325 1015 320 c 1,43,44
 1018 316 1018 316 1029 317 c 2,45,-1
 1070 317 l 1,46,-1
 1247 317 l 1,47,-1
 1237 271 l 1,48,-1
 1017 271 l 2,49,50
 965 271 965 271 957 274 c 0,51,52
 945 280 945 280 941 290 c 0,53,54
 935 308 935 308 943 344 c 0,55,56
 944 349 944 349 969 438 c 0,57,58
 972 449 972 449 1042 676 c 1,59,60
 1076 776 1076 776 1070 819 c 0,61,62
 1068 832 1068 832 1065 843 c 0,63,64
 1033 945 1033 945 953 976 c 1,65,66
 918 987 918 987 821 986 c 2,67,-1
 592 986 l 2,68,69
 579 986 579 986 552 987 c 0,70,71
 439 991 439 991 385 962 c 0,72,73
 370 953 370 953 358 943 c 0,74,75
 292 889 292 889 248 764 c 1,76,77
 188 599 188 599 186 594 c 1,78,-1
 363 594 l 1,79,-1
 413 594 l 2,80,81
 433 595 433 595 436 595 c 0,82,83
 441 599 441 599 456 630 c 0,84,85
 492 702 492 702 509 718 c 1,86,87
 531 737 531 737 576 736 c 2,88,-1
 682 736 l 2,89,90
 732 735 732 735 748 730 c 0,91,92
 801 706 801 706 782 620 c 0,93,94
 765 546 765 546 714 403 c 0,95,96
 689 329 689 329 660 305 c 0,97,98
 651 298 651 298 642 292 c 0,99,100
 595 265 595 265 486 270 c 0,101,102
 462 271 462 271 450 271 c 2,103,-1
 33 271 l 1,104,-1
 44 317 l 1,105,-1
 422 317 l 2,106,107
 434 317 434 317 459 315 c 0,108,109
 557 312 557 312 602 335 c 0,110,111
 652 362 652 362 678 439 c 0,112,113
 680 445 680 445 682 451 c 2,114,-1
 721 559 l 2,115,116
 735 600 735 600 733 625 c 0,117,118
 732 642 732 642 726 646 c 1,119,120
 718 649 718 649 679 648 c 0,121,122
 672 648 672 648 656 649 c 0,123,124
 586 653 586 653 558 623 c 0,125,126
 553 617 553 617 550 613 c 0,127,128
 528 580 528 580 508 536 c 0,129,130
 494 508 494 508 492 507 c 0,131,132
 485 505 485 505 466 505 c 2,133,-1
 405 505 l 1,134,-1
 191 505 l 1,135,-1
 207 548 l 1,136,-1
 126 548 l 1,0,1
799 93 m 1,137,138
 810 87 810 87 821 93 c 1,139,-1
 822 93 l 1,140,141
 830 85 830 85 842 93 c 1,142,-1
 844 93 l 1,143,144
 878 46 878 46 916 30 c 0,145,146
 939 22 939 22 1013 21 c 0,147,148
 1040 21 1040 21 1096 22 c 0,149,150
 1152 23 1152 23 1180 23 c 1,151,-1
 1159 -67 l 1,152,-1
 1023 -67 l 2,153,154
 958 -67 958 -67 939 -62 c 0,155,156
 912 -54 912 -54 891 -38 c 0,157,158
 853 -9 853 -9 840 -7 c 0,159,160
 835 -8 835 -8 815 -18 c 1,161,162
 795 -27 795 -27 756 -39 c 1,163,164
 697 -56 697 -56 587 -66 c 0,165,166
 560 -68 560 -68 376 -67 c 0,167,168
 306 -67 306 -67 166 -66 c 0,169,170
 25 -65 25 -65 -44 -66 c 1,171,-1
 -24 23 l 1,172,173
 35 23 35 23 153 21 c 0,174,175
 391 17 391 17 510 23 c 0,176,177
 676 32 676 32 753 67 c 0,178,179
 778 79 778 79 799 93 c 1,137,138
EndSplineSet
EndChar

StartChar: afii57422
Encoding: 1582 1582 373
AltUni2: 00fea5.ffffffff.0
Width: 1060
VWidth: 1639
GlyphClass: 2
Flags: HW
AnchorPoint: "GposMark2BaseAnchorClassErabAbove_01_02" 531 1552 basechar 0
AnchorPoint: "GposMark2BaseAnchorClassErabBelow_01_02" 531 -1042 basechar 0
LayerCount: 2
Fore
SplineSet
681 1402 m 1,0,-1
 1004 1402 l 1,1,-1
 984 1314 l 1,2,-1
 1016 1314 l 1,3,-1
 955 1046 l 1,4,-1
 675 1046 l 1,5,-1
 685 1089 l 1,6,-1
 610 1089 l 1,7,-1
 681 1402 l 1,0,-1
951 1356 m 1,8,-1
 713 1356 l 1,9,-1
 663 1135 l 1,10,-1
 901 1135 l 1,11,-1
 951 1356 l 1,8,-1
138 597 m 1,12,13
 151 624 151 624 176 683 c 0,14,15
 251 859 251 859 310 929 c 0,16,17
 345 970 345 970 384 995 c 1,18,19
 449 1031 449 1031 546 1032 c 2,20,-1
 676 1032 l 1,21,-1
 923 1032 l 2,22,23
 1045 1032 1045 1032 1090 994 c 0,24,25
 1099 986 1099 986 1106 977 c 0,26,27
 1128 949 1128 949 1134 876 c 0,28,29
 1135 865 1135 865 1136 858 c 0,30,31
 1137 847 1137 847 1141 825 c 0,32,33
 1147 792 1147 792 1148 776 c 0,34,35
 1146 724 1146 724 1124 640 c 0,36,37
 1078 466 1078 466 978 313 c 0,38,39
 942 259 942 259 841 136 c 0,40,41
 802 87 802 87 724 -11 c 0,42,43
 645 -109 645 -109 607 -157 c 0,44,45
 438 -363 438 -363 350 -507 c 1,46,47
 387 -524 387 -524 390 -525 c 0,48,49
 422 -533 422 -533 535 -530 c 0,50,51
 546 -530 546 -530 555 -530 c 2,52,-1
 904 -530 l 1,53,-1
 884 -618 l 1,54,-1
 916 -618 l 1,55,-1
 854 -892 l 1,56,-1
 413 -892 l 2,57,58
 255 -892 255 -892 250 -892 c 0,59,60
 182 -886 182 -886 138 -864 c 0,61,62
 127 -859 127 -859 82 -827 c 1,63,64
 27 -795 27 -795 10 -776 c 0,65,66
 -86 -667 -86 -667 -37 -460 c 0,67,68
 -13 -362 -13 -362 36 -272 c 0,69,70
 75 -202 75 -202 190 -65 c 0,71,72
 196 -58 196 -58 200 -54 c 2,73,-1
 357 133 l 2,74,75
 384 165 384 165 437 229 c 0,76,77
 477 278 477 278 499 303 c 0,78,79
 523 333 523 333 681 523 c 0,80,81
 686 529 686 529 696 542 c 0,82,83
 742 598 742 598 740 630 c 0,84,85
 738 642 738 642 738 645 c 0,86,87
 735 647 735 647 731 646.5 c 128,-1,88
 727 646 727 646 721 646 c 2,89,-1
 715 646 l 2,90,91
 668 646 668 646 660 645 c 0,92,93
 603 637 603 637 580 625 c 0,94,95
 533 596 533 596 496 508 c 1,96,-1
 192 508 l 1,97,-1
 211 551 l 1,98,-1
 127 551 l 1,99,100
 134 570 134 570 133 574 c 1,101,102
 140 593 140 593 138 597 c 1,12,13
851 -576 m 1,103,-1
 454 -576 l 2,104,105
 357 -576 357 -576 354 -575 c 0,106,107
 313 -569 313 -569 293 -548 c 0,108,109
 260 -510 260 -510 288 -437 c 0,110,111
 290 -432 290 -432 292 -426 c 0,112,113
 302 -404 302 -404 352 -336 c 1,114,115
 431 -221 431 -221 491 -146 c 0,116,117
 537 -88 537 -88 630 29 c 0,118,119
 724 146 724 146 770 203 c 0,120,121
 920 389 920 389 974 486 c 0,122,123
 995 525 995 525 1011 563 c 0,124,125
 1098 763 1098 763 1078 876 c 1,126,127
 1056 981 1056 981 902 987 c 0,128,129
 876 988 876 988 825 986 c 0,130,131
 795 985 795 985 781 986 c 2,132,-1
 591 986 l 2,133,134
 497 985 497 985 461 973 c 0,135,136
 352 932 352 932 262 751 c 0,137,138
 251 728 251 728 235 695 c 0,139,140
 197 614 197 614 191 597 c 1,141,-1
 441 597 l 1,142,143
 479 683 479 683 524 712 c 1,144,145
 564 735 564 735 649 735 c 0,146,147
 733 735 733 735 740 733 c 0,148,149
 787 722 787 722 794 682 c 1,150,151
 795 660 795 660 792 645 c 0,152,153
 784 588 784 588 766 549 c 0,154,155
 754 526 754 526 707 471 c 0,156,157
 687 447 687 447 647 399 c 0,158,159
 607 350 607 350 588 326 c 0,160,161
 318 1 318 1 278 -46 c 0,162,163
 262 -65 262 -65 229 -103 c 0,164,165
 109 -243 109 -243 66 -321 c 0,166,167
 17 -412 17 -412 6 -477 c 0,168,169
 -20 -633 -20 -633 64 -728 c 0,170,171
 108 -776 108 -776 171 -792 c 0,172,173
 226 -807 226 -807 379 -804 c 0,174,175
 397 -804 397 -804 409 -804 c 2,176,-1
 800 -804 l 1,177,-1
 851 -576 l 1,103,-1
EndSplineSet
AlternateSubs2: "gsub_alternate_dfl_aalt_arab_FAR_Lookup_01_Subtable_01" uniFEA6 uniFEA7 afii57422 uniFEA8
Substitution2: "gsub_single_rtl_fina_arab_FAR_Lookup_01_Subtable_01" uniFEA6
Substitution2: "gsub_single_rtl_init_arab_FAR_Lookup_01_Subtable_01" uniFEA7
Substitution2: "gsub_single_rtl_medi_arab_FAR_Lookup_01_Subtable_01" uniFEA8
EndChar

